<?xml version="1.0" encoding="UTF-8"?><svg id="Calque_2" xmlns="http://www.w3.org/2000/svg" xmlns:xlink="http://www.w3.org/1999/xlink" viewBox="0 0 1860 687"><defs><style>.cls-1,.cls-2,.cls-3,.cls-4,.cls-5,.cls-6,.cls-7{fill:none;}.cls-8{clip-path:url(#clippath);}.cls-9{fill:#4181e0;}.cls-10{fill:#a2badd;}.cls-11{fill:rgba(65,129,224,.34);}.cls-12{clip-path:url(#clippath-1);}.cls-2{stroke:#eaf1fd;}.cls-2,.cls-3,.cls-4,.cls-5,.cls-6{stroke-linecap:round;stroke-linejoin:round;stroke-width:2px;}.cls-3{stroke:#f87f28;}.cls-4{stroke:#bdd7fe;}.cls-5{stroke:#a2badd;}.cls-6{stroke:rgba(250,250,250,.28);}.cls-7{stroke:#dfeafc;stroke-miterlimit:10;}</style><clipPath id="clippath"><rect class="cls-1" width="1860" height="687"/></clipPath><clipPath id="clippath-1"><rect class="cls-1" y="-4268" width="1860" height="6536"/></clipPath></defs><g id="Calque_1-2"><g class="cls-8"><g class="cls-12"><g><path class="cls-5" d="M1432.42,635.27h9.83"/><path class="cls-5" d="M1437.33,630.21v10.13"/><path class="cls-5" d="M1432.42,613.36h9.83"/><path class="cls-5" d="M1437.33,608.3v10.13"/><path class="cls-5" d="M1432.42,591.46h9.83"/><path class="cls-5" d="M1437.33,586.39v10.13"/><path class="cls-5" d="M947.45,126.13v10.13"/><path class="cls-5" d="M952.37,131.19h-9.84"/><path class="cls-2" d="M629.77,315.12v10.13"/><path class="cls-2" d="M634.69,320.19h-9.84"/><path class="cls-3" d="M557.74,512.57v10.13"/><path class="cls-3" d="M562.66,517.63h-9.84"/><path class="cls-3" d="M856.39,395.31v10.14"/><path class="cls-3" d="M861.31,400.38h-9.84"/><path class="cls-3" d="M1054.41,273.26v10.13"/><path class="cls-3" d="M1059.33,278.33h-9.84"/><path class="cls-3" d="M1317.71,68.66v10.13"/><path class="cls-3" d="M1322.62,73.73h-9.84"/><path class="cls-3" d="M471.32,246.39v10.13"/><path class="cls-3" d="M476.24,251.45h-9.84"/><path class="cls-4" d="M624.85,93.91v10.13"/><path class="cls-4" d="M629.77,98.97h-9.84"/><path class="cls-6" d="M906.58,668.42v10.13"/><path class="cls-6" d="M911.51,673.49h-9.84"/><path class="cls-6" d="M927.86,668.42v10.13"/><path class="cls-6" d="M932.78,673.49h-9.84"/><path class="cls-6" d="M949.14,668.42v10.13"/><path class="cls-6" d="M954.05,673.49h-9.84"/><path class="cls-3" d="M332.65,213.73v10.13"/><path class="cls-3" d="M337.57,218.79h-9.84"/><path class="cls-2" d="M239.89,169.59h-9.84"/><path class="cls-2" d="M234.97,174.66v-10.14"/><path class="cls-2" d="M239.89,191.5h-9.84"/><path class="cls-2" d="M234.97,196.56v-10.13"/><path class="cls-2" d="M239.89,213.4h-9.84"/><path class="cls-2" d="M234.97,218.47v-10.13"/><path class="cls-10" d="M461.77,394.02c0,.34-.1,.67-.28,.96-.18,.28-.44,.5-.75,.63-.3,.13-.64,.16-.96,.1-.32-.07-.62-.23-.86-.47-.23-.24-.39-.55-.46-.88-.06-.34-.03-.68,.1-1,.13-.31,.34-.58,.61-.77,.28-.19,.6-.29,.93-.29,.22,0,.44,.05,.64,.13,.2,.09,.39,.22,.54,.38,.15,.16,.28,.35,.36,.55,.08,.21,.13,.44,.13,.66Z"/><path class="cls-10" d="M473.09,394.02c0,.34-.1,.67-.28,.96-.18,.28-.44,.5-.75,.63-.3,.13-.64,.16-.96,.1-.32-.07-.62-.23-.85-.47-.23-.24-.39-.55-.46-.88-.07-.34-.03-.68,.1-1,.13-.31,.34-.58,.61-.77,.27-.19,.6-.29,.93-.29,.22,0,.44,.05,.64,.13,.2,.09,.39,.22,.54,.38s.28,.35,.36,.55c.08,.21,.13,.44,.13,.66Z"/><path class="cls-10" d="M484.42,394.02c0,.34-.1,.67-.28,.96-.18,.28-.44,.5-.75,.63-.3,.13-.64,.16-.96,.1-.32-.07-.62-.23-.85-.47-.23-.24-.39-.55-.46-.88-.06-.34-.03-.68,.1-1,.13-.31,.34-.58,.61-.77,.27-.19,.6-.29,.93-.29,.22,0,.44,.05,.64,.13,.2,.09,.39,.22,.54,.38,.15,.16,.28,.35,.36,.55,.08,.21,.13,.44,.13,.66Z"/><path class="cls-10" d="M461.77,405.69c0,.34-.1,.67-.28,.95-.18,.28-.44,.5-.75,.63-.3,.13-.64,.17-.96,.1-.32-.07-.62-.23-.85-.47-.23-.24-.39-.55-.46-.88s-.03-.68,.1-.99c.13-.32,.34-.58,.61-.77,.28-.19,.6-.29,.93-.29,.44,0,.87,.18,1.18,.5,.31,.32,.49,.76,.49,1.22Z"/><path class="cls-10" d="M473.09,405.69c0,.34-.1,.67-.28,.95-.18,.28-.44,.5-.75,.63-.3,.13-.64,.17-.96,.1-.32-.07-.62-.23-.86-.47-.23-.24-.39-.55-.46-.88-.07-.33-.03-.68,.1-.99,.13-.32,.34-.58,.61-.77,.27-.19,.6-.29,.93-.29,.44,0,.87,.18,1.18,.5,.31,.32,.49,.76,.49,1.22Z"/><path class="cls-10" d="M484.42,405.69c0,.34-.1,.67-.28,.95-.18,.28-.44,.5-.75,.63-.31,.13-.64,.17-.96,.1-.32-.07-.62-.23-.85-.47-.23-.24-.39-.55-.46-.88-.06-.33-.03-.68,.1-.99,.13-.32,.34-.58,.61-.77,.27-.19,.6-.29,.93-.29,.22,0,.44,.04,.64,.13,.2,.08,.39,.21,.54,.37,.15,.16,.28,.35,.36,.56,.08,.21,.13,.43,.13,.66Z"/><path class="cls-10" d="M461.77,417.35c0,.34-.1,.67-.28,.95-.18,.29-.44,.51-.75,.64-.3,.13-.64,.16-.96,.09-.32-.06-.62-.23-.85-.47-.23-.24-.39-.54-.46-.88-.06-.33-.03-.68,.1-.99s.34-.58,.61-.77c.28-.19,.6-.29,.93-.29,.44,0,.87,.18,1.18,.5,.31,.33,.49,.76,.49,1.22Z"/><path class="cls-10" d="M473.09,417.35c0,.34-.1,.67-.28,.95-.18,.29-.44,.51-.75,.64-.3,.13-.64,.16-.96,.09-.32-.06-.62-.23-.86-.47-.23-.24-.39-.54-.46-.88-.07-.33-.03-.68,.1-.99,.13-.31,.34-.58,.61-.77,.27-.19,.6-.29,.93-.29,.44,0,.87,.18,1.18,.5,.31,.33,.49,.76,.49,1.22Z"/><path class="cls-10" d="M484.42,417.35c0,.34-.1,.67-.28,.95-.18,.29-.44,.51-.75,.64-.31,.13-.64,.16-.96,.09-.32-.06-.62-.23-.85-.47-.23-.24-.39-.54-.46-.88-.06-.33-.03-.67,.1-.99,.13-.31,.34-.58,.61-.77,.27-.19,.6-.29,.93-.29,.22,0,.44,.05,.64,.13,.2,.09,.39,.21,.54,.37,.15,.16,.28,.35,.36,.56,.08,.21,.13,.43,.13,.66Z"/><path class="cls-10" d="M238.34,32.2c0,.33-.1,.66-.28,.94-.18,.28-.44,.5-.74,.63-.3,.13-.63,.16-.96,.1-.32-.07-.62-.23-.85-.47-.23-.24-.39-.54-.45-.87-.06-.33-.03-.67,.09-.98,.12-.32,.34-.58,.61-.77,.27-.19,.59-.29,.92-.29,.22,0,.43,.05,.63,.13,.2,.09,.38,.21,.54,.37,.15,.16,.28,.35,.36,.56,.08,.2,.13,.42,.13,.65Z"/><path class="cls-10" d="M247.92,33.9c.91,0,1.66-.76,1.66-1.7s-.74-1.71-1.66-1.71-1.65,.77-1.65,1.71,.74,1.7,1.65,1.7Z"/><path class="cls-10" d="M260.81,32.2c0,.33-.1,.66-.28,.94-.18,.28-.44,.5-.74,.63-.3,.13-.64,.17-.96,.1-.32-.07-.62-.23-.85-.47-.23-.24-.39-.54-.45-.87-.06-.33-.03-.67,.09-.98,.13-.32,.34-.58,.61-.77,.27-.19,.59-.29,.92-.29,.44,0,.86,.18,1.17,.5,.31,.32,.49,.76,.49,1.21Z"/><path class="cls-10" d="M272.05,32.2c0,.33-.1,.66-.28,.94-.18,.28-.44,.5-.74,.63-.3,.13-.64,.17-.96,.1-.32-.07-.62-.23-.85-.47-.23-.24-.39-.54-.45-.87-.07-.33-.03-.67,.09-.98,.12-.32,.34-.58,.61-.77,.27-.19,.59-.29,.92-.29,.22,0,.43,.05,.63,.13,.2,.09,.38,.21,.54,.37,.15,.16,.28,.35,.36,.56,.08,.2,.13,.42,.13,.65Z"/><path class="cls-10" d="M281.62,33.9c.91,0,1.65-.76,1.65-1.7s-.74-1.71-1.65-1.71-1.65,.77-1.65,1.71,.74,1.7,1.65,1.7Z"/><path class="cls-10" d="M294.51,32.2c0,.33-.1,.66-.28,.94-.18,.28-.44,.5-.74,.63-.3,.13-.64,.17-.96,.1-.32-.07-.62-.23-.85-.47-.23-.24-.39-.54-.45-.87-.06-.33-.03-.67,.09-.98,.12-.32,.34-.58,.61-.77,.27-.19,.59-.29,.92-.29,.22,0,.43,.05,.63,.13,.2,.09,.38,.21,.54,.37,.15,.16,.27,.35,.36,.56,.08,.2,.13,.42,.13,.65Z"/><path class="cls-10" d="M305.75,32.2c0,.33-.1,.66-.28,.94-.18,.28-.44,.5-.74,.63-.3,.13-.64,.17-.96,.1-.32-.07-.61-.23-.85-.47-.23-.24-.39-.54-.45-.87-.06-.33-.03-.67,.09-.98,.13-.32,.34-.58,.61-.77,.27-.19,.59-.29,.92-.29,.22,0,.43,.05,.63,.13,.2,.09,.38,.21,.54,.37,.15,.16,.28,.35,.36,.56,.08,.2,.13,.42,.13,.65Z"/><path class="cls-10" d="M238.34,43.77c0,.33-.1,.66-.28,.94-.18,.28-.44,.5-.74,.63-.3,.13-.63,.16-.96,.1-.32-.07-.62-.23-.85-.47-.23-.24-.39-.54-.45-.87-.06-.33-.03-.67,.09-.98,.12-.32,.34-.58,.61-.77,.27-.19,.59-.29,.92-.29,.44,0,.86,.18,1.17,.5,.31,.32,.49,.76,.49,1.21Z"/><path class="cls-10" d="M249.57,43.77c0,.33-.1,.66-.28,.94-.18,.28-.44,.5-.74,.63-.3,.13-.63,.17-.96,.1s-.62-.23-.85-.47c-.23-.24-.39-.54-.45-.87s-.03-.67,.09-.98c.13-.32,.34-.58,.61-.77,.27-.19,.59-.29,.92-.29,.44,0,.86,.18,1.17,.5s.48,.76,.49,1.21Z"/><path class="cls-10" d="M260.81,43.77c0,.33-.1,.66-.28,.94-.18,.28-.44,.5-.74,.63-.3,.13-.64,.17-.96,.1-.32-.07-.62-.23-.85-.47-.23-.24-.39-.54-.45-.87s-.03-.67,.09-.98c.13-.32,.34-.58,.61-.77,.27-.19,.59-.29,.92-.29,.44,0,.86,.18,1.17,.5s.48,.76,.49,1.21Z"/><path class="cls-10" d="M272.05,43.77c0,.33-.1,.66-.28,.94-.18,.28-.44,.5-.74,.63-.3,.13-.64,.17-.96,.1-.32-.07-.62-.23-.85-.47-.23-.24-.39-.54-.45-.87-.07-.33-.03-.67,.09-.98,.12-.32,.34-.58,.61-.77,.27-.19,.59-.29,.92-.29,.44,0,.86,.18,1.17,.5s.48,.76,.49,1.21Z"/><path class="cls-10" d="M283.28,43.77c0,.33-.1,.66-.28,.94-.18,.28-.44,.5-.74,.63-.3,.13-.63,.17-.96,.1-.32-.07-.62-.23-.85-.47-.23-.24-.39-.54-.45-.87-.06-.33-.03-.67,.1-.99,.12-.31,.34-.57,.61-.76,.27-.19,.59-.29,.92-.29,.44,0,.86,.18,1.17,.5,.31,.32,.48,.76,.48,1.21Z"/><path class="cls-10" d="M294.51,43.77c0,.33-.1,.66-.28,.94-.18,.28-.44,.5-.74,.63-.3,.13-.64,.17-.96,.1-.32-.07-.62-.23-.85-.47-.23-.24-.39-.54-.45-.87s-.03-.67,.09-.98c.12-.32,.34-.58,.61-.77,.27-.19,.59-.29,.92-.29,.44,0,.86,.18,1.17,.5,.31,.32,.49,.76,.49,1.21Z"/><path class="cls-10" d="M305.75,43.77c0,.33-.1,.66-.28,.94-.18,.28-.44,.5-.74,.63-.3,.13-.64,.17-.96,.1-.32-.07-.61-.23-.85-.47-.23-.24-.39-.54-.45-.87s-.03-.67,.09-.98c.13-.32,.34-.58,.61-.77s.59-.29,.92-.29c.44,0,.86,.18,1.17,.5,.31,.32,.48,.76,.48,1.21Z"/><path class="cls-10" d="M238.34,55.34c0,.33-.1,.66-.28,.94-.18,.28-.44,.5-.74,.63-.3,.13-.63,.16-.96,.09-.32-.06-.61-.23-.85-.46-.23-.24-.39-.55-.45-.88-.06-.33-.03-.67,.09-.98,.13-.31,.34-.58,.61-.76,.27-.19,.59-.29,.92-.29,.22,0,.43,.04,.63,.13,.2,.09,.38,.21,.54,.37,.15,.16,.28,.35,.36,.55,.08,.21,.13,.43,.13,.66Z"/><path class="cls-10" d="M249.57,55.34c0,.33-.1,.66-.28,.94-.18,.28-.44,.5-.74,.63-.3,.13-.63,.16-.96,.09-.32-.06-.62-.22-.85-.46-.23-.24-.39-.54-.45-.88-.06-.33-.03-.67,.1-.98s.34-.58,.61-.76c.27-.19,.59-.29,.92-.29,.22,0,.43,.04,.63,.13,.2,.09,.38,.21,.54,.37,.15,.16,.27,.35,.36,.55,.08,.21,.12,.43,.12,.66Z"/><path class="cls-10" d="M260.81,55.34c0,.33-.1,.66-.28,.94-.18,.28-.44,.5-.74,.63-.3,.13-.64,.16-.96,.09-.32-.06-.61-.22-.85-.46-.23-.24-.39-.55-.45-.88-.06-.33-.03-.67,.1-.98,.12-.31,.34-.58,.61-.76,.27-.19,.59-.29,.92-.29,.22,0,.43,.04,.63,.13,.2,.09,.38,.21,.54,.37,.15,.16,.27,.35,.36,.55,.08,.21,.12,.43,.12,.66Z"/><path class="cls-10" d="M272.05,55.34c0,.33-.1,.66-.28,.94-.18,.28-.44,.5-.74,.63-.3,.13-.64,.16-.96,.09-.32-.06-.61-.22-.85-.46-.23-.24-.39-.54-.45-.88-.06-.33-.03-.67,.09-.98s.34-.58,.61-.76c.27-.19,.59-.29,.92-.29,.22,0,.43,.04,.63,.13,.2,.09,.38,.21,.54,.37,.15,.16,.28,.35,.36,.55,.08,.21,.12,.43,.12,.66Z"/><path class="cls-10" d="M283.28,55.34c0,.33-.1,.66-.28,.94-.18,.28-.44,.5-.74,.63-.3,.13-.64,.16-.96,.09-.32-.06-.62-.22-.85-.46-.23-.24-.39-.55-.45-.88-.06-.33-.03-.67,.1-.98,.12-.31,.34-.58,.61-.76,.27-.19,.59-.29,.92-.29,.22,0,.43,.04,.63,.13,.2,.09,.38,.21,.54,.37,.15,.16,.28,.35,.36,.55,.08,.21,.13,.43,.12,.66Z"/><path class="cls-10" d="M294.51,55.34c0,.33-.1,.66-.28,.94-.18,.28-.44,.5-.74,.63-.3,.13-.64,.16-.96,.1-.32-.07-.62-.23-.85-.47-.23-.24-.39-.54-.45-.87s-.03-.67,.09-.99c.12-.31,.34-.57,.61-.76,.27-.19,.59-.29,.92-.29,.44,0,.86,.18,1.17,.5,.31,.32,.49,.76,.49,1.21Z"/><path class="cls-10" d="M305.75,55.34c0,.33-.1,.66-.28,.94-.18,.28-.44,.5-.74,.63-.3,.13-.64,.16-.96,.1-.32-.07-.61-.23-.85-.47-.23-.24-.39-.54-.45-.87s-.03-.67,.09-.99c.13-.31,.34-.57,.61-.76s.59-.29,.92-.29c.44,0,.86,.18,1.17,.5,.31,.32,.48,.76,.48,1.21Z"/><path class="cls-10" d="M238.34,66.91c0,.33-.1,.66-.28,.94-.18,.28-.44,.5-.74,.63-.3,.13-.63,.16-.96,.1-.32-.07-.62-.23-.85-.47-.23-.24-.39-.54-.45-.87-.06-.33-.03-.67,.09-.99,.12-.31,.34-.57,.61-.76,.27-.19,.59-.29,.92-.29,.22,0,.43,.05,.63,.13,.2,.09,.38,.21,.54,.37,.15,.16,.28,.35,.36,.55,.08,.21,.13,.43,.13,.66Z"/><path class="cls-10" d="M249.57,66.91c0,.33-.1,.66-.28,.94-.18,.28-.44,.5-.74,.63-.3,.13-.63,.16-.96,.1-.32-.07-.62-.23-.85-.47-.23-.24-.39-.54-.45-.87-.06-.33-.03-.67,.09-.99,.13-.31,.34-.57,.61-.76,.27-.19,.59-.29,.92-.29,.44,0,.86,.18,1.17,.5,.31,.32,.49,.75,.49,1.21Z"/><path class="cls-10" d="M260.81,66.91c0,.33-.1,.66-.28,.94-.18,.28-.44,.5-.74,.63-.3,.13-.64,.16-.96,.1-.32-.07-.62-.23-.85-.47-.23-.24-.39-.54-.45-.87-.06-.33-.03-.67,.09-.99,.13-.31,.34-.57,.61-.76,.27-.19,.59-.29,.92-.29,.44,0,.86,.18,1.17,.5,.31,.32,.49,.75,.49,1.21Z"/><path class="cls-10" d="M272.05,66.91c0,.33-.1,.66-.28,.94-.18,.28-.44,.5-.74,.63-.3,.13-.64,.16-.96,.1-.32-.07-.62-.23-.85-.47-.23-.24-.39-.54-.45-.87-.07-.33-.03-.67,.09-.99,.12-.31,.34-.57,.61-.76,.27-.19,.59-.29,.92-.29,.22,0,.43,.05,.63,.13,.2,.09,.38,.21,.54,.37,.15,.16,.28,.35,.36,.55,.08,.21,.13,.43,.13,.66Z"/><path class="cls-10" d="M283.28,66.91c0,.33-.1,.66-.28,.94-.18,.28-.44,.5-.74,.63-.3,.13-.63,.16-.96,.1-.32-.07-.62-.23-.85-.47-.23-.24-.39-.54-.45-.87-.06-.33-.03-.67,.1-.99,.12-.31,.34-.57,.61-.76,.27-.19,.59-.29,.92-.29,.22,0,.43,.05,.63,.13,.2,.09,.38,.21,.54,.37,.15,.16,.28,.35,.36,.55,.08,.21,.13,.43,.13,.66Z"/><path class="cls-10" d="M294.51,66.91c0,.33-.1,.66-.28,.94-.18,.28-.44,.5-.74,.63-.3,.13-.64,.16-.96,.1-.32-.07-.62-.23-.85-.47-.23-.24-.39-.54-.45-.87-.06-.33-.03-.67,.09-.99,.12-.31,.34-.57,.61-.76,.27-.19,.59-.29,.92-.29,.22,0,.43,.05,.63,.13,.2,.09,.38,.21,.54,.37,.15,.16,.27,.35,.36,.55,.08,.21,.13,.43,.13,.66Z"/><path class="cls-10" d="M305.75,66.91c0,.33-.1,.66-.28,.94-.18,.28-.44,.5-.74,.63-.3,.13-.64,.16-.96,.1-.32-.07-.61-.23-.85-.47-.23-.24-.39-.54-.45-.87-.06-.33-.03-.67,.09-.99,.13-.31,.34-.57,.61-.76,.27-.19,.59-.29,.92-.29,.22,0,.43,.05,.63,.13,.2,.09,.38,.21,.54,.37,.15,.16,.28,.35,.36,.55,.08,.21,.13,.43,.13,.66Z"/><path class="cls-10" d="M238.34,78.48c0,.33-.1,.66-.28,.94-.18,.28-.44,.5-.74,.63-.3,.13-.63,.16-.96,.1-.32-.07-.62-.23-.85-.47-.23-.24-.39-.54-.45-.87-.06-.33-.03-.67,.09-.99,.12-.31,.34-.57,.61-.76,.27-.19,.59-.29,.92-.29,.22,0,.43,.05,.63,.13,.2,.09,.38,.21,.54,.37,.15,.16,.28,.35,.36,.55,.08,.21,.13,.43,.13,.66Z"/><path class="cls-10" d="M247.92,80.18c.91,0,1.66-.76,1.66-1.7s-.74-1.71-1.66-1.71-1.65,.76-1.65,1.71,.74,1.7,1.65,1.7Z"/><path class="cls-10" d="M260.81,78.48c0,.33-.1,.66-.28,.94-.18,.28-.44,.5-.74,.63-.3,.13-.63,.16-.96,.1-.32-.07-.62-.23-.85-.47-.23-.24-.39-.54-.45-.87s-.03-.67,.09-.99c.12-.31,.34-.57,.61-.76,.27-.19,.59-.29,.92-.29,.44,0,.86,.18,1.17,.5s.48,.75,.49,1.21Z"/><path class="cls-10" d="M272.05,78.48c0,.33-.1,.66-.28,.94-.18,.28-.44,.5-.74,.63-.3,.13-.63,.16-.96,.1-.32-.07-.61-.23-.85-.47-.23-.24-.39-.54-.45-.87s-.03-.67,.09-.99c.13-.31,.34-.57,.61-.76,.27-.19,.59-.29,.92-.29,.44,0,.86,.18,1.17,.5s.48,.75,.49,1.21Z"/><path class="cls-10" d="M281.62,80.18c.91,0,1.65-.76,1.65-1.7s-.74-1.71-1.65-1.71-1.65,.76-1.65,1.71,.74,1.7,1.65,1.7Z"/><path class="cls-10" d="M294.51,78.48c0,.33-.1,.66-.28,.94-.18,.28-.44,.5-.74,.63-.3,.13-.64,.16-.96,.1-.32-.07-.62-.23-.85-.47-.23-.24-.39-.54-.45-.87s-.03-.67,.09-.99c.12-.31,.34-.57,.61-.76,.27-.19,.59-.29,.92-.29,.22,0,.43,.05,.63,.13,.2,.09,.38,.21,.54,.37,.15,.16,.28,.35,.36,.55,.08,.21,.13,.43,.13,.66Z"/><path class="cls-10" d="M305.75,78.48c0,.33-.1,.66-.28,.94-.18,.28-.44,.5-.74,.63-.3,.13-.63,.16-.96,.1-.32-.07-.62-.23-.85-.47-.23-.24-.39-.54-.45-.87s-.03-.67,.09-.99c.13-.31,.34-.57,.61-.76s.59-.29,.92-.29c.22,0,.43,.05,.63,.13,.2,.09,.38,.21,.54,.37,.15,.16,.27,.35,.36,.55,.08,.21,.13,.43,.13,.66Z"/><path class="cls-10" d="M1130.87,226.11c0,.3-.08,.59-.25,.84-.16,.25-.39,.45-.66,.57-.27,.11-.57,.14-.85,.08-.29-.06-.56-.2-.76-.42-.21-.21-.35-.48-.41-.78-.06-.29-.03-.6,.09-.88,.11-.28,.29-.51,.54-.68s.53-.26,.82-.26c.39,0,.77,.16,1.05,.45,.27,.28,.43,.67,.43,1.08Z"/><path class="cls-10" d="M1139.44,227.63c.82,0,1.48-.68,1.48-1.52s-.66-1.53-1.48-1.53-1.48,.68-1.48,1.53,.67,1.52,1.48,1.52Z"/><path class="cls-10" d="M1150.98,226.11c0,.3-.09,.59-.25,.84-.17,.26-.39,.45-.66,.57-.27,.11-.57,.14-.86,.08-.29-.06-.55-.2-.76-.41-.21-.22-.35-.49-.4-.79-.06-.29-.03-.6,.08-.88s.3-.51,.55-.68c.24-.17,.53-.26,.82-.26,.2,0,.39,.04,.57,.12,.17,.07,.34,.19,.47,.33,.15,.14,.25,.31,.33,.49,.07,.19,.11,.39,.11,.59Z"/><path class="cls-10" d="M1161.03,226.11c0,.3-.09,.59-.25,.84-.16,.25-.39,.45-.66,.57-.27,.11-.57,.14-.85,.08-.3-.06-.56-.2-.77-.42-.2-.21-.34-.48-.4-.78-.06-.29-.03-.6,.08-.88,.12-.28,.3-.51,.55-.68,.24-.17,.53-.26,.82-.26,.2,0,.39,.04,.57,.12,.18,.07,.34,.19,.48,.33,.14,.14,.24,.31,.32,.49,.07,.19,.11,.39,.11,.59Z"/><path class="cls-10" d="M1169.6,227.63c.82,0,1.49-.68,1.49-1.52s-.67-1.53-1.49-1.53-1.48,.68-1.48,1.53,.66,1.52,1.48,1.52Z"/><path class="cls-10" d="M1181.14,226.11c0,.3-.09,.59-.25,.84s-.39,.45-.66,.57c-.28,.11-.57,.14-.86,.08s-.55-.2-.76-.42c-.21-.21-.35-.48-.41-.78-.05-.29-.02-.6,.09-.88s.31-.51,.55-.68,.52-.26,.82-.26c.39,0,.77,.16,1.05,.45,.28,.28,.43,.67,.43,1.08Z"/><path class="cls-10" d="M1191.2,226.11c0,.3-.1,.59-.25,.84-.17,.25-.4,.45-.67,.57-.27,.11-.57,.14-.86,.08-.28-.06-.55-.2-.76-.42-.2-.21-.35-.48-.4-.78-.06-.29-.03-.6,.08-.88,.12-.28,.31-.51,.55-.68s.53-.26,.83-.26c.39,0,.76,.16,1.04,.45,.28,.28,.44,.67,.44,1.08Z"/><path class="cls-10" d="M1140.92,236.46c0,.3-.08,.6-.25,.85-.16,.25-.39,.44-.66,.56-.27,.11-.57,.14-.85,.09-.29-.06-.56-.21-.76-.42-.21-.21-.35-.49-.41-.78-.05-.3-.03-.61,.09-.88,.11-.28,.3-.52,.55-.69,.24-.17,.52-.26,.81-.26,.4,0,.77,.17,1.05,.45,.28,.29,.43,.68,.43,1.08Z"/><path class="cls-10" d="M1150.98,236.46c0,.3-.09,.6-.25,.85-.17,.25-.39,.44-.66,.56-.27,.11-.57,.14-.86,.09-.29-.06-.55-.21-.76-.42-.21-.22-.35-.49-.4-.78-.06-.3-.03-.61,.08-.88,.11-.28,.3-.52,.55-.69,.24-.17,.53-.26,.82-.26,.4,0,.77,.17,1.04,.45,.28,.29,.44,.68,.44,1.08Z"/><path class="cls-10" d="M1161.03,236.46c0,.3-.09,.6-.25,.85-.16,.25-.39,.44-.66,.56-.27,.11-.57,.14-.85,.09-.3-.06-.56-.21-.77-.42-.2-.21-.34-.49-.4-.78-.06-.3-.03-.61,.08-.88,.12-.28,.3-.52,.55-.69,.24-.17,.53-.26,.82-.26,.39,0,.77,.17,1.05,.45,.28,.29,.43,.68,.43,1.08Z"/><path class="cls-10" d="M1171.09,236.46c0,.3-.09,.6-.26,.85-.15,.25-.39,.44-.66,.56-.27,.11-.57,.14-.85,.09-.29-.06-.56-.21-.76-.42-.21-.21-.35-.49-.41-.78-.06-.3-.03-.61,.09-.88,.11-.28,.3-.52,.54-.69,.25-.17,.53-.26,.82-.26,.4,0,.78,.17,1.06,.45,.27,.29,.43,.68,.43,1.08Z"/><path class="cls-10" d="M1181.14,236.46c0,.3-.09,.6-.25,.85s-.39,.44-.66,.56c-.28,.11-.57,.14-.86,.09-.29-.06-.55-.21-.76-.42s-.35-.49-.41-.78c-.05-.3-.02-.61,.09-.88,.11-.28,.31-.52,.55-.69s.52-.26,.82-.26c.39,0,.77,.17,1.05,.45,.28,.29,.43,.68,.43,1.08Z"/><path class="cls-10" d="M1191.2,236.46c0,.3-.1,.6-.25,.85-.17,.25-.4,.44-.67,.56-.27,.11-.57,.14-.86,.09-.28-.06-.55-.21-.76-.42-.2-.21-.35-.49-.4-.78-.06-.3-.03-.61,.08-.88,.12-.28,.31-.52,.55-.69s.53-.26,.83-.26c.39,0,.76,.17,1.04,.45,.28,.29,.44,.68,.44,1.08Z"/><path class="cls-10" d="M1201.25,236.46c0,.3-.09,.6-.25,.85s-.4,.44-.67,.56c-.27,.11-.57,.14-.85,.09-.29-.06-.56-.21-.76-.42-.21-.22-.35-.49-.41-.78-.06-.3-.02-.61,.09-.88,.11-.28,.3-.52,.54-.69,.25-.17,.53-.26,.83-.26,.39,0,.77,.17,1.04,.45,.28,.29,.44,.68,.44,1.08Z"/><path class="cls-7" d="M1203.78,638.26c0,.85-.24,1.67-.7,2.37-.45,.7-1.1,1.25-1.86,1.57-.75,.32-1.59,.41-2.39,.24-.8-.16-1.54-.57-2.12-1.16-.58-.6-.97-1.36-1.13-2.19-.16-.82-.08-1.68,.23-2.46,.32-.78,.85-1.44,1.53-1.91,.68-.47,1.48-.72,2.3-.72,.54,0,1.08,.11,1.59,.32,.5,.22,.95,.53,1.33,.93,.4,.39,.69,.86,.91,1.38,.2,.52,.31,1.07,.31,1.63Z"/><path class="cls-7" d="M1231.9,638.26c0,.85-.24,1.67-.7,2.37-.45,.71-1.1,1.25-1.86,1.57-.76,.33-1.59,.41-2.39,.25-.81-.17-1.55-.57-2.12-1.17-.59-.6-.98-1.36-1.13-2.18-.17-.83-.08-1.69,.23-2.47,.31-.78,.84-1.44,1.52-1.91,.69-.47,1.48-.72,2.31-.72,1.09,0,2.15,.45,2.92,1.25,.78,.8,1.22,1.88,1.22,3.01Z"/><path class="cls-7" d="M1260.01,638.26c0,.85-.24,1.67-.7,2.37-.45,.71-1.1,1.25-1.86,1.57-.75,.33-1.59,.41-2.39,.25-.8-.17-1.54-.57-2.12-1.17-.58-.6-.97-1.36-1.14-2.18-.15-.83-.07-1.69,.24-2.47,.31-.78,.85-1.44,1.53-1.91,.68-.47,1.48-.72,2.3-.72,.55,0,1.08,.11,1.58,.32,.51,.22,.96,.53,1.35,.93,.38,.39,.69,.86,.89,1.38,.21,.52,.32,1.07,.32,1.63Z"/><path class="cls-7" d="M1203.78,667.22c0,.84-.24,1.66-.7,2.36-.45,.7-1.1,1.25-1.86,1.57-.75,.33-1.59,.41-2.39,.24-.8-.16-1.54-.57-2.12-1.16-.58-.6-.97-1.36-1.13-2.19-.16-.82-.08-1.68,.23-2.46,.32-.78,.85-1.44,1.53-1.91,.68-.47,1.48-.72,2.3-.72,.54,0,1.08,.11,1.59,.32,.5,.22,.95,.53,1.33,.93,.4,.4,.69,.87,.91,1.38,.2,.52,.31,1.08,.31,1.64Z"/><path class="cls-7" d="M1231.9,667.22c0,.84-.24,1.66-.7,2.37-.45,.7-1.1,1.24-1.86,1.57-.76,.32-1.59,.4-2.39,.24-.81-.17-1.55-.57-2.12-1.17-.59-.6-.98-1.36-1.13-2.18-.17-.83-.08-1.69,.23-2.47,.31-.78,.84-1.44,1.52-1.91,.69-.47,1.48-.72,2.31-.72,1.09,0,2.15,.45,2.92,1.25,.78,.8,1.22,1.88,1.22,3.02Z"/><path class="cls-7" d="M1260.01,667.22c0,.84-.24,1.66-.7,2.37-.45,.7-1.1,1.24-1.86,1.57-.75,.32-1.59,.4-2.39,.24-.8-.17-1.54-.57-2.12-1.17-.58-.6-.97-1.36-1.14-2.18-.15-.83-.07-1.69,.24-2.47,.31-.78,.85-1.44,1.53-1.91,.68-.47,1.48-.72,2.3-.72,.55,0,1.08,.11,1.58,.32,.51,.22,.96,.53,1.35,.93,.38,.4,.69,.87,.89,1.38,.21,.52,.32,1.07,.32,1.64Z"/><path class="cls-9" d="M177.33,560.67c.57,0,1.02-.47,1.02-1.05s-.46-1.06-1.02-1.06-1.02,.47-1.02,1.06,.46,1.05,1.02,1.05Z"/><path class="cls-9" d="M190.69,560.67c.57,0,1.03-.47,1.03-1.05s-.46-1.06-1.03-1.06-1.02,.47-1.02,1.06,.46,1.05,1.02,1.05Z"/><path class="cls-9" d="M177.33,574.32c.57,0,1.02-.48,1.02-1.06s-.46-1.05-1.02-1.05-1.02,.47-1.02,1.05,.46,1.06,1.02,1.06Z"/><path class="cls-9" d="M190.69,574.32c.57,0,1.03-.48,1.03-1.06s-.46-1.05-1.03-1.05-1.02,.47-1.02,1.05,.46,1.06,1.02,1.06Z"/><path class="cls-9" d="M178.35,586.9c0,.21-.06,.42-.17,.59-.11,.17-.27,.31-.46,.39s-.39,.1-.59,.06c-.2-.04-.38-.14-.52-.29-.14-.15-.24-.34-.28-.54-.04-.2-.02-.42,.06-.61,.08-.19,.21-.36,.38-.47,.17-.12,.37-.18,.57-.18,.27,0,.53,.11,.72,.31,.19,.2,.3,.46,.3,.74Z"/><path class="cls-9" d="M191.71,586.9c0,.21-.06,.42-.17,.59-.11,.17-.27,.31-.46,.39-.19,.08-.39,.1-.59,.06s-.38-.14-.52-.29c-.14-.15-.24-.34-.28-.54-.04-.2-.02-.42,.06-.61,.08-.19,.21-.36,.38-.47,.17-.12,.37-.18,.57-.18,.14,0,.27,.03,.39,.08,.12,.05,.24,.13,.33,.23,.1,.1,.17,.21,.22,.34,.05,.13,.08,.27,.08,.4Z"/><path class="cls-9" d="M178.35,600.55c0,.21-.06,.41-.17,.59-.11,.17-.27,.3-.46,.38s-.39,.1-.59,.06c-.2-.04-.38-.14-.53-.29-.14-.14-.24-.33-.28-.54-.04-.2-.02-.41,.06-.61,.08-.19,.21-.35,.38-.47,.17-.11,.37-.18,.57-.18,.27,0,.53,.11,.72,.31,.19,.2,.3,.47,.3,.75Z"/><path class="cls-9" d="M191.71,600.55c0,.21-.06,.41-.17,.59-.11,.17-.27,.3-.46,.38-.19,.08-.39,.1-.59,.06s-.38-.14-.52-.29c-.14-.14-.24-.33-.28-.54-.04-.2-.02-.41,.06-.61,.08-.19,.21-.35,.38-.47,.17-.11,.37-.18,.57-.18,.14,0,.27,.03,.39,.08,.12,.06,.24,.13,.33,.23,.1,.1,.17,.22,.22,.34,.05,.13,.08,.27,.08,.41Z"/><path class="cls-9" d="M202.45,560.67c.57,0,1.03-.47,1.03-1.05s-.46-1.06-1.03-1.06-1.02,.47-1.02,1.06,.46,1.05,1.02,1.05Z"/><path class="cls-9" d="M215.82,560.67c.57,0,1.02-.47,1.02-1.05s-.46-1.06-1.02-1.06-1.02,.47-1.02,1.06,.46,1.05,1.02,1.05Z"/><path class="cls-9" d="M229.18,560.67c.57,0,1.02-.47,1.02-1.05s-.46-1.06-1.02-1.06-1.02,.47-1.02,1.06,.46,1.05,1.02,1.05Z"/><path class="cls-9" d="M242.54,560.67c.57,0,1.02-.47,1.02-1.05s-.46-1.06-1.02-1.06-1.02,.47-1.02,1.06,.46,1.05,1.02,1.05Z"/><path class="cls-9" d="M202.45,574.32c.57,0,1.03-.48,1.03-1.06s-.46-1.05-1.03-1.05-1.02,.47-1.02,1.05,.46,1.06,1.02,1.06Z"/><path class="cls-9" d="M215.82,574.32c.57,0,1.02-.48,1.02-1.06s-.46-1.05-1.02-1.05-1.02,.47-1.02,1.05,.46,1.06,1.02,1.06Z"/><path class="cls-9" d="M229.18,574.32c.57,0,1.02-.48,1.02-1.06s-.46-1.05-1.02-1.05-1.02,.47-1.02,1.05,.46,1.06,1.02,1.06Z"/><path class="cls-9" d="M242.54,574.32c.57,0,1.02-.48,1.02-1.06s-.46-1.05-1.02-1.05-1.02,.47-1.02,1.05,.46,1.06,1.02,1.06Z"/><path class="cls-9" d="M203.48,586.9c0,.21-.06,.42-.17,.59-.11,.17-.27,.31-.46,.39-.19,.08-.39,.1-.59,.06-.2-.04-.38-.14-.52-.29-.14-.15-.24-.34-.28-.54-.04-.2-.02-.42,.06-.61,.08-.19,.21-.36,.38-.47,.17-.12,.37-.18,.57-.18,.27,0,.53,.11,.73,.31,.19,.2,.3,.46,.3,.74Z"/><path class="cls-9" d="M216.84,586.9c0,.21-.06,.42-.17,.59-.11,.17-.27,.31-.46,.39-.19,.08-.39,.1-.59,.06-.2-.04-.38-.14-.52-.29-.14-.15-.24-.34-.28-.54-.04-.2-.02-.42,.06-.61s.21-.36,.38-.47c.17-.12,.37-.18,.57-.18,.27,0,.53,.11,.73,.31,.19,.2,.3,.46,.3,.74Z"/><path class="cls-9" d="M230.21,586.9c0,.21-.06,.42-.17,.59-.11,.17-.27,.31-.46,.39s-.39,.1-.59,.06c-.2-.04-.38-.14-.53-.29-.14-.15-.24-.34-.28-.54-.04-.2-.02-.42,.06-.61,.08-.19,.21-.36,.38-.47,.17-.12,.37-.18,.57-.18,.27,0,.53,.11,.72,.31,.19,.2,.3,.46,.3,.74Z"/><path class="cls-9" d="M243.57,586.9c0,.21-.06,.42-.17,.59-.11,.17-.27,.31-.46,.39-.19,.08-.39,.1-.59,.06-.2-.04-.38-.14-.52-.29-.14-.15-.24-.34-.28-.54-.04-.2-.02-.42,.06-.61,.08-.19,.21-.36,.38-.47,.17-.12,.37-.18,.57-.18,.13,0,.27,.03,.39,.08,.12,.05,.24,.13,.33,.23,.09,.1,.17,.21,.22,.34,.05,.13,.08,.27,.08,.4Z"/><path class="cls-9" d="M203.48,600.55c0,.21-.06,.41-.17,.59-.11,.17-.27,.3-.46,.38-.19,.08-.39,.1-.59,.06s-.38-.14-.52-.29c-.14-.14-.24-.33-.28-.54-.04-.2-.02-.41,.06-.61,.08-.19,.21-.35,.38-.47,.17-.11,.37-.18,.57-.18,.14,0,.27,.03,.39,.08,.12,.06,.24,.13,.33,.23,.1,.1,.17,.22,.22,.34,.05,.13,.08,.27,.08,.41Z"/><path class="cls-9" d="M216.84,600.55c0,.21-.06,.41-.17,.59-.11,.17-.27,.3-.46,.38s-.39,.1-.59,.06c-.2-.04-.38-.14-.52-.29-.14-.14-.24-.33-.28-.54-.04-.2-.02-.41,.06-.61,.08-.19,.21-.35,.38-.47,.17-.11,.37-.18,.57-.18,.13,0,.27,.03,.39,.08,.12,.06,.24,.13,.33,.23,.09,.1,.17,.22,.22,.34,.05,.13,.08,.27,.08,.41Z"/><path class="cls-9" d="M230.21,600.55c0,.21-.06,.41-.17,.59-.11,.17-.27,.3-.46,.38-.19,.08-.39,.1-.59,.06-.2-.04-.38-.14-.53-.29-.14-.14-.24-.33-.28-.54-.04-.2-.02-.41,.06-.61,.08-.19,.21-.35,.38-.47,.17-.11,.37-.18,.57-.18,.27,0,.53,.11,.72,.31,.19,.2,.3,.47,.3,.75Z"/><path class="cls-9" d="M243.57,600.55c0,.21-.06,.41-.17,.59-.11,.17-.27,.3-.46,.38-.19,.08-.39,.1-.59,.06-.2-.04-.38-.14-.52-.29-.14-.14-.24-.33-.28-.54-.04-.2-.02-.41,.06-.61,.08-.19,.21-.35,.38-.47,.17-.11,.37-.18,.57-.18,.13,0,.27,.03,.39,.08,.12,.06,.24,.13,.33,.23,.1,.1,.17,.22,.22,.34,.05,.13,.08,.27,.08,.41Z"/><path class="cls-9" d="M202.45,614.22c.57,0,1.03-.47,1.03-1.05s-.46-1.06-1.03-1.06-1.02,.47-1.02,1.06,.46,1.05,1.02,1.05Z"/><path class="cls-9" d="M215.82,614.22c.57,0,1.02-.47,1.02-1.05s-.46-1.06-1.02-1.06-1.02,.47-1.02,1.06,.46,1.05,1.02,1.05Z"/><path class="cls-9" d="M229.18,614.22c.57,0,1.02-.47,1.02-1.05s-.46-1.06-1.02-1.06-1.02,.47-1.02,1.06,.46,1.05,1.02,1.05Z"/><path class="cls-9" d="M242.54,614.22c.57,0,1.02-.47,1.02-1.05s-.46-1.06-1.02-1.06-1.02,.47-1.02,1.06,.46,1.05,1.02,1.05Z"/><path class="cls-9" d="M202.45,627.87c.57,0,1.03-.48,1.03-1.06s-.46-1.06-1.03-1.06-1.02,.48-1.02,1.06,.46,1.06,1.02,1.06Z"/><path class="cls-9" d="M215.82,627.87c.57,0,1.02-.48,1.02-1.06s-.46-1.06-1.02-1.06-1.02,.48-1.02,1.06,.46,1.06,1.02,1.06Z"/><path class="cls-9" d="M229.18,627.87c.57,0,1.02-.48,1.02-1.06s-.46-1.06-1.02-1.06-1.02,.48-1.02,1.06,.46,1.06,1.02,1.06Z"/><path class="cls-9" d="M242.54,627.87c.57,0,1.02-.48,1.02-1.06s-.46-1.06-1.02-1.06-1.02,.48-1.02,1.06,.46,1.06,1.02,1.06Z"/><path class="cls-9" d="M203.48,640.45c0,.21-.06,.42-.17,.59-.11,.17-.27,.31-.46,.39-.19,.08-.39,.1-.59,.06-.2-.04-.38-.14-.52-.29-.14-.15-.24-.33-.28-.54-.04-.2-.02-.42,.06-.61,.08-.19,.21-.36,.38-.47,.17-.12,.37-.18,.57-.18,.27,0,.53,.11,.73,.31s.3,.46,.3,.74Z"/><path class="cls-9" d="M216.84,640.45c0,.21-.06,.42-.17,.59-.11,.17-.27,.31-.46,.39-.19,.08-.39,.1-.59,.06-.2-.04-.38-.14-.52-.29-.14-.15-.24-.33-.28-.54-.04-.2-.02-.42,.06-.61,.08-.19,.21-.36,.38-.47,.17-.12,.37-.18,.57-.18,.27,0,.53,.11,.72,.31,.19,.2,.3,.46,.3,.74Z"/><path class="cls-9" d="M230.21,640.45c0,.21-.06,.42-.17,.59-.11,.17-.27,.31-.46,.39-.19,.08-.39,.1-.59,.06-.2-.04-.38-.14-.53-.29-.14-.15-.24-.33-.28-.54-.04-.2-.02-.42,.06-.61,.08-.19,.21-.36,.38-.47,.17-.12,.37-.18,.57-.18,.27,0,.53,.11,.72,.31s.3,.46,.3,.74Z"/><path class="cls-9" d="M243.57,640.45c0,.21-.06,.42-.17,.59-.11,.17-.27,.31-.46,.39-.19,.08-.39,.1-.59,.06-.2-.04-.38-.14-.52-.29-.14-.15-.24-.33-.28-.54-.04-.2-.02-.42,.06-.61,.08-.19,.21-.36,.38-.47,.17-.12,.37-.18,.57-.18,.13,0,.27,.03,.39,.08,.12,.05,.24,.13,.33,.23,.09,.1,.17,.21,.22,.34,.05,.13,.08,.27,.08,.4Z"/><path class="cls-9" d="M203.48,654.1c0,.21-.06,.41-.17,.59-.11,.17-.27,.3-.46,.38-.19,.08-.39,.1-.59,.06s-.38-.14-.52-.29c-.14-.14-.24-.33-.28-.53-.04-.21-.02-.42,.06-.61,.08-.2,.21-.36,.38-.48,.17-.11,.37-.18,.57-.18,.14,0,.27,.03,.39,.08,.12,.06,.24,.13,.33,.23s.17,.22,.22,.35c.05,.12,.08,.26,.08,.4Z"/><path class="cls-9" d="M216.84,654.1c0,.21-.06,.41-.17,.59-.11,.17-.27,.3-.46,.38-.19,.08-.39,.1-.59,.06-.2-.04-.38-.14-.52-.29-.14-.14-.24-.33-.28-.53-.04-.21-.02-.42,.06-.61,.08-.2,.21-.36,.38-.48,.17-.11,.37-.18,.57-.18,.13,0,.27,.03,.39,.08,.12,.06,.24,.13,.33,.23,.09,.1,.17,.22,.22,.35,.05,.12,.08,.26,.08,.4Z"/><path class="cls-9" d="M230.21,654.1c0,.21-.06,.41-.17,.59-.11,.17-.27,.3-.46,.38-.19,.08-.39,.1-.59,.06-.2-.04-.38-.14-.53-.29-.14-.14-.24-.33-.28-.53-.04-.21-.02-.42,.06-.61,.08-.2,.21-.36,.38-.48,.17-.11,.37-.18,.57-.18,.27,0,.53,.12,.72,.31,.19,.2,.3,.47,.3,.75Z"/><path class="cls-9" d="M243.57,654.1c0,.21-.06,.41-.17,.59-.11,.17-.27,.3-.46,.38-.19,.08-.39,.1-.59,.06-.2-.04-.38-.14-.52-.29-.14-.14-.24-.33-.28-.53-.04-.21-.02-.42,.06-.61,.08-.2,.21-.36,.38-.48,.17-.11,.37-.18,.57-.18,.13,0,.27,.03,.39,.08,.12,.06,.24,.13,.33,.23,.1,.1,.17,.22,.22,.35,.05,.12,.08,.26,.08,.4Z"/><path class="cls-9" d="M177.33,614.22c.57,0,1.02-.47,1.02-1.05s-.46-1.06-1.02-1.06-1.02,.47-1.02,1.06,.46,1.05,1.02,1.05Z"/><path class="cls-9" d="M190.69,614.22c.57,0,1.03-.47,1.03-1.05s-.46-1.06-1.03-1.06-1.02,.47-1.02,1.06,.46,1.05,1.02,1.05Z"/><path class="cls-9" d="M177.33,627.87c.57,0,1.02-.48,1.02-1.06s-.46-1.06-1.02-1.06-1.02,.48-1.02,1.06,.46,1.06,1.02,1.06Z"/><path class="cls-9" d="M190.69,627.87c.57,0,1.03-.48,1.03-1.06s-.46-1.06-1.03-1.06-1.02,.48-1.02,1.06,.46,1.06,1.02,1.06Z"/><path class="cls-9" d="M178.35,640.45c0,.21-.06,.42-.17,.59-.11,.17-.27,.31-.46,.39-.19,.08-.39,.1-.59,.06-.2-.04-.38-.14-.52-.29-.14-.15-.24-.33-.28-.54-.04-.2-.02-.42,.06-.61,.08-.19,.21-.36,.38-.47,.17-.12,.37-.18,.57-.18,.27,0,.53,.11,.72,.31,.19,.2,.3,.46,.3,.74Z"/><path class="cls-9" d="M191.71,640.45c0,.21-.06,.42-.17,.59-.11,.17-.27,.31-.46,.39-.19,.08-.39,.1-.59,.06-.2-.04-.38-.14-.52-.29-.14-.15-.24-.33-.28-.54-.04-.2-.02-.42,.06-.61,.08-.19,.21-.36,.38-.47,.17-.12,.37-.18,.57-.18,.14,0,.27,.03,.39,.08,.12,.05,.24,.13,.33,.23,.1,.1,.17,.21,.22,.34,.05,.13,.08,.27,.08,.4Z"/><path class="cls-9" d="M178.35,654.1c0,.21-.06,.41-.17,.59-.11,.17-.27,.3-.46,.38-.19,.08-.39,.1-.59,.06-.2-.04-.38-.14-.53-.29-.14-.14-.24-.33-.28-.53-.04-.21-.02-.42,.06-.61,.08-.2,.21-.36,.38-.48,.17-.11,.37-.18,.57-.18,.27,0,.53,.12,.72,.31,.19,.2,.3,.47,.3,.75Z"/><path class="cls-9" d="M191.71,654.1c0,.21-.06,.41-.17,.59-.11,.17-.27,.3-.46,.38-.19,.08-.39,.1-.59,.06s-.38-.14-.52-.29c-.14-.14-.24-.33-.28-.53-.04-.21-.02-.42,.06-.61,.08-.2,.21-.36,.38-.48,.17-.11,.37-.18,.57-.18,.14,0,.27,.03,.39,.08,.12,.06,.24,.13,.33,.23,.1,.1,.17,.22,.22,.35,.05,.12,.08,.26,.08,.4Z"/><path class="cls-9" d="M177.33,667.77c.57,0,1.02-.47,1.02-1.05s-.46-1.06-1.02-1.06-1.02,.47-1.02,1.06,.46,1.05,1.02,1.05Z"/><path class="cls-9" d="M190.69,667.77c.57,0,1.03-.47,1.03-1.05s-.46-1.06-1.03-1.06-1.02,.47-1.02,1.06,.46,1.05,1.02,1.05Z"/><path class="cls-9" d="M177.33,681.42c.57,0,1.02-.48,1.02-1.06s-.46-1.05-1.02-1.05-1.02,.47-1.02,1.05,.46,1.06,1.02,1.06Z"/><path class="cls-9" d="M190.69,681.42c.57,0,1.03-.48,1.03-1.06s-.46-1.05-1.03-1.05-1.02,.47-1.02,1.05,.46,1.06,1.02,1.06Z"/><path class="cls-9" d="M202.45,667.77c.57,0,1.03-.47,1.03-1.05s-.46-1.06-1.03-1.06-1.02,.47-1.02,1.06,.46,1.05,1.02,1.05Z"/><path class="cls-9" d="M215.82,667.77c.57,0,1.02-.47,1.02-1.05s-.46-1.06-1.02-1.06-1.02,.47-1.02,1.06,.46,1.05,1.02,1.05Z"/><path class="cls-9" d="M229.18,667.77c.57,0,1.02-.47,1.02-1.05s-.46-1.06-1.02-1.06-1.02,.47-1.02,1.06,.46,1.05,1.02,1.05Z"/><path class="cls-9" d="M242.54,667.77c.57,0,1.02-.47,1.02-1.05s-.46-1.06-1.02-1.06-1.02,.47-1.02,1.06,.46,1.05,1.02,1.05Z"/><path class="cls-9" d="M202.45,681.42c.57,0,1.03-.48,1.03-1.06s-.46-1.05-1.03-1.05-1.02,.47-1.02,1.05,.46,1.06,1.02,1.06Z"/><path class="cls-9" d="M215.82,681.42c.57,0,1.02-.48,1.02-1.06s-.46-1.05-1.02-1.05-1.02,.47-1.02,1.05,.46,1.06,1.02,1.06Z"/><path class="cls-9" d="M229.18,681.42c.57,0,1.02-.48,1.02-1.06s-.46-1.05-1.02-1.05-1.02,.47-1.02,1.05,.46,1.06,1.02,1.06Z"/><path class="cls-9" d="M242.54,681.42c.57,0,1.02-.48,1.02-1.06s-.46-1.05-1.02-1.05-1.02,.47-1.02,1.05,.46,1.06,1.02,1.06Z"/><path class="cls-11" d="M1484.96,227.67c.83,0,1.5-.69,1.5-1.54s-.67-1.55-1.5-1.55-1.5,.69-1.5,1.55,.67,1.54,1.5,1.54Z"/><path class="cls-11" d="M1504.53,227.67c.83,0,1.5-.69,1.5-1.54s-.67-1.55-1.5-1.55-1.5,.69-1.5,1.55,.67,1.54,1.5,1.54Z"/><path class="cls-11" d="M1524.1,227.67c.83,0,1.5-.69,1.5-1.54s-.67-1.55-1.5-1.55-1.5,.69-1.5,1.55,.68,1.54,1.5,1.54Z"/><path class="cls-11" d="M1484.96,247.64c.83,0,1.5-.69,1.5-1.54s-.67-1.55-1.5-1.55-1.5,.7-1.5,1.55,.67,1.54,1.5,1.54Z"/><path class="cls-11" d="M1504.53,247.64c.83,0,1.5-.69,1.5-1.54s-.67-1.55-1.5-1.55-1.5,.7-1.5,1.55,.67,1.54,1.5,1.54Z"/><path class="cls-11" d="M1524.1,247.64c.83,0,1.5-.69,1.5-1.54s-.67-1.55-1.5-1.55-1.5,.7-1.5,1.55,.68,1.54,1.5,1.54Z"/><path class="cls-11" d="M1486.46,266.07c0,.31-.09,.61-.25,.86-.16,.25-.4,.45-.68,.57-.27,.11-.57,.15-.87,.09-.29-.06-.55-.21-.76-.43-.21-.21-.35-.49-.41-.79-.06-.3-.03-.61,.09-.89,.11-.28,.3-.52,.54-.69,.25-.17,.54-.26,.84-.26,.4,0,.78,.16,1.06,.45s.44,.68,.44,1.09Z"/><path class="cls-11" d="M1506.03,266.07c0,.31-.09,.61-.25,.86-.17,.25-.4,.45-.67,.57-.28,.11-.58,.15-.87,.09s-.56-.21-.77-.43c-.21-.21-.35-.49-.41-.79-.06-.3-.03-.61,.08-.89,.12-.28,.31-.52,.56-.69s.54-.26,.83-.26c.4,0,.78,.16,1.06,.45,.28,.29,.44,.68,.44,1.09Z"/><path class="cls-11" d="M1525.6,266.07c0,.31-.08,.61-.25,.86-.17,.25-.4,.45-.67,.57-.28,.11-.58,.15-.87,.09-.29-.06-.56-.21-.77-.43-.21-.21-.35-.49-.41-.79-.06-.3-.03-.61,.08-.89,.12-.28,.31-.52,.56-.69s.53-.26,.83-.26c.4,0,.78,.16,1.06,.45,.29,.29,.44,.68,.44,1.09Z"/><path class="cls-11" d="M1486.46,286.04c0,.31-.09,.61-.25,.86-.16,.26-.4,.45-.68,.57-.27,.12-.57,.15-.87,.09-.29-.06-.55-.21-.76-.42-.21-.22-.35-.5-.41-.8-.06-.29-.03-.61,.09-.89,.11-.28,.3-.52,.54-.69,.25-.17,.54-.26,.84-.26,.2,0,.4,.04,.57,.12,.19,.07,.35,.19,.49,.33,.14,.15,.25,.32,.32,.5,.08,.19,.12,.39,.12,.59Z"/><path class="cls-11" d="M1506.03,286.04c0,.31-.09,.61-.25,.86-.17,.26-.4,.45-.67,.57-.28,.12-.58,.15-.87,.09s-.56-.21-.77-.42c-.21-.22-.35-.5-.41-.8-.06-.29-.03-.61,.08-.89,.12-.28,.31-.52,.56-.69,.25-.17,.54-.26,.83-.26,.2,0,.39,.04,.58,.12,.18,.07,.34,.19,.48,.33,.14,.15,.26,.32,.33,.5,.07,.19,.11,.39,.11,.59Z"/><path class="cls-11" d="M1525.6,286.04c0,.31-.08,.61-.25,.86-.17,.26-.4,.45-.67,.57-.28,.12-.58,.15-.87,.09-.29-.06-.56-.21-.77-.42-.21-.22-.35-.5-.41-.8-.06-.29-.03-.61,.08-.89,.12-.28,.31-.52,.56-.69,.25-.17,.53-.26,.83-.26,.4,0,.78,.16,1.06,.45,.29,.29,.44,.68,.44,1.09Z"/><path class="cls-11" d="M1409.02,227.67c.82,0,1.5-.69,1.5-1.54s-.68-1.55-1.5-1.55-1.51,.69-1.51,1.55,.67,1.54,1.51,1.54Z"/><path class="cls-11" d="M1428.59,227.67c.82,0,1.5-.69,1.5-1.54s-.68-1.55-1.5-1.55-1.5,.69-1.5,1.55,.67,1.54,1.5,1.54Z"/><path class="cls-11" d="M1448.16,227.67c.83,0,1.5-.69,1.5-1.54s-.67-1.55-1.5-1.55-1.5,.69-1.5,1.55,.67,1.54,1.5,1.54Z"/><path class="cls-11" d="M1467.73,227.67c.83,0,1.5-.69,1.5-1.54s-.67-1.55-1.5-1.55-1.5,.69-1.5,1.55,.67,1.54,1.5,1.54Z"/><path class="cls-11" d="M1409.02,247.64c.82,0,1.5-.69,1.5-1.54s-.68-1.55-1.5-1.55-1.51,.7-1.51,1.55,.67,1.54,1.51,1.54Z"/><path class="cls-11" d="M1428.59,247.64c.82,0,1.5-.69,1.5-1.54s-.68-1.55-1.5-1.55-1.5,.7-1.5,1.55,.67,1.54,1.5,1.54Z"/><path class="cls-11" d="M1448.16,247.64c.83,0,1.5-.69,1.5-1.54s-.67-1.55-1.5-1.55-1.5,.7-1.5,1.55,.67,1.54,1.5,1.54Z"/><path class="cls-11" d="M1467.73,247.64c.83,0,1.5-.69,1.5-1.54s-.67-1.55-1.5-1.55-1.5,.7-1.5,1.55,.67,1.54,1.5,1.54Z"/><path class="cls-11" d="M1410.52,266.07c0,.31-.1,.61-.26,.86s-.4,.45-.67,.57c-.28,.11-.57,.15-.87,.09-.29-.06-.56-.21-.76-.43-.22-.21-.36-.49-.42-.79-.05-.3-.03-.61,.09-.89,.11-.28,.3-.52,.55-.69s.54-.26,.84-.26c.39,0,.77,.16,1.06,.45,.28,.29,.44,.68,.44,1.09Z"/><path class="cls-11" d="M1430.09,266.07c0,.31-.09,.61-.26,.86-.16,.25-.4,.45-.67,.57-.27,.11-.57,.15-.86,.09-.3-.06-.57-.21-.77-.43-.22-.21-.36-.49-.41-.79-.06-.3-.03-.61,.08-.89,.11-.28,.31-.52,.56-.69,.24-.17,.53-.26,.83-.26,.4,0,.77,.16,1.06,.45,.28,.29,.44,.68,.44,1.09Z"/><path class="cls-11" d="M1449.66,266.07c0,.31-.09,.61-.25,.86-.17,.25-.4,.45-.68,.57-.27,.11-.58,.15-.86,.09-.29-.06-.56-.21-.77-.43-.21-.21-.36-.49-.41-.79-.06-.3-.03-.61,.08-.89,.12-.28,.31-.52,.56-.69,.24-.17,.53-.26,.83-.26,.4,0,.78,.16,1.06,.45s.44,.68,.44,1.09Z"/><path class="cls-11" d="M1469.23,266.07c0,.31-.09,.61-.25,.86-.17,.25-.4,.45-.68,.57-.27,.11-.57,.15-.87,.09-.29-.06-.55-.21-.76-.43-.21-.21-.35-.49-.41-.79-.06-.3-.03-.61,.09-.89,.11-.28,.3-.52,.54-.69,.25-.17,.54-.26,.84-.26,.19,0,.39,.04,.57,.11,.19,.08,.35,.2,.49,.34s.25,.31,.32,.5c.08,.19,.12,.39,.12,.59Z"/><path class="cls-11" d="M1410.52,286.04c0,.31-.1,.61-.26,.86-.16,.26-.4,.45-.67,.57-.28,.12-.57,.15-.87,.09-.29-.06-.56-.21-.76-.42-.22-.22-.36-.5-.42-.8-.05-.29-.03-.61,.09-.89,.11-.28,.3-.52,.55-.69,.25-.17,.54-.26,.84-.26,.19,0,.39,.04,.57,.12,.18,.07,.34,.19,.49,.33,.14,.15,.24,.32,.32,.5,.07,.19,.12,.39,.12,.59Z"/><path class="cls-11" d="M1430.09,286.04c0,.31-.09,.61-.26,.86-.16,.26-.4,.45-.67,.57-.27,.12-.58,.15-.86,.09-.3-.06-.57-.21-.77-.42-.22-.22-.36-.5-.41-.8-.06-.29-.03-.61,.08-.89,.11-.28,.31-.52,.56-.69,.24-.17,.53-.26,.83-.26,.2,0,.39,.04,.57,.12,.18,.07,.35,.19,.49,.33,.14,.15,.25,.32,.33,.5,.07,.19,.11,.39,.11,.59Z"/><path class="cls-11" d="M1449.66,286.04c0,.31-.09,.61-.25,.86-.17,.26-.4,.45-.68,.57-.27,.12-.58,.15-.87,.09-.28-.06-.55-.21-.76-.42-.21-.22-.36-.5-.41-.8-.06-.29-.03-.61,.08-.89,.12-.28,.31-.52,.56-.69,.24-.17,.53-.26,.83-.26,.4,0,.78,.16,1.06,.45s.44,.68,.44,1.09Z"/><path class="cls-11" d="M1469.23,286.04c0,.31-.09,.61-.25,.86-.17,.26-.4,.45-.68,.57-.27,.12-.57,.15-.87,.09-.29-.06-.55-.21-.76-.42-.21-.22-.35-.5-.41-.8-.06-.29-.03-.61,.09-.89,.11-.28,.3-.52,.54-.69,.25-.17,.54-.26,.84-.26,.19,0,.39,.04,.57,.12,.19,.07,.35,.19,.49,.33,.14,.15,.25,.32,.32,.5,.08,.19,.12,.39,.12,.59Z"/><path class="cls-11" d="M1409.02,306.06c.82,0,1.5-.69,1.5-1.55s-.68-1.54-1.5-1.54-1.51,.69-1.51,1.54,.67,1.55,1.51,1.55Z"/><path class="cls-11" d="M1428.59,306.06c.82,0,1.5-.69,1.5-1.55s-.68-1.54-1.5-1.54-1.5,.69-1.5,1.54,.67,1.55,1.5,1.55Z"/><path class="cls-11" d="M1448.16,306.06c.83,0,1.5-.69,1.5-1.55s-.67-1.54-1.5-1.54-1.5,.69-1.5,1.54,.67,1.55,1.5,1.55Z"/><path class="cls-11" d="M1467.73,306.06c.83,0,1.5-.69,1.5-1.55s-.67-1.54-1.5-1.54-1.5,.69-1.5,1.54,.67,1.55,1.5,1.55Z"/><path class="cls-11" d="M1409.02,326.03c.82,0,1.5-.69,1.5-1.54s-.68-1.55-1.5-1.55-1.51,.69-1.51,1.55,.67,1.54,1.51,1.54Z"/><path class="cls-11" d="M1428.59,326.03c.82,0,1.5-.69,1.5-1.54s-.68-1.55-1.5-1.55-1.5,.69-1.5,1.55,.67,1.54,1.5,1.54Z"/><path class="cls-11" d="M1448.16,326.03c.83,0,1.5-.69,1.5-1.54s-.67-1.55-1.5-1.55-1.5,.69-1.5,1.55,.67,1.54,1.5,1.54Z"/><path class="cls-11" d="M1467.73,326.03c.83,0,1.5-.69,1.5-1.54s-.67-1.55-1.5-1.55-1.5,.69-1.5,1.55,.67,1.54,1.5,1.54Z"/><path class="cls-11" d="M1410.52,344.46c0,.3-.1,.6-.26,.86-.16,.25-.4,.45-.67,.56-.28,.12-.57,.15-.87,.09-.29-.06-.56-.2-.76-.42-.22-.22-.36-.49-.42-.79-.05-.3-.03-.61,.09-.89,.11-.29,.3-.53,.55-.7s.54-.26,.84-.26c.39,0,.77,.17,1.06,.46,.28,.29,.44,.68,.44,1.09Z"/><path class="cls-11" d="M1430.09,344.46c0,.3-.09,.6-.26,.86-.16,.25-.4,.45-.67,.56-.27,.12-.57,.15-.86,.09-.3-.06-.57-.2-.77-.42-.22-.22-.36-.49-.41-.79-.06-.3-.03-.61,.08-.89,.11-.29,.31-.53,.56-.7,.24-.17,.53-.26,.83-.26,.4,0,.77,.17,1.06,.46,.28,.29,.44,.68,.44,1.09Z"/><path class="cls-11" d="M1449.66,344.46c0,.3-.09,.6-.25,.86-.17,.25-.4,.45-.68,.56-.27,.12-.58,.15-.86,.09-.29-.06-.56-.2-.77-.42-.21-.22-.36-.49-.41-.79-.06-.3-.03-.61,.08-.89,.12-.29,.31-.53,.56-.7,.24-.17,.53-.26,.83-.26,.4,0,.78,.17,1.06,.46s.44,.68,.44,1.09Z"/><path class="cls-11" d="M1469.23,344.46c0,.3-.09,.6-.25,.86-.17,.25-.4,.45-.68,.56-.27,.12-.57,.15-.87,.09-.29-.06-.55-.2-.76-.42-.21-.22-.35-.49-.41-.79-.06-.3-.03-.61,.09-.89,.11-.29,.3-.53,.54-.7,.25-.17,.54-.26,.84-.26,.19,0,.39,.04,.57,.12,.19,.08,.35,.19,.49,.34,.14,.14,.25,.31,.32,.5,.08,.18,.12,.38,.12,.59Z"/><path class="cls-11" d="M1410.52,364.43c0,.31-.1,.61-.26,.86s-.4,.45-.67,.57c-.28,.11-.57,.15-.87,.08-.29-.05-.56-.2-.76-.42-.22-.21-.36-.49-.42-.79-.05-.3-.03-.61,.09-.89,.11-.28,.3-.52,.55-.69s.54-.26,.84-.26c.19,0,.39,.04,.57,.11,.18,.08,.34,.19,.49,.34,.14,.14,.24,.31,.32,.5,.07,.19,.12,.39,.12,.59Z"/><path class="cls-11" d="M1430.09,364.43c0,.31-.09,.61-.26,.86-.16,.25-.4,.45-.67,.57-.27,.11-.58,.15-.86,.08-.3-.05-.57-.2-.77-.42-.22-.21-.36-.49-.41-.79-.06-.3-.03-.61,.08-.89,.11-.28,.31-.52,.56-.69,.24-.17,.53-.26,.83-.26,.2,0,.39,.04,.57,.11,.18,.08,.35,.19,.49,.34,.14,.14,.25,.31,.33,.5,.07,.19,.11,.39,.11,.59Z"/><path class="cls-11" d="M1449.66,364.43c0,.31-.09,.61-.25,.86-.17,.25-.4,.45-.68,.57-.27,.11-.58,.15-.87,.08-.28-.05-.55-.2-.76-.42-.21-.21-.36-.49-.41-.79-.06-.3-.03-.61,.08-.89,.12-.28,.31-.52,.56-.69,.24-.17,.53-.26,.83-.26,.4,0,.78,.16,1.06,.45s.44,.68,.44,1.09Z"/><path class="cls-11" d="M1469.23,364.43c0,.31-.09,.61-.25,.86-.17,.25-.4,.45-.68,.57-.27,.11-.57,.15-.87,.08-.29-.05-.55-.2-.76-.42-.21-.21-.35-.49-.41-.79-.06-.3-.03-.61,.09-.89,.11-.28,.3-.52,.54-.69,.25-.17,.54-.26,.84-.26,.19,0,.39,.04,.57,.11,.19,.08,.35,.19,.49,.34,.14,.14,.25,.31,.32,.5,.08,.19,.12,.39,.12,.59Z"/><path class="cls-11" d="M1484.96,306.06c.83,0,1.5-.69,1.5-1.55s-.67-1.54-1.5-1.54-1.5,.69-1.5,1.54,.67,1.55,1.5,1.55Z"/><path class="cls-11" d="M1504.53,306.06c.83,0,1.5-.69,1.5-1.55s-.67-1.54-1.5-1.54-1.5,.69-1.5,1.54,.67,1.55,1.5,1.55Z"/><path class="cls-11" d="M1524.1,306.06c.83,0,1.5-.69,1.5-1.55s-.67-1.54-1.5-1.54-1.5,.69-1.5,1.54,.68,1.55,1.5,1.55Z"/><path class="cls-11" d="M1484.96,326.03c.83,0,1.5-.69,1.5-1.54s-.67-1.55-1.5-1.55-1.5,.69-1.5,1.55,.67,1.54,1.5,1.54Z"/><path class="cls-11" d="M1504.53,326.03c.83,0,1.5-.69,1.5-1.54s-.67-1.55-1.5-1.55-1.5,.69-1.5,1.55,.67,1.54,1.5,1.54Z"/><path class="cls-11" d="M1524.1,326.03c.83,0,1.5-.69,1.5-1.54s-.67-1.55-1.5-1.55-1.5,.69-1.5,1.55,.68,1.54,1.5,1.54Z"/><path class="cls-11" d="M1486.46,344.46c0,.3-.09,.6-.25,.86-.16,.25-.4,.45-.68,.56-.27,.12-.57,.15-.87,.09-.29-.06-.55-.2-.76-.42-.21-.22-.35-.49-.41-.79-.06-.3-.03-.61,.09-.89,.11-.29,.3-.53,.54-.7,.25-.17,.54-.26,.84-.26,.4,0,.78,.17,1.06,.46s.44,.68,.44,1.09Z"/><path class="cls-11" d="M1506.03,344.46c0,.3-.09,.6-.25,.86-.17,.25-.4,.45-.67,.56-.28,.12-.58,.15-.87,.09-.29-.06-.56-.2-.77-.42-.21-.22-.35-.49-.41-.79-.06-.3-.03-.61,.08-.89,.12-.29,.31-.53,.56-.7s.54-.26,.83-.26c.4,0,.78,.17,1.06,.46,.28,.29,.44,.68,.44,1.09Z"/><path class="cls-11" d="M1525.6,344.46c0,.3-.08,.6-.25,.86-.17,.25-.4,.45-.67,.56-.28,.12-.58,.15-.87,.09-.29-.06-.56-.2-.77-.42-.21-.22-.35-.49-.41-.79-.06-.3-.03-.61,.08-.89,.12-.29,.31-.53,.56-.7s.53-.26,.83-.26c.4,0,.78,.17,1.06,.46,.29,.29,.44,.68,.44,1.09Z"/><path class="cls-11" d="M1486.46,364.43c0,.31-.09,.61-.25,.86-.16,.25-.4,.45-.68,.57-.27,.11-.57,.15-.87,.08-.29-.05-.55-.2-.76-.42-.21-.21-.35-.49-.41-.79-.06-.3-.03-.61,.09-.89,.11-.28,.3-.52,.54-.69,.25-.17,.54-.26,.84-.26,.2,0,.4,.04,.57,.11,.19,.08,.35,.19,.49,.34,.14,.14,.25,.31,.32,.5,.08,.19,.12,.39,.12,.59Z"/><path class="cls-11" d="M1506.03,364.43c0,.31-.09,.61-.25,.86-.17,.25-.4,.45-.67,.57-.28,.11-.58,.15-.87,.08-.29-.05-.56-.2-.77-.42-.21-.21-.35-.49-.41-.79-.06-.3-.03-.61,.08-.89,.12-.28,.31-.52,.56-.69s.54-.26,.83-.26c.2,0,.39,.04,.58,.11,.18,.08,.34,.19,.48,.34,.14,.14,.26,.31,.33,.5,.07,.19,.11,.39,.11,.59Z"/><path class="cls-11" d="M1525.6,364.43c0,.31-.08,.61-.25,.86-.17,.25-.4,.45-.67,.57-.28,.11-.58,.15-.87,.08-.29-.05-.56-.2-.77-.42-.21-.21-.35-.49-.41-.79-.06-.3-.03-.61,.08-.89,.12-.28,.31-.52,.56-.69s.53-.26,.83-.26c.4,0,.78,.16,1.06,.45,.29,.29,.44,.68,.44,1.09Z"/><path class="cls-11" d="M1409.02,384.45c.82,0,1.5-.7,1.5-1.55s-.68-1.54-1.5-1.54-1.51,.69-1.51,1.54,.67,1.55,1.51,1.55Z"/><path class="cls-11" d="M1428.59,384.45c.82,0,1.5-.7,1.5-1.55s-.68-1.54-1.5-1.54-1.5,.69-1.5,1.54,.67,1.55,1.5,1.55Z"/><path class="cls-11" d="M1448.16,384.45c.83,0,1.5-.7,1.5-1.55s-.67-1.54-1.5-1.54-1.5,.69-1.5,1.54,.67,1.55,1.5,1.55Z"/><path class="cls-11" d="M1467.73,384.45c.83,0,1.5-.7,1.5-1.55s-.67-1.54-1.5-1.54-1.5,.69-1.5,1.54,.67,1.55,1.5,1.55Z"/><path class="cls-11" d="M1409.02,404.42c.82,0,1.5-.69,1.5-1.55s-.68-1.54-1.5-1.54-1.51,.69-1.51,1.54,.67,1.55,1.51,1.55Z"/><path class="cls-11" d="M1428.59,404.42c.82,0,1.5-.69,1.5-1.55s-.68-1.54-1.5-1.54-1.5,.69-1.5,1.54,.67,1.55,1.5,1.55Z"/><path class="cls-11" d="M1448.16,404.42c.83,0,1.5-.69,1.5-1.55s-.67-1.54-1.5-1.54-1.5,.69-1.5,1.54,.67,1.55,1.5,1.55Z"/><path class="cls-11" d="M1467.73,404.42c.83,0,1.5-.69,1.5-1.55s-.67-1.54-1.5-1.54-1.5,.69-1.5,1.54,.67,1.55,1.5,1.55Z"/><path class="cls-11" d="M1410.52,422.84c0,.31-.1,.61-.26,.86-.16,.26-.4,.45-.67,.57-.28,.12-.57,.15-.87,.09-.29-.06-.56-.21-.76-.42-.22-.22-.36-.49-.42-.79-.05-.3-.03-.61,.09-.9,.11-.28,.3-.52,.55-.69s.54-.26,.84-.26c.39,0,.77,.16,1.06,.45,.28,.29,.44,.68,.44,1.09Z"/><path class="cls-11" d="M1430.09,422.84c0,.31-.09,.61-.26,.86-.16,.26-.4,.45-.67,.57s-.57,.15-.86,.09c-.3-.06-.57-.21-.77-.42-.22-.22-.36-.49-.41-.79-.06-.3-.03-.61,.08-.9,.11-.28,.31-.52,.56-.69,.24-.17,.53-.26,.83-.26,.4,0,.77,.16,1.06,.45,.28,.29,.44,.68,.44,1.09Z"/><path class="cls-11" d="M1449.66,422.84c0,.31-.09,.61-.25,.86-.17,.26-.4,.45-.68,.57-.27,.12-.58,.15-.86,.09-.29-.06-.56-.21-.77-.42-.21-.22-.36-.49-.41-.79-.06-.3-.03-.61,.08-.9,.12-.28,.31-.52,.56-.69,.24-.17,.53-.26,.83-.26,.4,0,.78,.16,1.06,.45s.44,.68,.44,1.09Z"/><path class="cls-11" d="M1469.23,422.84c0,.31-.09,.61-.25,.86-.17,.26-.4,.45-.68,.57-.27,.12-.57,.15-.87,.09-.29-.06-.55-.21-.76-.42-.21-.22-.35-.49-.41-.79-.06-.3-.03-.61,.09-.9,.11-.28,.3-.52,.54-.69,.25-.17,.54-.26,.84-.26,.19,0,.39,.04,.57,.12,.19,.08,.35,.19,.49,.33,.14,.15,.25,.32,.32,.5,.08,.19,.12,.39,.12,.59Z"/><path class="cls-11" d="M1410.52,442.82c0,.3-.1,.6-.26,.86-.16,.25-.4,.45-.67,.57-.28,.11-.57,.14-.87,.08-.29-.06-.56-.2-.76-.42-.22-.22-.36-.49-.42-.79-.05-.3-.03-.61,.09-.89,.11-.29,.3-.53,.55-.7,.25-.17,.54-.26,.84-.26,.19,0,.39,.04,.57,.12,.18,.08,.34,.19,.49,.34,.14,.14,.24,.31,.32,.5,.07,.18,.12,.39,.12,.59Z"/><path class="cls-11" d="M1430.09,442.82c0,.3-.09,.6-.26,.86-.16,.25-.4,.45-.67,.57-.27,.11-.58,.14-.86,.08-.3-.06-.57-.2-.77-.42-.22-.22-.36-.49-.41-.79-.06-.3-.03-.61,.08-.89,.11-.29,.31-.53,.56-.7,.24-.17,.53-.26,.83-.26,.2,0,.39,.04,.57,.12,.18,.08,.35,.19,.49,.34,.14,.14,.25,.31,.33,.5,.07,.18,.11,.39,.11,.59Z"/><path class="cls-11" d="M1449.66,442.82c0,.3-.09,.6-.25,.86-.17,.25-.4,.45-.68,.57-.27,.11-.58,.14-.87,.08-.28-.06-.55-.2-.76-.42-.21-.22-.36-.49-.41-.79-.06-.3-.03-.61,.08-.89,.12-.29,.31-.53,.56-.7,.24-.17,.53-.26,.83-.26,.4,0,.78,.17,1.06,.46s.44,.68,.44,1.09Z"/><path class="cls-11" d="M1469.23,442.82c0,.3-.09,.6-.25,.86-.17,.25-.4,.45-.68,.57-.27,.11-.57,.14-.87,.08-.29-.06-.55-.2-.76-.42-.21-.22-.35-.49-.41-.79-.06-.3-.03-.61,.09-.89,.11-.29,.3-.53,.54-.7,.25-.17,.54-.26,.84-.26,.19,0,.39,.04,.57,.12,.19,.08,.35,.19,.49,.34,.14,.14,.25,.31,.32,.5,.08,.18,.12,.39,.12,.59Z"/><path class="cls-11" d="M1484.96,384.45c.83,0,1.5-.7,1.5-1.55s-.67-1.54-1.5-1.54-1.5,.69-1.5,1.54,.67,1.55,1.5,1.55Z"/><path class="cls-11" d="M1504.53,384.45c.83,0,1.5-.7,1.5-1.55s-.67-1.54-1.5-1.54-1.5,.69-1.5,1.54,.67,1.55,1.5,1.55Z"/><path class="cls-11" d="M1524.1,384.45c.83,0,1.5-.7,1.5-1.55s-.67-1.54-1.5-1.54-1.5,.69-1.5,1.54,.68,1.55,1.5,1.55Z"/><path class="cls-11" d="M1484.96,404.42c.83,0,1.5-.69,1.5-1.55s-.67-1.54-1.5-1.54-1.5,.69-1.5,1.54,.67,1.55,1.5,1.55Z"/><path class="cls-11" d="M1504.53,404.42c.83,0,1.5-.69,1.5-1.55s-.67-1.54-1.5-1.54-1.5,.69-1.5,1.54,.67,1.55,1.5,1.55Z"/><path class="cls-11" d="M1524.1,404.42c.83,0,1.5-.69,1.5-1.55s-.67-1.54-1.5-1.54-1.5,.69-1.5,1.54,.68,1.55,1.5,1.55Z"/><path class="cls-11" d="M1486.46,422.84c0,.31-.09,.61-.25,.86-.16,.26-.4,.45-.68,.57-.27,.12-.57,.15-.87,.09-.29-.06-.55-.21-.76-.42-.21-.22-.35-.49-.41-.79-.06-.3-.03-.61,.09-.9,.11-.28,.3-.52,.54-.69,.25-.17,.54-.26,.84-.26,.4,0,.78,.16,1.06,.45s.44,.68,.44,1.09Z"/><path class="cls-11" d="M1506.03,422.84c0,.31-.09,.61-.25,.86-.17,.26-.4,.45-.67,.57-.28,.12-.58,.15-.87,.09s-.56-.21-.77-.42c-.21-.22-.35-.49-.41-.79-.06-.3-.03-.61,.08-.9,.12-.28,.31-.52,.56-.69s.54-.26,.83-.26c.4,0,.78,.16,1.06,.45,.28,.29,.44,.68,.44,1.09Z"/><path class="cls-11" d="M1525.6,422.84c0,.31-.08,.61-.25,.86-.17,.26-.4,.45-.67,.57-.28,.12-.58,.15-.87,.09-.29-.06-.56-.21-.77-.42-.21-.22-.35-.49-.41-.79-.06-.3-.03-.61,.08-.9,.12-.28,.31-.52,.56-.69s.53-.26,.83-.26c.4,0,.78,.16,1.06,.45,.29,.29,.44,.68,.44,1.09Z"/><path class="cls-11" d="M1486.46,442.82c0,.3-.09,.6-.25,.86-.16,.25-.4,.45-.68,.57-.27,.11-.57,.14-.87,.08-.29-.06-.55-.2-.76-.42-.21-.22-.35-.49-.41-.79-.06-.3-.03-.61,.09-.89,.11-.29,.3-.53,.54-.7,.25-.17,.54-.26,.84-.26,.2,0,.4,.04,.57,.12,.19,.08,.35,.19,.49,.34,.14,.14,.25,.31,.32,.5,.08,.18,.12,.39,.12,.59Z"/><path class="cls-11" d="M1506.03,442.82c0,.3-.09,.6-.25,.86-.17,.25-.4,.45-.67,.57-.28,.11-.58,.14-.87,.08s-.56-.2-.77-.42c-.21-.22-.35-.49-.41-.79-.06-.3-.03-.61,.08-.89,.12-.29,.31-.53,.56-.7,.25-.17,.54-.26,.83-.26,.2,0,.39,.04,.58,.12,.18,.08,.34,.19,.48,.34,.14,.14,.26,.31,.33,.5,.07,.18,.11,.39,.11,.59Z"/><path class="cls-11" d="M1525.6,442.82c0,.3-.08,.6-.25,.86-.17,.25-.4,.45-.67,.57-.28,.11-.58,.14-.87,.08-.29-.06-.56-.2-.77-.42-.21-.22-.35-.49-.41-.79-.06-.3-.03-.61,.08-.89,.12-.29,.31-.53,.56-.7,.25-.17,.53-.26,.83-.26,.4,0,.78,.17,1.06,.46,.29,.29,.44,.68,.44,1.09Z"/></g></g></g></g></svg>