<?xml version="1.0" encoding="UTF-8"?><svg id="Calque_2" xmlns="http://www.w3.org/2000/svg" xmlns:xlink="http://www.w3.org/1999/xlink" viewBox="0 0 1864 787"><defs><style>.cls-1,.cls-2,.cls-3,.cls-4,.cls-5,.cls-6,.cls-7,.cls-8,.cls-9,.cls-10,.cls-11{fill:none;}.cls-12{fill:#3680ee;}.cls-12,.cls-13,.cls-2,.cls-3,.cls-14,.cls-15{isolation:isolate;}.cls-12,.cls-2,.cls-3,.cls-16{opacity:.16;}.cls-12,.cls-15{fill-rule:evenodd;}.cls-17{clip-path:url(#clippath);}.cls-18{fill:#c3d6f2;}.cls-19{fill:#202020;}.cls-20,.cls-14{fill:#4181e0;}.cls-21{fill:#a2badd;}.cls-13,.cls-15{fill:#f89300;}.cls-13,.cls-22{opacity:.29;}.cls-2{stroke:#f89300;}.cls-2,.cls-3,.cls-9,.cls-10,.cls-11{stroke-miterlimit:10;}.cls-3{stroke:#2f74b4;}.cls-14,.cls-23{opacity:.19;}.cls-24{clip-path:url(#clippath-1);}.cls-25{clip-path:url(#clippath-2);}.cls-4,.cls-5,.cls-6,.cls-7,.cls-8{stroke-linecap:round;stroke-linejoin:round;stroke-width:2px;}.cls-4,.cls-9{stroke:#eaf1fd;}.cls-15{opacity:.22;}.cls-5{stroke:#f87f28;}.cls-6{stroke:#bdd7fe;}.cls-7{stroke:#a2badd;}.cls-8{stroke:rgba(250,250,250,.28);}.cls-10{stroke:#c3d6f2;}.cls-11{stroke:#dfeafc;}</style><clipPath id="clippath"><rect class="cls-1" width="1864" height="787"/></clipPath><clipPath id="clippath-1"><rect class="cls-1" y="-5633" width="1860" height="6536"/></clipPath><clipPath id="clippath-2"><rect class="cls-1" x="-12" width="1876" height="787"/></clipPath></defs><g id="Calque_1-2"><g class="cls-17"><g class="cls-24"><g><path class="cls-7" d="M1528.33-10.12V.61"/><path class="cls-8" d="M997.58,30.37v10.74"/><path class="cls-8" d="M1002.51,35.74h-9.84"/><path class="cls-8" d="M1018.86,30.37v10.74"/><path class="cls-8" d="M1023.78,35.74h-9.84"/><path class="cls-8" d="M1040.14,30.37v10.74"/><path class="cls-8" d="M1045.05,35.74h-9.84"/><path class="cls-11" d="M1294.78,29.09c0,.9-.24,1.77-.7,2.51-.45,.75-1.1,1.33-1.86,1.67-.75,.34-1.59,.43-2.39,.25-.8-.17-1.54-.6-2.12-1.23-.58-.64-.97-1.44-1.13-2.32-.16-.87-.08-1.78,.23-2.61,.32-.82,.85-1.53,1.53-2.02,.68-.5,1.48-.77,2.3-.77,.54,0,1.08,.12,1.59,.35,.5,.23,.95,.56,1.33,.98,.4,.42,.69,.92,.91,1.46,.2,.55,.31,1.14,.31,1.73Z"/><path class="cls-11" d="M1322.9,29.09c0,.9-.24,1.77-.7,2.52-.45,.74-1.1,1.32-1.86,1.66s-1.59,.43-2.39,.26c-.81-.18-1.55-.61-2.12-1.24-.59-.63-.98-1.44-1.13-2.31-.17-.88-.08-1.79,.23-2.62,.31-.82,.84-1.53,1.52-2.02,.69-.5,1.48-.77,2.31-.77,1.09,0,2.15,.48,2.92,1.33,.78,.85,1.22,2,1.22,3.19Z"/><path class="cls-11" d="M1351.01,29.09c0,.9-.24,1.77-.7,2.52-.45,.74-1.1,1.32-1.86,1.66-.75,.34-1.59,.43-2.39,.26-.8-.18-1.54-.61-2.12-1.24-.58-.63-.97-1.44-1.14-2.31-.15-.88-.07-1.79,.24-2.62,.31-.82,.85-1.53,1.53-2.02,.68-.5,1.48-.77,2.3-.77,.55,0,1.08,.12,1.58,.35,.51,.23,.96,.56,1.35,.98,.38,.42,.69,.92,.89,1.46,.21,.55,.32,1.14,.32,1.73Z"/><path class="cls-20" d="M294.48,.74c0,.22-.06,.43-.17,.62-.11,.18-.27,.32-.46,.41-.19,.08-.39,.11-.59,.06-.2-.04-.38-.15-.52-.3-.14-.16-.24-.36-.28-.58-.04-.21-.02-.44,.06-.64,.08-.21,.21-.38,.38-.5,.17-.13,.37-.19,.57-.19,.27,0,.53,.12,.72,.33,.19,.21,.3,.49,.3,.79Z"/><path class="cls-20" d="M307.84,.74c0,.22-.06,.43-.17,.62-.11,.18-.27,.32-.46,.41-.19,.08-.39,.11-.59,.06-.2-.04-.38-.15-.53-.3-.14-.16-.24-.36-.28-.58-.04-.21-.02-.44,.06-.64,.08-.21,.21-.38,.38-.5,.17-.13,.37-.19,.57-.19,.27,0,.53,.12,.72,.33,.19,.21,.3,.49,.3,.79Z"/><path class="cls-20" d="M321.21,.74c0,.22-.06,.43-.17,.62-.11,.18-.27,.32-.46,.41-.19,.08-.39,.11-.59,.06-.2-.04-.38-.15-.52-.3-.14-.16-.24-.36-.28-.58-.04-.21-.02-.44,.06-.64,.08-.21,.21-.38,.38-.5,.17-.13,.37-.19,.57-.19,.27,0,.53,.12,.72,.33,.19,.21,.3,.49,.3,.79Z"/><path class="cls-20" d="M334.57,.74c0,.22-.06,.43-.17,.62-.11,.18-.27,.32-.46,.41-.19,.08-.39,.11-.59,.06-.2-.04-.38-.15-.52-.3-.14-.16-.24-.36-.28-.58-.04-.21-.02-.44,.06-.64,.08-.21,.21-.38,.38-.5,.17-.13,.37-.19,.57-.19,.13,0,.27,.03,.39,.08,.12,.06,.24,.14,.33,.25,.09,.1,.17,.22,.22,.36,.05,.13,.08,.28,.08,.43Z"/><path class="cls-20" d="M294.48,15.2c0,.22-.06,.43-.17,.62-.11,.18-.27,.32-.46,.41-.19,.08-.39,.1-.59,.06s-.38-.15-.52-.3c-.14-.16-.24-.36-.28-.58-.04-.21-.02-.44,.06-.64,.08-.21,.21-.38,.38-.5,.17-.13,.37-.19,.57-.19,.13,0,.27,.03,.39,.08,.12,.06,.24,.14,.33,.24,.1,.11,.17,.23,.22,.37,.05,.13,.08,.28,.08,.43Z"/><path class="cls-20" d="M307.84,15.2c0,.22-.06,.43-.17,.62-.11,.18-.27,.32-.46,.41-.19,.08-.39,.1-.59,.06-.2-.04-.38-.15-.52-.3-.14-.16-.24-.36-.28-.58-.04-.21-.02-.44,.06-.64,.08-.21,.21-.38,.38-.5,.17-.13,.37-.19,.57-.19,.13,0,.27,.03,.39,.08,.12,.06,.24,.14,.33,.24,.1,.11,.17,.23,.22,.37,.05,.13,.08,.28,.08,.43Z"/><path class="cls-20" d="M321.2,15.2c0,.22-.06,.43-.17,.62-.11,.18-.27,.32-.46,.41-.19,.08-.39,.1-.59,.06-.2-.04-.38-.15-.52-.3-.14-.16-.24-.36-.28-.58-.04-.21-.02-.44,.06-.64,.08-.21,.21-.38,.38-.5,.17-.13,.37-.19,.57-.19,.27,0,.53,.12,.72,.32,.19,.21,.3,.5,.3,.8Z"/><path class="cls-20" d="M334.57,15.2c0,.22-.06,.43-.17,.62-.11,.18-.27,.32-.46,.41-.19,.08-.39,.1-.59,.06-.2-.04-.38-.15-.52-.3-.14-.16-.24-.36-.28-.58-.04-.21-.02-.44,.06-.64,.08-.21,.21-.38,.38-.5,.17-.13,.37-.19,.57-.19,.13,0,.27,.03,.39,.08,.12,.06,.24,.14,.33,.24,.1,.11,.17,.23,.22,.37,.05,.13,.08,.28,.08,.43Z"/><path class="cls-20" d="M269.35,.74c0,.22-.06,.43-.17,.62-.11,.18-.27,.32-.46,.41-.19,.08-.39,.11-.59,.06-.2-.04-.38-.15-.52-.3-.14-.16-.24-.36-.28-.58-.04-.21-.02-.44,.06-.64,.08-.21,.21-.38,.38-.5,.17-.13,.37-.19,.57-.19,.27,0,.53,.12,.72,.33,.19,.21,.3,.49,.3,.79Z"/><path class="cls-20" d="M282.71,.74c0,.22-.06,.43-.17,.62-.11,.18-.27,.32-.46,.41-.19,.08-.39,.11-.59,.06-.2-.04-.38-.15-.52-.3-.14-.16-.24-.36-.28-.58-.04-.21-.02-.44,.06-.64,.08-.21,.21-.38,.38-.5,.17-.13,.37-.19,.57-.19,.14,0,.27,.03,.39,.08,.12,.06,.24,.14,.33,.25,.1,.1,.17,.22,.22,.36,.05,.13,.08,.28,.08,.43Z"/><path class="cls-20" d="M269.35,15.2c0,.22-.06,.43-.17,.62-.11,.18-.27,.32-.46,.41-.19,.08-.39,.1-.59,.06s-.38-.15-.52-.3c-.14-.16-.24-.36-.28-.58-.04-.21-.02-.44,.06-.64,.08-.21,.21-.38,.38-.5,.17-.13,.37-.19,.57-.19,.27,0,.53,.12,.72,.32,.19,.21,.3,.5,.3,.8Z"/><path class="cls-20" d="M282.71,15.2c0,.22-.06,.43-.17,.62-.11,.18-.27,.32-.46,.41-.19,.08-.39,.1-.59,.06-.2-.04-.38-.15-.53-.3-.14-.16-.24-.36-.28-.58-.04-.21-.02-.44,.06-.64,.08-.21,.21-.38,.38-.5,.17-.13,.37-.19,.57-.19,.14,0,.27,.03,.39,.08,.12,.06,.24,.14,.33,.24,.1,.11,.17,.23,.22,.37,.05,.13,.08,.28,.08,.43Z"/><path class="cls-20" d="M268.33,29.68c.57,0,1.03-.5,1.03-1.11s-.46-1.12-1.03-1.12-1.02,.5-1.02,1.12,.46,1.11,1.02,1.11Z"/><path class="cls-20" d="M281.69,29.68c.57,0,1.02-.5,1.02-1.11s-.46-1.12-1.02-1.12-1.02,.5-1.02,1.12,.46,1.11,1.02,1.11Z"/><path class="cls-20" d="M268.33,44.14c.57,0,1.03-.5,1.03-1.12s-.46-1.11-1.03-1.11-1.02,.5-1.02,1.11,.46,1.12,1.02,1.12Z"/><path class="cls-20" d="M281.69,44.14c.57,0,1.02-.5,1.02-1.12s-.46-1.11-1.02-1.11-1.02,.5-1.02,1.11,.46,1.12,1.02,1.12Z"/><path class="cls-20" d="M293.45,29.68c.57,0,1.02-.5,1.02-1.11s-.46-1.12-1.02-1.12-1.03,.5-1.03,1.12,.46,1.11,1.03,1.11Z"/><path class="cls-20" d="M306.82,29.68c.57,0,1.02-.5,1.02-1.11s-.46-1.12-1.02-1.12-1.02,.5-1.02,1.12,.46,1.11,1.02,1.11Z"/><path class="cls-20" d="M320.18,29.68c.57,0,1.02-.5,1.02-1.11s-.46-1.12-1.02-1.12-1.02,.5-1.02,1.12,.46,1.11,1.02,1.11Z"/><path class="cls-20" d="M333.54,29.68c.57,0,1.02-.5,1.02-1.11s-.46-1.12-1.02-1.12-1.02,.5-1.02,1.12,.46,1.11,1.02,1.11Z"/><path class="cls-20" d="M293.45,44.14c.57,0,1.02-.5,1.02-1.12s-.46-1.11-1.02-1.11-1.03,.5-1.03,1.11,.46,1.12,1.03,1.12Z"/><path class="cls-20" d="M306.82,44.14c.57,0,1.02-.5,1.02-1.12s-.46-1.11-1.02-1.11-1.02,.5-1.02,1.11,.46,1.12,1.02,1.12Z"/><path class="cls-20" d="M320.18,44.14c.57,0,1.02-.5,1.02-1.12s-.46-1.11-1.02-1.11-1.02,.5-1.02,1.11,.46,1.12,1.02,1.12Z"/><path class="cls-20" d="M333.54,44.14c.57,0,1.02-.5,1.02-1.12s-.46-1.11-1.02-1.11-1.02,.5-1.02,1.11,.46,1.12,1.02,1.12Z"/><g class="cls-25"><g><rect class="cls-19" x="-12" width="1876" height="787"/><g class="cls-23"><path class="cls-14" d="M359.54-86.28c-.51-.41-1.02-.81-1.54-1.2L271.76-1.2c.39,.52,.8,1.03,1.21,1.55l86.57-86.63Z"/><path class="cls-14" d="M364.46-81.86c-.23-.23-.46-.45-.7-.67L276.7,4.57c.23,.24,.45,.47,.68,.7,.23,.23,.46,.46,.7,.68l87.06-87.11c-.23-.23-.45-.47-.68-.7Z"/><path class="cls-14" d="M382.35-34.07c.07-.96,.11-1.92,.13-2.88l-60.21,60.25c.96-.02,1.92-.07,2.88-.13l57.2-57.24Z"/><path class="cls-14" d="M382.17-44.61c-.08-.81-.18-1.63-.3-2.45L312.16,22.69c.81,.12,1.63,.21,2.45,.3l67.55-67.6Z"/><path class="cls-14" d="M380.04-21.04c.36-1.22,.67-2.46,.95-3.7l-46.52,46.55c1.24-.28,2.47-.6,3.7-.95l41.87-41.9Z"/><path class="cls-14" d="M352.19,14.79c8.98-5.31,16.47-12.81,21.78-21.79l-21.78,21.79Z"/><path class="cls-14" d="M374.35-68.94c-.33-.58-.67-1.15-1.02-1.72L288.57,14.14c.57,.35,1.14,.69,1.72,1.02l84.05-84.1Z"/><path class="cls-14" d="M370.08-75.39c-.39-.52-.79-1.03-1.2-1.54L282.3,9.69c.51,.41,1.02,.82,1.54,1.21l86.24-86.29Z"/><path class="cls-14" d="M380.54-53.7c-.18-.72-.38-1.44-.59-2.15L303.37,20.77c.71,.21,1.43,.41,2.15,.59l75.02-75.06Z"/><path class="cls-14" d="M377.87-61.75c-.27-.64-.54-1.28-.83-1.91L295.56,17.86c.64,.29,1.28,.57,1.92,.83l80.39-80.44Z"/></g><path class="cls-15" d="M19,227.81c57.15,12.09,117.15-16.24,142.89-71.48,29.98-64.34,2.16-140.82-62.14-170.82-26.23-12.24-54.47-14.85-80.76-9.29v1c26.14-5.57,54.25-3,80.34,9.18,63.81,29.77,91.42,105.66,61.66,169.51-25.58,54.89-85.23,83.01-142.01,70.9v1Zm0-8.25c54.06,12.24,111.21-14.33,135.59-66.64,28.1-60.3,2.03-131.98-58.24-160.1-25.13-11.73-52.25-14.03-77.35-8.35v1c24.96-5.69,51.94-3.43,76.94,8.23,59.78,27.89,85.64,98.99,57.77,158.81-24.22,51.96-81.02,78.31-134.71,66.05v1Zm0-8.28c50.96,12.41,105.27-12.38,128.29-61.77C173.51,93.25,149.18,26.36,92.95,.12,68.9-11.1,42.92-13.07,19-7.25v1.01c23.77-5.84,49.62-3.91,73.53,7.25,55.75,26.01,79.87,92.31,53.87,148.09-22.85,49.03-76.82,73.61-127.4,61.17v1.01Zm0-8.32c47.85,12.62,99.34-10.4,120.99-56.86,24.34-52.23,1.76-114.32-50.45-138.67C66.58-3.28,41.72-4.91,19,1.06v1.02c22.58-6,47.3-4.42,70.13,6.23,51.71,24.13,74.09,85.64,49.97,137.38-21.49,46.11-72.63,68.9-120.1,56.26v1.01Zm0-8.36c44.73,12.86,93.4-8.37,113.69-51.9,22.46-48.2,1.62-105.49-46.55-127.97C64.26,4.53,40.51,3.26,19,9.42v1.02c21.37-6.19,44.98-4.96,66.72,5.18,47.68,22.25,68.31,78.96,46.08,126.67-20.12,43.17-68.46,64.18-112.8,51.29v1.02Zm0-8.42c41.58,13.14,87.46-6.28,106.39-46.89,20.58-44.16,1.49-96.66-42.65-117.25-20.8-9.7-43.44-10.59-63.73-4.2v1.02c20.14-6.42,42.65-5.58,63.32,4.06,43.65,20.37,62.54,72.29,42.18,115.96-18.76,40.25-64.31,59.46-105.5,46.27v1.03Z"/><path class="cls-18" d="M49.45,658.11c.63,0,1.14-.51,1.14-1.14s-.51-1.15-1.14-1.15-1.14,.51-1.14,1.15,.51,1.14,1.14,1.14Z"/><path class="cls-18" d="M64.29,658.11c.63,0,1.14-.51,1.14-1.14s-.51-1.15-1.14-1.15-1.14,.51-1.14,1.15,.51,1.14,1.14,1.14Z"/><path class="cls-18" d="M79.12,658.11c.63,0,1.14-.51,1.14-1.14s-.51-1.15-1.14-1.15-1.14,.51-1.14,1.15,.51,1.14,1.14,1.14Z"/><path class="cls-18" d="M93.96,658.11c.63,0,1.14-.51,1.14-1.14s-.51-1.15-1.14-1.15-1.14,.51-1.14,1.15,.51,1.14,1.14,1.14Z"/><path class="cls-18" d="M49.45,672.89c.63,0,1.14-.51,1.14-1.15s-.51-1.14-1.14-1.14-1.14,.51-1.14,1.14,.51,1.15,1.14,1.15Z"/><path class="cls-18" d="M64.29,672.89c.63,0,1.14-.51,1.14-1.15s-.51-1.14-1.14-1.14-1.14,.51-1.14,1.14,.51,1.15,1.14,1.15Z"/><path class="cls-18" d="M79.12,672.89c.63,0,1.14-.51,1.14-1.15s-.51-1.14-1.14-1.14-1.14,.51-1.14,1.14,.51,1.15,1.14,1.15Z"/><path class="cls-18" d="M93.96,672.89c.63,0,1.14-.51,1.14-1.15s-.51-1.14-1.14-1.14-1.14,.51-1.14,1.14,.51,1.15,1.14,1.15Z"/><path class="cls-18" d="M50.59,686.52c0,.23-.07,.45-.19,.64s-.3,.33-.51,.42c-.21,.09-.44,.11-.66,.06-.22-.04-.42-.15-.58-.31-.16-.16-.27-.36-.31-.58-.04-.23-.02-.46,.06-.66,.09-.21,.23-.39,.42-.52,.19-.12,.41-.19,.63-.19,.3,0,.59,.12,.8,.33,.21,.22,.33,.51,.33,.81Z"/><path class="cls-18" d="M65.42,686.52c0,.23-.07,.45-.19,.64-.12,.19-.3,.33-.51,.42s-.44,.11-.66,.06c-.22-.04-.42-.15-.58-.31-.16-.16-.27-.36-.31-.58-.04-.23-.02-.46,.06-.66,.09-.21,.23-.39,.42-.52,.19-.12,.41-.19,.63-.19,.3,0,.59,.12,.8,.33,.21,.22,.33,.51,.33,.81Z"/><path class="cls-18" d="M80.26,686.52c0,.23-.07,.45-.19,.64s-.3,.33-.51,.42c-.21,.09-.44,.11-.66,.06-.22-.04-.42-.15-.58-.31-.16-.16-.27-.36-.31-.58-.04-.23-.02-.46,.06-.66,.09-.21,.23-.39,.42-.52,.19-.12,.41-.19,.63-.19,.3,0,.59,.12,.8,.33,.21,.22,.33,.51,.33,.81Z"/><path class="cls-18" d="M95.09,686.52c0,.23-.07,.45-.19,.64-.12,.19-.3,.33-.51,.42s-.44,.11-.66,.06c-.22-.04-.42-.15-.58-.31-.16-.16-.27-.36-.31-.58-.04-.23-.02-.46,.06-.66,.09-.21,.23-.39,.42-.52,.19-.12,.41-.19,.63-.19,.15,0,.3,.03,.44,.09,.14,.05,.26,.14,.37,.24,.11,.11,.19,.24,.25,.38,.06,.13,.09,.28,.09,.43Z"/><path class="cls-18" d="M50.59,701.3c0,.23-.07,.45-.19,.64-.12,.18-.3,.33-.51,.42-.21,.08-.44,.11-.66,.06-.22-.04-.42-.15-.58-.31-.16-.16-.27-.37-.31-.59-.04-.22-.02-.45,.06-.66,.09-.21,.23-.38,.42-.51,.19-.13,.41-.19,.63-.19,.15,0,.3,.03,.44,.09,.14,.05,.26,.14,.37,.24,.11,.11,.19,.24,.25,.37,.06,.14,.09,.29,.09,.44Z"/><path class="cls-18" d="M65.42,701.3c0,.23-.07,.45-.19,.64-.12,.18-.3,.33-.51,.42-.21,.08-.44,.11-.66,.06-.22-.04-.42-.15-.58-.31-.16-.16-.27-.37-.31-.59-.04-.22-.02-.45,.06-.66,.09-.21,.23-.38,.42-.51,.19-.13,.41-.19,.63-.19,.15,0,.3,.03,.44,.09,.14,.05,.26,.14,.37,.24,.11,.11,.19,.24,.25,.37,.06,.14,.09,.29,.09,.44Z"/><path class="cls-18" d="M80.26,701.3c0,.23-.07,.45-.19,.64-.13,.18-.3,.33-.51,.42-.21,.08-.44,.11-.66,.06-.22-.04-.42-.15-.58-.31-.16-.16-.27-.37-.31-.59s-.02-.45,.06-.66c.09-.21,.23-.38,.42-.51,.19-.13,.41-.19,.63-.19,.3,0,.59,.12,.8,.33,.21,.22,.33,.51,.33,.81Z"/><path class="cls-18" d="M95.09,701.3c0,.23-.07,.45-.19,.64-.12,.18-.3,.33-.51,.42-.21,.08-.44,.11-.66,.06-.22-.04-.42-.15-.58-.31-.16-.16-.27-.37-.31-.59-.04-.22-.02-.45,.06-.66,.09-.21,.23-.38,.42-.51,.19-.13,.41-.19,.63-.19,.15,0,.3,.03,.44,.09,.14,.05,.26,.14,.37,.24,.11,.11,.19,.24,.25,.37,.06,.14,.09,.29,.09,.44Z"/><path class="cls-18" d="M107.16,658.11c.63,0,1.14-.51,1.14-1.14s-.51-1.15-1.14-1.15-1.14,.51-1.14,1.15,.51,1.14,1.14,1.14Z"/><path class="cls-18" d="M121.99,658.11c.63,0,1.14-.51,1.14-1.14s-.51-1.15-1.14-1.15-1.14,.51-1.14,1.15,.51,1.14,1.14,1.14Z"/><path class="cls-18" d="M136.83,658.11c.63,0,1.14-.51,1.14-1.14s-.51-1.15-1.14-1.15-1.14,.51-1.14,1.15,.51,1.14,1.14,1.14Z"/><path class="cls-18" d="M151.66,658.11c.63,0,1.14-.51,1.14-1.14s-.51-1.15-1.14-1.15-1.14,.51-1.14,1.15,.51,1.14,1.14,1.14Z"/><path class="cls-18" d="M107.16,672.89c.63,0,1.14-.51,1.14-1.15s-.51-1.14-1.14-1.14-1.14,.51-1.14,1.14,.51,1.15,1.14,1.15Z"/><path class="cls-18" d="M121.99,672.89c.63,0,1.14-.51,1.14-1.15s-.51-1.14-1.14-1.14-1.14,.51-1.14,1.14,.51,1.15,1.14,1.15Z"/><path class="cls-18" d="M136.83,672.89c.63,0,1.14-.51,1.14-1.15s-.51-1.14-1.14-1.14-1.14,.51-1.14,1.14,.51,1.15,1.14,1.15Z"/><path class="cls-18" d="M151.66,672.89c.63,0,1.14-.51,1.14-1.15s-.51-1.14-1.14-1.14-1.14,.51-1.14,1.14,.51,1.15,1.14,1.15Z"/><path class="cls-18" d="M108.29,686.52c0,.23-.07,.45-.19,.64s-.3,.33-.51,.42-.44,.11-.66,.06c-.22-.04-.42-.15-.58-.31-.16-.16-.27-.36-.31-.58-.04-.23-.02-.46,.07-.66,.09-.21,.23-.39,.42-.52,.19-.12,.41-.19,.63-.19,.3,0,.59,.12,.81,.33,.21,.22,.33,.51,.33,.81Z"/><path class="cls-18" d="M123.13,686.52c0,.23-.07,.45-.19,.64s-.3,.33-.51,.42c-.21,.09-.44,.11-.66,.06-.22-.04-.42-.15-.58-.31-.16-.16-.27-.36-.31-.58-.04-.23-.02-.46,.06-.66,.09-.21,.23-.39,.42-.52,.19-.12,.41-.19,.63-.19,.3,0,.59,.12,.81,.33,.21,.22,.33,.51,.33,.81Z"/><path class="cls-18" d="M137.97,686.52c0,.23-.07,.45-.19,.64s-.3,.33-.51,.42c-.21,.09-.44,.11-.66,.06-.22-.04-.42-.15-.58-.31-.16-.16-.27-.36-.31-.58-.04-.23-.02-.46,.07-.66,.09-.21,.23-.39,.42-.52,.19-.12,.41-.19,.63-.19,.3,0,.59,.12,.8,.33,.21,.22,.33,.51,.33,.81Z"/><path class="cls-18" d="M152.8,686.52c0,.23-.07,.45-.19,.64s-.3,.33-.51,.42c-.21,.09-.44,.11-.66,.06-.22-.04-.42-.15-.58-.31-.16-.16-.27-.36-.31-.58-.04-.23-.02-.46,.06-.66,.09-.21,.23-.39,.42-.52,.19-.12,.41-.19,.63-.19,.15,0,.3,.03,.44,.09,.14,.05,.26,.14,.37,.24,.11,.11,.19,.24,.25,.38,.06,.13,.09,.28,.09,.43Z"/><path class="cls-18" d="M108.29,701.3c0,.23-.07,.45-.19,.64-.12,.18-.3,.33-.51,.42-.21,.08-.44,.11-.66,.06-.22-.04-.42-.15-.58-.31-.16-.16-.27-.37-.31-.59s-.02-.45,.07-.66c.09-.21,.23-.38,.42-.51,.19-.13,.41-.19,.63-.19,.15,0,.3,.03,.44,.09,.14,.05,.26,.14,.37,.24,.11,.11,.19,.24,.25,.37,.06,.14,.09,.29,.09,.44Z"/><path class="cls-18" d="M123.13,701.3c0,.23-.07,.45-.19,.64-.12,.18-.3,.33-.51,.42-.21,.08-.44,.11-.66,.06-.22-.04-.42-.15-.58-.31-.16-.16-.27-.37-.31-.59s-.02-.45,.07-.66c.09-.21,.23-.38,.42-.51,.19-.13,.41-.19,.63-.19,.15,0,.3,.03,.44,.09,.14,.05,.26,.14,.37,.24,.11,.11,.19,.24,.25,.37,.06,.14,.09,.29,.09,.44Z"/><path class="cls-18" d="M137.97,701.3c0,.23-.07,.45-.19,.64-.12,.18-.3,.33-.51,.42-.21,.08-.44,.11-.66,.06-.22-.04-.42-.15-.58-.31-.16-.16-.27-.37-.31-.59-.04-.22-.02-.45,.07-.66,.09-.21,.23-.38,.42-.51,.19-.13,.41-.19,.63-.19,.3,0,.59,.12,.8,.33,.21,.22,.33,.51,.33,.81Z"/><path class="cls-18" d="M152.8,701.3c0,.23-.07,.45-.19,.64-.12,.18-.3,.33-.51,.42-.21,.08-.44,.11-.66,.06-.22-.04-.42-.15-.58-.31-.16-.16-.27-.37-.31-.59-.04-.22-.02-.45,.06-.66,.09-.21,.23-.38,.42-.51s.41-.19,.63-.19c.15,0,.3,.03,.44,.09,.14,.05,.26,.14,.37,.24,.11,.11,.19,.24,.25,.37,.06,.14,.09,.29,.09,.44Z"/><path class="cls-18" d="M164.86,658.11c.63,0,1.14-.51,1.14-1.14s-.51-1.15-1.14-1.15-1.14,.51-1.14,1.15,.51,1.14,1.14,1.14Z"/><path class="cls-18" d="M179.7,658.11c.63,0,1.14-.51,1.14-1.14s-.51-1.15-1.14-1.15-1.14,.51-1.14,1.15,.51,1.14,1.14,1.14Z"/><path class="cls-18" d="M194.54,658.11c.63,0,1.14-.51,1.14-1.14s-.51-1.15-1.14-1.15-1.14,.51-1.14,1.15,.51,1.14,1.14,1.14Z"/><path class="cls-18" d="M209.37,658.11c.63,0,1.14-.51,1.14-1.14s-.51-1.15-1.14-1.15-1.14,.51-1.14,1.15,.51,1.14,1.14,1.14Z"/><path class="cls-18" d="M164.86,672.89c.63,0,1.14-.51,1.14-1.15s-.51-1.14-1.14-1.14-1.14,.51-1.14,1.14,.51,1.15,1.14,1.15Z"/><path class="cls-18" d="M179.7,672.89c.63,0,1.14-.51,1.14-1.15s-.51-1.14-1.14-1.14-1.14,.51-1.14,1.14,.51,1.15,1.14,1.15Z"/><path class="cls-18" d="M194.54,672.89c.63,0,1.14-.51,1.14-1.15s-.51-1.14-1.14-1.14-1.14,.51-1.14,1.14,.51,1.15,1.14,1.15Z"/><path class="cls-18" d="M209.37,672.89c.63,0,1.14-.51,1.14-1.15s-.51-1.14-1.14-1.14-1.14,.51-1.14,1.14,.51,1.15,1.14,1.15Z"/><path class="cls-18" d="M166,686.52c0,.23-.07,.45-.19,.64s-.3,.33-.51,.42c-.21,.09-.44,.11-.66,.06-.22-.04-.42-.15-.58-.31-.16-.16-.27-.36-.31-.58-.04-.23-.02-.46,.07-.66,.09-.21,.23-.39,.42-.52,.19-.12,.41-.19,.63-.19,.3,0,.59,.12,.8,.33,.21,.22,.33,.51,.33,.81Z"/><path class="cls-18" d="M180.84,686.52c0,.23-.07,.45-.19,.64s-.3,.33-.51,.42c-.21,.09-.44,.11-.66,.06-.22-.04-.42-.15-.58-.31-.16-.16-.27-.36-.31-.58-.04-.23-.02-.46,.07-.66,.09-.21,.23-.39,.42-.52,.19-.12,.41-.19,.63-.19,.3,0,.59,.12,.8,.33,.21,.22,.33,.51,.33,.81Z"/><path class="cls-18" d="M195.67,686.52c0,.23-.07,.45-.19,.64s-.3,.33-.51,.42c-.21,.09-.44,.11-.66,.06-.22-.04-.42-.15-.58-.31s-.27-.36-.31-.58c-.04-.23-.02-.46,.07-.66,.09-.21,.23-.39,.42-.52,.19-.12,.41-.19,.63-.19,.3,0,.59,.12,.8,.33,.21,.22,.33,.51,.33,.81Z"/><path class="cls-18" d="M210.51,686.52c0,.23-.07,.45-.19,.64s-.3,.33-.51,.42c-.21,.09-.44,.11-.66,.06-.22-.04-.42-.15-.58-.31-.16-.16-.27-.36-.31-.58-.04-.23-.02-.46,.07-.66,.09-.21,.23-.39,.42-.52,.19-.12,.41-.19,.63-.19,.15,0,.3,.03,.44,.09,.14,.05,.26,.14,.37,.24,.11,.11,.19,.24,.25,.38,.06,.13,.09,.28,.09,.43Z"/><path class="cls-18" d="M166,701.3c0,.23-.07,.45-.19,.64-.12,.18-.3,.33-.51,.42-.21,.08-.44,.11-.66,.06-.22-.04-.42-.15-.58-.31-.16-.16-.27-.37-.31-.59-.04-.22-.02-.45,.07-.66s.23-.38,.42-.51,.41-.19,.63-.19c.15,0,.3,.03,.44,.09,.14,.05,.26,.14,.37,.24,.11,.11,.19,.24,.25,.37,.06,.14,.09,.29,.09,.44Z"/><path class="cls-18" d="M180.84,701.3c0,.23-.07,.45-.19,.64-.12,.18-.3,.33-.51,.42-.21,.08-.44,.11-.66,.06-.22-.04-.42-.15-.58-.31-.16-.16-.27-.37-.31-.59-.04-.22-.02-.45,.07-.66,.09-.21,.23-.38,.42-.51s.41-.19,.63-.19c.15,0,.3,.03,.44,.09,.14,.05,.26,.14,.37,.24,.11,.11,.19,.24,.25,.37,.06,.14,.09,.29,.09,.44Z"/><path class="cls-18" d="M195.67,701.3c0,.23-.07,.45-.19,.64-.12,.18-.3,.33-.51,.42-.21,.08-.44,.11-.66,.06-.22-.04-.42-.15-.58-.31-.16-.16-.27-.37-.31-.59-.04-.22-.02-.45,.07-.66s.23-.38,.42-.51,.41-.19,.63-.19c.3,0,.59,.12,.8,.33,.21,.22,.33,.51,.33,.81Z"/><path class="cls-18" d="M210.51,701.3c0,.23-.07,.45-.19,.64-.12,.18-.3,.33-.51,.42-.21,.08-.44,.11-.66,.06-.22-.04-.42-.15-.58-.31-.16-.16-.27-.37-.31-.59-.04-.22-.02-.45,.07-.66,.09-.21,.23-.38,.42-.51,.19-.13,.41-.19,.63-.19,.15,0,.3,.03,.44,.09,.14,.05,.26,.14,.37,.24,.11,.11,.19,.24,.25,.37,.06,.14,.09,.29,.09,.44Z"/><path class="cls-18" d="M49.45,716.1c.63,0,1.14-.52,1.14-1.15s-.51-1.14-1.14-1.14-1.14,.51-1.14,1.14,.51,1.15,1.14,1.15Z"/><path class="cls-18" d="M64.29,716.1c.63,0,1.14-.52,1.14-1.15s-.51-1.14-1.14-1.14-1.14,.51-1.14,1.14,.51,1.15,1.14,1.15Z"/><path class="cls-18" d="M79.12,716.1c.63,0,1.14-.52,1.14-1.15s-.51-1.14-1.14-1.14-1.14,.51-1.14,1.14,.51,1.15,1.14,1.15Z"/><path class="cls-18" d="M93.96,716.1c.63,0,1.14-.52,1.14-1.15s-.51-1.14-1.14-1.14-1.14,.51-1.14,1.14,.51,1.15,1.14,1.15Z"/><path class="cls-18" d="M49.45,730.87c.63,0,1.14-.51,1.14-1.14s-.51-1.14-1.14-1.14-1.14,.51-1.14,1.14,.51,1.14,1.14,1.14Z"/><path class="cls-18" d="M64.29,730.87c.63,0,1.14-.51,1.14-1.14s-.51-1.14-1.14-1.14-1.14,.51-1.14,1.14,.51,1.14,1.14,1.14Z"/><path class="cls-18" d="M79.12,730.87c.63,0,1.14-.51,1.14-1.14s-.51-1.14-1.14-1.14-1.14,.51-1.14,1.14,.51,1.14,1.14,1.14Z"/><path class="cls-18" d="M93.96,730.87c.63,0,1.14-.51,1.14-1.14s-.51-1.14-1.14-1.14-1.14,.51-1.14,1.14,.51,1.14,1.14,1.14Z"/><path class="cls-18" d="M50.59,744.51c0,.22-.07,.45-.19,.63-.12,.19-.3,.34-.51,.42-.21,.09-.44,.11-.66,.07s-.42-.15-.58-.31c-.16-.16-.27-.37-.31-.59-.04-.22-.02-.45,.06-.66,.09-.21,.23-.39,.42-.51,.19-.13,.41-.19,.63-.19,.3,0,.59,.12,.8,.33,.21,.21,.33,.51,.33,.81Z"/><path class="cls-18" d="M65.42,744.51c0,.22-.07,.45-.19,.63-.12,.19-.3,.34-.51,.42-.21,.09-.44,.11-.66,.07-.22-.04-.42-.15-.58-.31-.16-.16-.27-.37-.31-.59-.04-.22-.02-.45,.06-.66,.09-.21,.23-.39,.42-.51,.19-.13,.41-.19,.63-.19,.3,0,.59,.12,.8,.33,.21,.21,.33,.51,.33,.81Z"/><path class="cls-18" d="M80.26,744.51c0,.22-.07,.45-.19,.63-.12,.19-.3,.34-.51,.42-.21,.09-.44,.11-.66,.07-.22-.04-.42-.15-.58-.31-.16-.16-.27-.37-.31-.59-.04-.22-.02-.45,.06-.66,.09-.21,.23-.39,.42-.51,.19-.13,.41-.19,.63-.19,.3,0,.59,.12,.8,.33,.21,.21,.33,.51,.33,.81Z"/><path class="cls-18" d="M95.09,744.51c0,.22-.07,.45-.19,.63-.12,.19-.3,.34-.51,.42-.21,.09-.44,.11-.66,.07-.22-.04-.42-.15-.58-.31-.16-.16-.27-.37-.31-.59s-.02-.45,.06-.66c.09-.21,.23-.39,.42-.51,.19-.13,.41-.19,.63-.19,.15,0,.3,.02,.44,.08,.14,.06,.26,.14,.37,.25,.11,.11,.19,.23,.25,.37,.06,.14,.09,.29,.09,.44Z"/><path class="cls-18" d="M50.59,759.29c0,.22-.07,.44-.19,.63-.12,.19-.3,.34-.51,.42-.21,.09-.44,.11-.66,.07-.22-.05-.42-.16-.58-.32-.16-.16-.27-.36-.31-.58-.04-.22-.02-.45,.06-.66,.09-.21,.23-.39,.42-.51,.19-.13,.41-.2,.63-.2,.15,0,.3,.03,.44,.09s.26,.14,.37,.25c.11,.1,.19,.23,.25,.37s.09,.29,.09,.44Z"/><path class="cls-18" d="M65.42,759.29c0,.22-.07,.44-.19,.63s-.3,.34-.51,.42c-.21,.09-.44,.11-.66,.07-.22-.05-.42-.16-.58-.32-.16-.16-.27-.36-.31-.58-.04-.22-.02-.45,.06-.66,.09-.21,.23-.39,.42-.51,.19-.13,.41-.2,.63-.2,.15,0,.3,.03,.44,.09,.14,.06,.26,.14,.37,.25,.11,.1,.19,.23,.25,.37,.06,.14,.09,.29,.09,.44Z"/><path class="cls-18" d="M80.26,759.29c0,.22-.07,.44-.19,.63-.13,.19-.3,.34-.51,.42-.21,.09-.44,.11-.66,.07-.22-.05-.42-.16-.58-.32-.16-.16-.27-.36-.31-.58-.04-.22-.02-.45,.06-.66,.09-.21,.23-.39,.42-.51,.19-.13,.41-.2,.63-.2,.3,0,.59,.12,.8,.34,.21,.21,.33,.5,.33,.81Z"/><path class="cls-18" d="M95.09,759.29c0,.22-.07,.44-.19,.63s-.3,.34-.51,.42c-.21,.09-.44,.11-.66,.07-.22-.05-.42-.16-.58-.32-.16-.16-.27-.36-.31-.58-.04-.22-.02-.45,.06-.66,.09-.21,.23-.39,.42-.51,.19-.13,.41-.2,.63-.2,.15,0,.3,.03,.44,.09s.26,.14,.37,.25c.11,.1,.19,.23,.25,.37,.06,.14,.09,.29,.09,.44Z"/><path class="cls-18" d="M107.16,716.1c.63,0,1.14-.52,1.14-1.15s-.51-1.14-1.14-1.14-1.14,.51-1.14,1.14,.51,1.15,1.14,1.15Z"/><path class="cls-18" d="M121.99,716.1c.63,0,1.14-.52,1.14-1.15s-.51-1.14-1.14-1.14-1.14,.51-1.14,1.14,.51,1.15,1.14,1.15Z"/><path class="cls-18" d="M136.83,716.1c.63,0,1.14-.52,1.14-1.15s-.51-1.14-1.14-1.14-1.14,.51-1.14,1.14,.51,1.15,1.14,1.15Z"/><path class="cls-18" d="M151.66,716.1c.63,0,1.14-.52,1.14-1.15s-.51-1.14-1.14-1.14-1.14,.51-1.14,1.14,.51,1.15,1.14,1.15Z"/><path class="cls-18" d="M107.16,730.87c.63,0,1.14-.51,1.14-1.14s-.51-1.14-1.14-1.14-1.14,.51-1.14,1.14,.51,1.14,1.14,1.14Z"/><path class="cls-18" d="M121.99,730.87c.63,0,1.14-.51,1.14-1.14s-.51-1.14-1.14-1.14-1.14,.51-1.14,1.14,.51,1.14,1.14,1.14Z"/><path class="cls-18" d="M136.83,730.87c.63,0,1.14-.51,1.14-1.14s-.51-1.14-1.14-1.14-1.14,.51-1.14,1.14,.51,1.14,1.14,1.14Z"/><path class="cls-18" d="M151.66,730.87c.63,0,1.14-.51,1.14-1.14s-.51-1.14-1.14-1.14-1.14,.51-1.14,1.14,.51,1.14,1.14,1.14Z"/><path class="cls-18" d="M108.29,744.51c0,.22-.07,.45-.19,.63-.12,.19-.3,.34-.51,.42-.21,.09-.44,.11-.66,.07-.22-.04-.42-.15-.58-.31-.16-.16-.27-.37-.31-.59s-.02-.45,.07-.66c.09-.21,.23-.39,.42-.51,.19-.13,.41-.19,.63-.19,.3,0,.59,.12,.81,.33,.21,.21,.33,.51,.33,.81Z"/><path class="cls-18" d="M123.13,744.51c0,.22-.07,.45-.19,.63-.12,.19-.3,.34-.51,.42-.21,.09-.44,.11-.66,.07-.22-.04-.42-.15-.58-.31-.16-.16-.27-.37-.31-.59s-.02-.45,.06-.66c.09-.21,.23-.39,.42-.51,.19-.13,.41-.19,.63-.19,.3,0,.59,.12,.81,.33,.21,.21,.33,.51,.33,.81Z"/><path class="cls-18" d="M137.97,744.51c0,.22-.07,.45-.19,.63-.12,.19-.3,.34-.51,.42-.21,.09-.44,.11-.66,.07-.22-.04-.42-.15-.58-.31-.16-.16-.27-.37-.31-.59-.04-.22-.02-.45,.07-.66,.09-.21,.23-.39,.42-.51,.19-.13,.41-.19,.63-.19,.3,0,.59,.12,.8,.33s.33,.51,.33,.81Z"/><path class="cls-18" d="M152.8,744.51c0,.22-.07,.45-.19,.63-.12,.19-.3,.34-.51,.42-.21,.09-.44,.11-.66,.07-.22-.04-.42-.15-.58-.31-.16-.16-.27-.37-.31-.59-.04-.22-.02-.45,.06-.66,.09-.21,.23-.39,.42-.51,.19-.13,.41-.19,.63-.19,.15,0,.3,.03,.44,.08,.14,.06,.26,.14,.37,.25,.11,.11,.19,.23,.25,.37,.06,.14,.09,.29,.09,.44Z"/><path class="cls-18" d="M108.29,759.29c0,.22-.07,.44-.19,.63s-.3,.34-.51,.42c-.21,.09-.44,.11-.66,.07-.22-.05-.42-.16-.58-.32-.16-.16-.27-.36-.31-.58-.04-.22-.02-.45,.07-.66,.09-.21,.23-.39,.42-.51,.19-.13,.41-.2,.63-.2,.15,0,.3,.03,.44,.09s.26,.14,.37,.25c.11,.1,.19,.23,.25,.37,.06,.14,.09,.29,.09,.44Z"/><path class="cls-18" d="M123.13,759.29c0,.22-.07,.44-.19,.63s-.3,.34-.51,.42c-.21,.09-.44,.11-.66,.07-.22-.05-.42-.16-.58-.32-.16-.16-.27-.36-.31-.58-.04-.22-.02-.45,.07-.66,.09-.21,.23-.39,.42-.51,.19-.13,.41-.2,.63-.2,.15,0,.3,.03,.44,.09,.14,.06,.26,.14,.37,.25,.11,.1,.19,.23,.25,.37,.06,.14,.09,.29,.09,.44Z"/><path class="cls-18" d="M137.97,759.29c0,.22-.07,.44-.19,.63s-.3,.34-.51,.42c-.21,.09-.44,.11-.66,.07-.22-.05-.42-.16-.58-.32-.16-.16-.27-.36-.31-.58-.04-.22-.02-.45,.07-.66,.09-.21,.23-.39,.42-.51,.19-.13,.41-.2,.63-.2,.3,0,.59,.12,.8,.34,.21,.21,.33,.5,.33,.81Z"/><path class="cls-18" d="M152.8,759.29c0,.22-.07,.44-.19,.63s-.3,.34-.51,.42c-.21,.09-.44,.11-.66,.07-.22-.05-.42-.16-.58-.32-.16-.16-.27-.36-.31-.58-.04-.22-.02-.45,.06-.66,.09-.21,.23-.39,.42-.51,.19-.13,.41-.2,.63-.2,.15,0,.3,.03,.44,.09s.26,.14,.37,.25c.11,.1,.19,.23,.25,.37,.06,.14,.09,.29,.09,.44Z"/><path class="cls-18" d="M164.86,716.1c.63,0,1.14-.52,1.14-1.15s-.51-1.14-1.14-1.14-1.14,.51-1.14,1.14,.51,1.15,1.14,1.15Z"/><path class="cls-18" d="M179.7,716.1c.63,0,1.14-.52,1.14-1.15s-.51-1.14-1.14-1.14-1.14,.51-1.14,1.14,.51,1.15,1.14,1.15Z"/><path class="cls-18" d="M194.54,716.1c.63,0,1.14-.52,1.14-1.15s-.51-1.14-1.14-1.14-1.14,.51-1.14,1.14,.51,1.15,1.14,1.15Z"/><path class="cls-18" d="M209.37,716.1c.63,0,1.14-.52,1.14-1.15s-.51-1.14-1.14-1.14-1.14,.51-1.14,1.14,.51,1.15,1.14,1.15Z"/><path class="cls-18" d="M164.86,730.87c.63,0,1.14-.51,1.14-1.14s-.51-1.14-1.14-1.14-1.14,.51-1.14,1.14,.51,1.14,1.14,1.14Z"/><path class="cls-18" d="M179.7,730.87c.63,0,1.14-.51,1.14-1.14s-.51-1.14-1.14-1.14-1.14,.51-1.14,1.14,.51,1.14,1.14,1.14Z"/><path class="cls-18" d="M194.54,730.87c.63,0,1.14-.51,1.14-1.14s-.51-1.14-1.14-1.14-1.14,.51-1.14,1.14,.51,1.14,1.14,1.14Z"/><path class="cls-18" d="M209.37,730.87c.63,0,1.14-.51,1.14-1.14s-.51-1.14-1.14-1.14-1.14,.51-1.14,1.14,.51,1.14,1.14,1.14Z"/><path class="cls-18" d="M166,744.51c0,.22-.07,.45-.19,.63-.12,.19-.3,.34-.51,.42-.21,.09-.44,.11-.66,.07-.22-.04-.42-.15-.58-.31-.16-.16-.27-.37-.31-.59-.04-.22-.02-.45,.07-.66s.23-.39,.42-.51c.19-.13,.41-.19,.63-.19,.3,0,.59,.12,.8,.33,.21,.21,.33,.51,.33,.81Z"/><path class="cls-18" d="M180.84,744.51c0,.22-.07,.45-.19,.63-.12,.19-.3,.34-.51,.42-.21,.09-.44,.11-.66,.07-.22-.04-.42-.15-.58-.31-.16-.16-.27-.37-.31-.59-.04-.22-.02-.45,.07-.66,.09-.21,.23-.39,.42-.51,.19-.13,.41-.19,.63-.19,.3,0,.59,.12,.8,.33,.21,.21,.33,.51,.33,.81Z"/><path class="cls-18" d="M195.67,744.51c0,.22-.07,.45-.19,.63-.12,.19-.3,.34-.51,.42-.21,.09-.44,.11-.66,.07-.22-.04-.42-.15-.58-.31-.16-.16-.27-.37-.31-.59-.04-.22-.02-.45,.07-.66,.09-.21,.23-.39,.42-.51,.19-.13,.41-.19,.63-.19,.3,0,.59,.12,.8,.33,.21,.21,.33,.51,.33,.81Z"/><path class="cls-18" d="M210.51,744.51c0,.22-.07,.45-.19,.63-.12,.19-.3,.34-.51,.42-.21,.09-.44,.11-.66,.07-.22-.04-.42-.15-.58-.31-.16-.16-.27-.37-.31-.59-.04-.22-.02-.45,.07-.66,.09-.21,.23-.39,.42-.51,.19-.13,.41-.19,.63-.19,.15,0,.3,.03,.44,.08,.14,.06,.26,.14,.37,.25,.11,.11,.19,.23,.25,.37,.06,.14,.09,.29,.09,.44Z"/><path class="cls-18" d="M166,759.29c0,.22-.07,.44-.19,.63s-.3,.34-.51,.42c-.21,.09-.44,.11-.66,.07-.22-.05-.42-.16-.58-.32-.16-.16-.27-.36-.31-.58-.04-.22-.02-.45,.07-.66s.23-.39,.42-.51c.19-.13,.41-.2,.63-.2,.15,0,.3,.03,.44,.09,.14,.06,.26,.14,.37,.25,.11,.1,.19,.23,.25,.37,.06,.14,.09,.29,.09,.44Z"/><path class="cls-18" d="M180.84,759.29c0,.22-.07,.44-.19,.63s-.3,.34-.51,.42c-.21,.09-.44,.11-.66,.07-.22-.05-.42-.16-.58-.32-.16-.16-.27-.36-.31-.58-.04-.22-.02-.45,.07-.66,.09-.21,.23-.39,.42-.51,.19-.13,.41-.2,.63-.2,.15,0,.3,.03,.44,.09,.14,.06,.26,.14,.37,.25,.11,.1,.19,.23,.25,.37s.09,.29,.09,.44Z"/><path class="cls-18" d="M195.67,759.29c0,.22-.07,.44-.19,.63s-.3,.34-.51,.42c-.21,.09-.44,.11-.66,.07-.22-.05-.42-.16-.58-.32-.16-.16-.27-.36-.31-.58-.04-.22-.02-.45,.07-.66s.23-.39,.42-.51c.19-.13,.41-.2,.63-.2,.3,0,.59,.12,.8,.34,.21,.21,.33,.5,.33,.81Z"/><path class="cls-18" d="M210.51,759.29c0,.22-.07,.44-.19,.63s-.3,.34-.51,.42c-.21,.09-.44,.11-.66,.07-.22-.05-.42-.16-.58-.32-.16-.16-.27-.36-.31-.58-.04-.22-.02-.45,.07-.66,.09-.21,.23-.39,.42-.51,.19-.13,.41-.2,.63-.2,.15,0,.3,.03,.44,.09,.14,.06,.26,.14,.37,.25,.11,.1,.19,.23,.25,.37,.06,.14,.09,.29,.09,.44Z"/><g class="cls-16"><path class="cls-3" d="M1762.15,103.32c-26.79,57.48-1.94,125.81,55.51,152.62,57.46,26.8,125.75,1.93,152.55-55.55,26.78-57.48,1.93-125.81-55.52-152.62-57.45-26.8-125.75-1.93-152.54,55.55Z"/><path class="cls-3" d="M1768.7,106.37c-25.11,53.87-1.81,117.9,52.02,143.02,53.84,25.11,117.83,1.81,142.93-52.06,25.11-53.86,1.82-117.89-52.02-143.01-53.84-25.11-117.83-1.81-142.93,52.05Z"/><path class="cls-3" d="M1775.25,109.43c-23.42,50.25-1.69,109.97,48.53,133.4,50.21,23.43,109.91,1.69,133.32-48.55,23.42-50.25,1.69-109.97-48.52-133.41-50.22-23.43-109.91-1.69-133.33,48.56Z"/><path class="cls-3" d="M1781.79,112.49c-21.73,46.62-1.56,102.05,45.04,123.79,46.6,21.74,102,1.57,123.73-45.06,21.73-46.62,1.56-102.05-45.04-123.79-46.59-21.74-101.99-1.57-123.73,45.06Z"/><path class="cls-3" d="M1788.34,115.54c-20.04,43.01-1.44,94.13,41.54,114.19,42.99,20.05,94.08,1.45,114.13-41.56,20.04-43.01,1.45-94.13-41.55-114.19-42.98-20.06-94.07-1.45-114.12,41.56Z"/><path class="cls-3" d="M1794.9,118.6c-18.36,39.39-1.33,86.21,38.04,104.58,39.36,18.36,86.16,1.32,104.51-38.07,18.36-39.39,1.33-86.21-38.03-104.58-39.37-18.37-86.17-1.32-104.52,38.07Z"/></g><g class="cls-16"><path class="cls-2" d="M1642.92-77.44c-14.59,31.31-1.05,68.53,30.24,83.13,31.3,14.6,68.5,1.05,83.08-30.26,14.59-31.31,1.06-68.53-30.24-83.13-31.29-14.6-68.49-1.05-83.08,30.26Z"/><path class="cls-2" d="M1646.49-75.77c-13.67,29.33-.99,64.21,28.33,77.89,29.33,13.68,64.18,.99,77.86-28.35,13.67-29.34,.98-64.22-28.34-77.9-29.32-13.68-64.18-.98-77.85,28.36Z"/><path class="cls-2" d="M1650.05-74.11c-12.75,27.37-.91,59.9,26.43,72.66,27.36,12.76,59.87,.92,72.63-26.45,12.75-27.36,.92-59.9-26.43-72.66-27.36-12.76-59.86-.92-72.63,26.45Z"/><path class="cls-2" d="M1653.62-72.45c-11.83,25.4-.85,55.59,24.54,67.43,25.37,11.85,55.54,.86,67.39-24.54,11.83-25.4,.85-55.59-24.54-67.43-25.37-11.84-55.55-.85-67.39,24.54Z"/></g><g class="cls-23"><path class="cls-14" d="M906.99,526.67c-.66-.53-1.32-1.05-1.98-1.55l-110.88,110.94c.51,.67,1.02,1.33,1.55,1.99l111.31-111.38Z"/><path class="cls-14" d="M879.91,512.43c-.92-.28-1.84-.53-2.77-.76l-96.45,96.5c.24,.93,.49,1.86,.76,2.78l98.46-98.52Z"/><path class="cls-14" d="M898.93,520.96c-.73-.46-1.47-.9-2.21-1.32l-108.07,108.13c.43,.74,.86,1.48,1.32,2.21l108.96-109.02Z"/><path class="cls-14" d="M889.94,516.17c-.82-.37-1.64-.73-2.47-1.07l-103.36,103.42c.34,.83,.69,1.65,1.06,2.47l104.76-104.82Z"/><path class="cls-14" d="M868.6,509.96c-1.05-.15-2.1-.27-3.15-.38l-86.86,86.9c.11,1.06,.23,2.11,.38,3.16l89.62-89.68Z"/><path class="cls-14" d="M913.32,532.36c-.3-.3-.6-.58-.9-.87l-111.93,111.99c.29,.3,.58,.6,.87,.9,.3,.3,.6,.58,.9,.87l111.93-111.99c-.29-.3-.58-.61-.87-.9Z"/><path class="cls-14" d="M855.61,509.18c-1.24,.02-2.47,.08-3.7,.17l-73.54,73.58c-.08,1.23-.14,2.47-.17,3.7l77.41-77.45Z"/><path class="cls-14" d="M780.11,570.94l59.81-59.85c-1.59,.36-3.18,.77-4.75,1.23l-53.83,53.86c-.46,1.57-.87,3.16-1.22,4.76Z"/><path class="cls-14" d="M936.31,593.8c.08-1.23,.14-2.46,.17-3.7l-77.41,77.46c1.23-.03,2.47-.09,3.7-.17l73.55-73.59Z"/><path class="cls-14" d="M936.08,580.25c-.11-1.05-.23-2.1-.38-3.15l-89.62,89.67c1.05,.15,2.1,.28,3.15,.39l86.86-86.91Z"/><path class="cls-14" d="M817.13,520.11c-11.54,6.84-21.17,16.48-28.01,28.03l28.01-28.03Z"/><path class="cls-14" d="M933.34,610.55c.46-1.57,.87-3.16,1.22-4.75l-59.81,59.84c1.59-.36,3.18-.77,4.75-1.22l53.83-53.87Z"/><path class="cls-14" d="M897.55,656.62c11.54-6.83,21.17-16.47,28.01-28.02l-28.01,28.02Z"/><path class="cls-14" d="M926.03,548.97c-.43-.75-.86-1.49-1.32-2.22l-108.96,109.03c.73,.45,1.47,.89,2.21,1.32l108.07-108.13Z"/><path class="cls-14" d="M920.55,540.67c-.51-.67-1.02-1.33-1.55-1.98l-111.31,111.37c.66,.53,1.32,1.05,1.98,1.55l110.88-110.94Z"/><path class="cls-14" d="M933.99,568.56c-.24-.93-.49-1.85-.76-2.77l-98.46,98.52c.92,.27,1.84,.52,2.77,.76l96.45-96.51Z"/><path class="cls-14" d="M930.56,558.21c-.34-.82-.7-1.64-1.07-2.46l-104.76,104.82c.82,.37,1.64,.72,2.47,1.06l103.36-103.42Z"/></g><path class="cls-7" d="M1751.37,714.22h13.51"/><path class="cls-7" d="M1758.12,707.46v13.53"/><path class="cls-7" d="M1751.37,684.98h13.51"/><path class="cls-7" d="M1758.12,678.22v13.52"/><path class="cls-7" d="M1751.37,655.74h13.51"/><path class="cls-7" d="M1758.12,648.98v13.52"/><path class="cls-7" d="M1085.34,34.61v13.53"/><path class="cls-7" d="M1092.1,41.38h-13.51"/><path class="cls-4" d="M649.05,286.88v13.53"/><path class="cls-4" d="M655.81,293.64h-13.51"/><path class="cls-5" d="M550.13,550.44v13.52"/><path class="cls-5" d="M556.88,557.2h-13.51"/><path class="cls-5" d="M960.28,393.93v13.52"/><path class="cls-5" d="M967.04,400.69h-13.51"/><path class="cls-5" d="M1232.23,231.01v13.52"/><path class="cls-5" d="M1239,237.77h-13.52"/><path class="cls-6" d="M642.29-8.4V5.13"/><path class="cls-8" d="M1029.22,758.47v13.53"/><path class="cls-8" d="M1035.98,765.24h-13.52"/><path class="cls-8" d="M1058.44,758.47v13.53"/><path class="cls-8" d="M1065.19,765.24h-13.51"/><path class="cls-8" d="M1087.65,758.47v13.53"/><path class="cls-8" d="M1094.41,765.24h-13.52"/><path class="cls-5" d="M241,151.54v13.52"/><path class="cls-5" d="M247.76,158.3h-13.51"/><path class="cls-21" d="M1082.8,529.99c0,.38-.12,.76-.33,1.08-.22,.33-.52,.58-.88,.73-.36,.14-.75,.18-1.14,.11-.38-.08-.72-.27-.99-.54-.28-.27-.46-.62-.54-1-.08-.38-.04-.78,.11-1.13,.14-.36,.4-.67,.72-.88,.32-.22,.7-.33,1.09-.33,.26,0,.51,.05,.75,.15,.23,.09,.45,.24,.63,.42,.19,.18,.33,.4,.42,.64,.1,.23,.16,.49,.16,.75Z"/><path class="cls-21" d="M1096.08,529.99c0,.38-.11,.76-.32,1.08-.22,.33-.53,.58-.88,.73-.37,.14-.76,.18-1.14,.11-.38-.08-.73-.27-1-.54-.28-.27-.46-.62-.53-1-.08-.38-.04-.78,.11-1.14,.14-.35,.4-.66,.72-.87,.32-.22,.7-.33,1.08-.33,.27,0,.52,.05,.76,.15,.23,.09,.45,.24,.63,.42,.18,.18,.32,.4,.42,.64,.1,.23,.15,.49,.15,.75Z"/><path class="cls-21" d="M1109.38,529.99c0,.38-.12,.76-.34,1.08-.21,.33-.51,.58-.88,.73-.35,.14-.75,.18-1.13,.11-.37-.08-.72-.27-1-.54-.27-.27-.45-.62-.53-1s-.04-.78,.1-1.13c.16-.36,.41-.67,.73-.88,.32-.22,.7-.33,1.08-.33,.27,0,.52,.05,.75,.15,.24,.09,.46,.24,.64,.42,.19,.18,.32,.4,.43,.64,.1,.23,.15,.49,.15,.75Z"/><path class="cls-21" d="M1082.8,543.28c0,.39-.12,.77-.33,1.09-.22,.32-.52,.58-.88,.72-.36,.15-.75,.19-1.14,.12-.38-.08-.72-.27-.99-.54-.28-.28-.46-.62-.54-1-.08-.38-.04-.78,.11-1.14,.14-.35,.4-.66,.72-.88,.32-.21,.7-.32,1.09-.32,.51,0,1.01,.2,1.38,.57,.36,.37,.58,.86,.58,1.38Z"/><path class="cls-21" d="M1096.08,543.28c0,.39-.11,.77-.32,1.09-.22,.32-.53,.58-.88,.72-.37,.15-.76,.19-1.14,.12-.38-.08-.72-.27-.99-.54-.29-.28-.47-.62-.54-1-.08-.38-.04-.78,.11-1.14,.14-.35,.4-.66,.72-.88,.32-.21,.7-.32,1.08-.32,.52,0,1.02,.2,1.39,.57,.36,.37,.57,.86,.57,1.38Z"/><path class="cls-21" d="M1109.38,543.28c0,.39-.12,.77-.34,1.09-.21,.32-.51,.58-.88,.72-.35,.15-.75,.19-1.13,.12-.37-.08-.72-.27-1-.54-.27-.27-.45-.62-.53-1s-.04-.78,.1-1.14c.16-.35,.41-.66,.73-.87,.32-.22,.7-.33,1.08-.33,.27,0,.52,.05,.75,.14,.24,.1,.45,.25,.64,.43,.19,.18,.32,.4,.43,.63,.1,.24,.15,.5,.15,.75Z"/><path class="cls-21" d="M1082.8,556.58c0,.39-.12,.77-.33,1.09-.22,.32-.52,.57-.88,.72s-.75,.19-1.14,.11c-.38-.07-.72-.26-.99-.53-.28-.28-.46-.63-.54-1.01-.08-.38-.04-.77,.11-1.13,.14-.36,.4-.66,.72-.88,.32-.21,.7-.33,1.09-.33,.51,0,1.01,.21,1.38,.58,.36,.36,.58,.86,.58,1.38Z"/><path class="cls-21" d="M1096.08,556.58c0,.39-.11,.77-.32,1.09-.22,.32-.53,.57-.88,.72-.37,.15-.76,.19-1.14,.11-.38-.07-.72-.26-.99-.53-.29-.28-.47-.63-.54-1.01-.08-.38-.04-.77,.11-1.13,.14-.36,.4-.66,.72-.88,.32-.21,.7-.33,1.08-.33,.52,0,1.02,.21,1.39,.58,.36,.36,.57,.86,.57,1.38Z"/><path class="cls-21" d="M1109.38,556.58c0,.39-.12,.77-.34,1.09-.21,.32-.51,.57-.88,.72-.35,.15-.75,.19-1.13,.11-.37-.07-.72-.26-1-.53-.27-.28-.45-.63-.53-1-.08-.38-.04-.78,.1-1.14,.16-.35,.41-.66,.73-.88,.32-.21,.7-.33,1.08-.33,.27,0,.52,.05,.75,.15,.24,.1,.45,.25,.64,.43,.19,.18,.32,.39,.43,.63,.1,.24,.15,.49,.15,.75Z"/><path class="cls-21" d="M285.72,168.38c0,.39-.11,.76-.33,1.08-.21,.32-.52,.57-.87,.72-.35,.15-.74,.18-1.12,.11-.38-.08-.72-.26-.99-.53-.27-.27-.46-.62-.53-1-.07-.37-.04-.76,.11-1.12,.15-.35,.4-.66,.71-.87,.32-.21,.69-.33,1.08-.33,.26,0,.51,.05,.74,.15,.24,.1,.45,.24,.63,.42,.18,.18,.32,.4,.42,.63,.1,.24,.15,.49,.15,.74Z"/><path class="cls-21" d="M296.95,170.33c1.07,0,1.94-.87,1.94-1.95s-.87-1.94-1.94-1.94-1.94,.87-1.94,1.94,.87,1.95,1.94,1.95Z"/><path class="cls-21" d="M312.07,168.38c0,.39-.11,.76-.33,1.08-.21,.32-.52,.57-.87,.72-.35,.15-.74,.19-1.12,.11-.38-.07-.72-.26-.99-.53-.27-.27-.46-.62-.53-1-.08-.37-.04-.76,.11-1.12,.15-.35,.4-.66,.71-.87,.32-.22,.7-.33,1.08-.33,.52,0,1.01,.21,1.37,.57,.36,.37,.57,.86,.57,1.37Z"/><path class="cls-21" d="M325.26,168.38c0,.39-.11,.76-.33,1.08-.21,.32-.52,.57-.87,.72-.36,.15-.74,.19-1.12,.11-.38-.07-.72-.26-.99-.53-.27-.27-.46-.62-.53-1-.08-.37-.04-.76,.11-1.12,.15-.35,.39-.66,.71-.87,.32-.22,.7-.33,1.08-.33,.26,0,.51,.05,.74,.15,.24,.1,.45,.24,.63,.42,.18,.18,.32,.4,.42,.63,.1,.24,.15,.49,.15,.74Z"/><path class="cls-21" d="M336.49,170.33c1.07,0,1.94-.87,1.94-1.95s-.87-1.94-1.94-1.94-1.94,.87-1.94,1.94,.87,1.95,1.94,1.95Z"/><path class="cls-21" d="M351.61,168.38c0,.39-.11,.76-.33,1.08-.21,.32-.52,.57-.87,.72-.35,.15-.75,.19-1.12,.11-.38-.07-.72-.26-.99-.53-.27-.27-.46-.62-.53-1-.08-.37-.04-.76,.11-1.12,.15-.35,.4-.66,.71-.87,.32-.22,.69-.33,1.08-.33,.26,0,.51,.05,.74,.15,.24,.1,.45,.24,.63,.42,.18,.18,.32,.4,.42,.63,.1,.24,.15,.49,.15,.74Z"/><path class="cls-21" d="M364.79,168.38c0,.39-.11,.76-.33,1.08-.21,.32-.52,.57-.87,.72-.35,.15-.75,.19-1.12,.11-.38-.07-.72-.26-.99-.53-.27-.27-.46-.62-.53-1-.07-.37-.04-.76,.11-1.12,.15-.35,.4-.66,.72-.87,.32-.22,.69-.33,1.08-.33,.25,0,.51,.05,.74,.15,.24,.1,.45,.24,.63,.42,.18,.18,.32,.4,.42,.63,.1,.24,.15,.49,.15,.74Z"/><path class="cls-21" d="M285.72,181.58c0,.38-.11,.75-.33,1.07-.21,.32-.52,.57-.87,.72s-.74,.19-1.12,.11-.72-.26-.99-.53-.46-.62-.53-1c-.07-.37-.04-.76,.11-1.12,.15-.35,.4-.66,.71-.87,.32-.21,.69-.33,1.08-.33,.52,0,1.01,.21,1.37,.57,.36,.37,.57,.86,.57,1.38Z"/><path class="cls-21" d="M298.9,181.58c0,.38-.11,.76-.33,1.08-.21,.32-.52,.56-.87,.71-.36,.15-.74,.19-1.12,.11-.38-.07-.72-.26-.99-.53s-.46-.62-.53-1c-.08-.37-.04-.76,.11-1.12,.15-.35,.4-.66,.71-.87,.32-.21,.7-.33,1.08-.33,.52,0,1.01,.21,1.37,.57,.36,.37,.57,.86,.57,1.38Z"/><path class="cls-21" d="M312.07,181.58c0,.38-.11,.76-.33,1.08-.21,.32-.52,.56-.87,.71-.35,.15-.74,.19-1.12,.11-.38-.07-.72-.26-.99-.53-.27-.27-.46-.62-.53-1-.08-.37-.04-.76,.11-1.12,.15-.35,.4-.66,.71-.87s.7-.33,1.08-.33c.51,0,1.01,.21,1.37,.57,.36,.37,.57,.86,.57,1.38Z"/><path class="cls-21" d="M325.26,181.58c0,.38-.11,.76-.33,1.08-.21,.32-.52,.56-.87,.71-.36,.15-.74,.19-1.12,.11-.38-.07-.72-.26-.99-.53-.27-.27-.46-.62-.53-1-.08-.37-.04-.76,.11-1.12,.15-.35,.39-.66,.71-.87s.7-.33,1.08-.33c.51,0,1.01,.21,1.37,.57,.36,.37,.57,.86,.57,1.38Z"/><path class="cls-21" d="M338.43,181.58c0,.38-.11,.76-.33,1.08-.21,.32-.52,.56-.87,.71-.35,.15-.74,.19-1.12,.11-.38-.07-.72-.26-.99-.53-.27-.27-.46-.62-.53-1-.07-.37-.04-.76,.11-1.12,.15-.35,.39-.66,.71-.87,.32-.21,.69-.33,1.08-.33,.51,0,1.01,.21,1.37,.57,.37,.37,.57,.86,.57,1.38Z"/><path class="cls-21" d="M351.61,181.58c0,.38-.11,.76-.33,1.08-.21,.32-.52,.56-.87,.71-.35,.15-.75,.19-1.12,.11-.38-.07-.72-.26-.99-.53-.27-.27-.46-.62-.53-1-.08-.37-.04-.76,.11-1.12,.15-.35,.4-.66,.71-.87s.69-.33,1.08-.33c.52,0,1.01,.21,1.37,.57,.36,.37,.57,.86,.57,1.38Z"/><path class="cls-21" d="M364.79,181.58c0,.38-.11,.76-.33,1.08-.21,.32-.52,.56-.87,.71-.35,.15-.75,.19-1.12,.11-.38-.07-.72-.26-.99-.53-.27-.27-.46-.62-.53-1-.07-.37-.04-.76,.11-1.12,.15-.35,.4-.66,.72-.87,.32-.21,.69-.33,1.08-.33,.51,0,1.01,.21,1.37,.57,.36,.37,.57,.86,.57,1.38Z"/><path class="cls-21" d="M285.72,194.77c0,.38-.11,.76-.33,1.07-.21,.32-.52,.57-.87,.72-.35,.14-.74,.18-1.12,.11-.38-.08-.72-.26-.99-.54-.27-.27-.46-.61-.53-.99-.07-.38-.04-.77,.11-1.12,.15-.36,.4-.66,.71-.87,.32-.22,.69-.33,1.08-.33,.26,0,.51,.05,.74,.15,.24,.1,.45,.24,.63,.42,.18,.18,.32,.4,.42,.63,.1,.24,.15,.49,.15,.75Z"/><path class="cls-21" d="M298.9,194.77c0,.38-.11,.76-.33,1.08-.21,.31-.52,.56-.87,.71-.36,.15-.74,.18-1.12,.11-.38-.08-.72-.26-.99-.53-.27-.28-.45-.62-.53-1-.08-.38-.04-.77,.11-1.12,.15-.36,.4-.66,.71-.87,.32-.22,.7-.33,1.08-.33,.26,0,.51,.05,.74,.15,.24,.1,.45,.24,.63,.42,.18,.18,.32,.4,.42,.63,.1,.24,.15,.49,.15,.75Z"/><path class="cls-21" d="M312.07,194.77c0,.38-.12,.76-.33,1.08-.21,.32-.52,.56-.87,.71-.36,.15-.74,.18-1.12,.11-.38-.08-.72-.26-.99-.54-.27-.27-.45-.61-.53-.99-.07-.38-.04-.77,.11-1.12,.15-.36,.4-.66,.72-.87,.32-.22,.7-.33,1.08-.33,.26,0,.51,.05,.74,.15,.24,.1,.45,.24,.63,.42,.18,.18,.32,.4,.42,.63,.1,.24,.15,.49,.15,.75Z"/><path class="cls-21" d="M325.26,194.77c0,.38-.11,.76-.33,1.08-.21,.31-.52,.56-.87,.71-.35,.15-.74,.18-1.12,.11-.38-.08-.72-.26-.99-.53-.27-.28-.46-.62-.53-1-.07-.38-.04-.77,.11-1.12,.15-.36,.39-.66,.71-.87,.32-.22,.69-.33,1.08-.33,.26,0,.51,.05,.74,.15,.24,.1,.45,.24,.63,.42,.18,.18,.32,.4,.42,.63,.1,.24,.15,.49,.15,.75Z"/><path class="cls-21" d="M338.43,194.77c0,.38-.11,.76-.33,1.08-.21,.31-.52,.56-.87,.71-.35,.15-.74,.18-1.12,.11-.38-.08-.72-.26-.99-.53-.27-.28-.46-.62-.53-1-.07-.38-.04-.77,.11-1.12,.15-.36,.4-.66,.71-.87,.32-.22,.69-.33,1.08-.33,.26,0,.51,.05,.74,.15,.23,.1,.45,.24,.63,.42,.18,.18,.32,.4,.42,.63,.1,.24,.15,.49,.15,.75Z"/><path class="cls-21" d="M351.61,194.77c0,.38-.11,.76-.33,1.08-.21,.32-.52,.57-.87,.71-.35,.15-.75,.19-1.12,.11-.38-.07-.72-.26-.99-.53-.27-.27-.46-.62-.53-.99-.08-.38-.04-.77,.11-1.13,.15-.35,.4-.65,.71-.87,.32-.21,.69-.33,1.08-.33,.52,0,1.01,.21,1.37,.57,.36,.37,.57,.86,.57,1.38Z"/><path class="cls-21" d="M364.79,194.77c0,.38-.11,.76-.33,1.08-.21,.32-.52,.57-.87,.71-.35,.15-.75,.19-1.12,.11-.38-.07-.72-.26-.99-.53-.27-.27-.46-.62-.53-.99-.07-.38-.04-.77,.11-1.13,.15-.35,.4-.65,.72-.87,.32-.21,.69-.33,1.08-.33,.51,0,1.01,.21,1.37,.57,.36,.37,.57,.86,.57,1.38Z"/><path class="cls-21" d="M285.72,207.96c0,.38-.11,.76-.33,1.08-.21,.32-.52,.56-.87,.71s-.74,.19-1.12,.11c-.38-.07-.72-.26-.99-.53s-.46-.62-.53-.99c-.07-.38-.04-.77,.11-1.13,.15-.35,.4-.65,.71-.87,.32-.21,.69-.32,1.08-.33,.26,0,.51,.06,.74,.15,.24,.1,.45,.24,.63,.42,.18,.18,.32,.4,.42,.63,.1,.24,.15,.49,.15,.75Z"/><path class="cls-21" d="M298.9,207.96c0,.38-.11,.76-.33,1.08s-.52,.57-.87,.71c-.36,.15-.74,.19-1.12,.11-.38-.07-.72-.26-.99-.53s-.46-.62-.53-.99c-.08-.38-.04-.77,.11-1.13,.15-.35,.4-.65,.71-.87,.32-.21,.7-.33,1.08-.33,.52,0,1.01,.21,1.37,.57,.36,.37,.57,.86,.57,1.38Z"/><path class="cls-21" d="M312.07,207.96c0,.38-.11,.76-.33,1.08-.21,.32-.52,.57-.87,.71-.35,.15-.74,.19-1.12,.11-.38-.07-.72-.26-.99-.53-.27-.27-.46-.62-.53-.99-.08-.38-.04-.77,.11-1.13,.15-.35,.4-.65,.71-.87,.32-.21,.7-.33,1.08-.33,.52,0,1.01,.21,1.37,.57,.36,.37,.57,.86,.57,1.38Z"/><path class="cls-21" d="M325.26,207.96c0,.38-.11,.76-.33,1.08-.21,.32-.52,.57-.87,.71-.36,.15-.74,.19-1.12,.11-.38-.07-.72-.26-.99-.53-.27-.27-.46-.62-.53-.99-.08-.38-.04-.77,.11-1.13,.15-.35,.39-.65,.71-.87,.32-.21,.7-.33,1.08-.33,.26,0,.51,.06,.74,.15,.24,.1,.45,.24,.63,.42,.18,.18,.32,.4,.42,.63,.1,.24,.15,.49,.15,.75Z"/><path class="cls-21" d="M338.43,207.96c0,.38-.11,.76-.33,1.08-.21,.32-.52,.57-.87,.71-.35,.15-.74,.19-1.12,.11-.38-.07-.72-.26-.99-.53-.27-.27-.46-.62-.53-.99-.07-.38-.04-.77,.11-1.13,.15-.35,.39-.65,.71-.87,.32-.21,.69-.33,1.08-.33,.26,0,.51,.06,.74,.15,.24,.1,.45,.24,.63,.42,.18,.18,.32,.4,.42,.63,.1,.24,.15,.49,.15,.75Z"/><path class="cls-21" d="M351.61,207.96c0,.38-.11,.76-.33,1.08-.21,.32-.52,.57-.87,.71-.35,.15-.75,.19-1.12,.11-.38-.07-.72-.26-.99-.53-.27-.27-.46-.62-.53-.99-.08-.38-.04-.77,.11-1.13,.15-.35,.4-.65,.71-.87,.32-.21,.69-.33,1.08-.33,.26,0,.51,.06,.74,.15,.24,.1,.45,.24,.63,.42,.18,.18,.32,.4,.42,.63,.1,.24,.15,.49,.15,.75Z"/><path class="cls-21" d="M364.79,207.96c0,.38-.11,.76-.33,1.08-.21,.32-.52,.57-.87,.71-.35,.15-.75,.19-1.12,.11-.38-.07-.72-.26-.99-.53-.27-.27-.46-.62-.53-.99-.07-.38-.04-.77,.11-1.13,.15-.35,.4-.65,.72-.87,.32-.21,.69-.33,1.08-.33,.25,0,.51,.06,.74,.15,.24,.1,.45,.24,.63,.42,.18,.18,.32,.4,.42,.63,.1,.24,.15,.49,.15,.75Z"/><path class="cls-21" d="M285.72,221.15c0,.38-.11,.76-.33,1.08-.21,.32-.52,.57-.87,.71-.36,.15-.75,.19-1.12,.11-.38-.07-.72-.26-.99-.53-.27-.27-.46-.61-.53-.99-.07-.38-.04-.77,.11-1.12,.15-.36,.39-.66,.71-.88,.32-.21,.69-.32,1.08-.32,.26,0,.51,.05,.74,.14,.23,.1,.45,.25,.63,.43,.18,.18,.32,.39,.42,.63,.1,.23,.15,.48,.15,.74Z"/><path class="cls-21" d="M296.95,223.09c1.07,0,1.94-.87,1.94-1.94s-.87-1.94-1.94-1.94-1.94,.87-1.94,1.94,.87,1.94,1.94,1.94Z"/><path class="cls-21" d="M312.07,221.15c0,.38-.11,.76-.33,1.08-.21,.32-.52,.57-.87,.71-.35,.15-.74,.19-1.12,.12-.38-.08-.72-.26-.99-.54-.27-.27-.46-.61-.53-.99-.08-.38-.04-.77,.11-1.12,.15-.36,.4-.66,.71-.88,.32-.21,.7-.32,1.08-.32,.51,0,1.01,.2,1.37,.57,.36,.36,.57,.85,.57,1.37Z"/><path class="cls-21" d="M325.26,221.15c0,.38-.11,.76-.33,1.08-.21,.32-.52,.57-.87,.71-.36,.15-.74,.19-1.12,.12-.38-.08-.72-.26-.99-.54-.27-.27-.46-.61-.53-.99-.08-.38-.04-.77,.11-1.12,.15-.36,.39-.66,.71-.88,.32-.21,.7-.32,1.08-.32,.51,0,1.01,.2,1.37,.57,.36,.36,.57,.85,.57,1.37Z"/><path class="cls-21" d="M336.49,223.09c1.07,0,1.94-.87,1.94-1.94s-.87-1.94-1.94-1.94-1.94,.87-1.94,1.94,.87,1.94,1.94,1.94Z"/><path class="cls-21" d="M351.61,221.15c0,.38-.11,.76-.33,1.08-.21,.32-.52,.57-.87,.71-.35,.15-.74,.19-1.12,.12-.38-.08-.72-.26-.99-.54-.27-.27-.46-.61-.53-.99-.08-.38-.04-.77,.11-1.12,.15-.36,.4-.66,.71-.88,.32-.21,.69-.32,1.08-.32,.26,0,.51,.05,.74,.14,.24,.1,.45,.25,.63,.43,.18,.18,.32,.39,.42,.63,.1,.23,.15,.48,.15,.74Z"/><path class="cls-21" d="M364.79,221.15c0,.38-.11,.76-.33,1.08-.21,.32-.51,.57-.87,.71-.36,.15-.75,.19-1.12,.12-.38-.08-.72-.26-.99-.54-.27-.27-.46-.61-.53-.99-.07-.38-.04-.77,.11-1.12,.15-.36,.4-.66,.72-.88,.32-.21,.69-.32,1.08-.32,.25,0,.51,.05,.74,.14,.24,.1,.45,.25,.63,.43,.18,.18,.32,.39,.42,.63,.1,.23,.15,.48,.15,.74Z"/><path class="cls-9" d="M1344.82,634.77c0,.96-.29,1.9-.82,2.7-.53,.8-1.3,1.42-2.18,1.79-.89,.37-1.86,.46-2.81,.27-.94-.18-1.81-.65-2.48-1.33-.69-.68-1.15-1.54-1.33-2.49-.19-.94-.09-1.92,.27-2.8,.37-.89,1-1.65,1.79-2.18,.8-.54,1.74-.82,2.7-.82,.64,0,1.27,.12,1.86,.37,.59,.24,1.13,.6,1.58,1.05,.45,.45,.81,.99,1.05,1.58,.25,.59,.37,1.22,.37,1.86Z"/><path class="cls-9" d="M1377.8,634.77c0,.96-.28,1.9-.82,2.7-.53,.8-1.29,1.42-2.18,1.79-.89,.37-1.87,.47-2.8,.28-.95-.19-1.81-.65-2.5-1.33-.67-.68-1.14-1.55-1.32-2.49-.19-.95-.09-1.92,.27-2.81,.37-.89,1-1.65,1.79-2.18,.8-.54,1.74-.82,2.7-.82,1.29,0,2.52,.51,3.43,1.42,.92,.91,1.43,2.15,1.43,3.44Z"/><path class="cls-9" d="M1410.78,634.77c0,.96-.29,1.9-.81,2.7-.54,.8-1.3,1.42-2.19,1.79-.89,.37-1.87,.47-2.81,.28-.94-.19-1.8-.65-2.49-1.33-.67-.68-1.14-1.55-1.33-2.49-.18-.95-.09-1.92,.29-2.81,.36-.89,.98-1.65,1.78-2.18,.81-.54,1.74-.82,2.7-.82,.64,0,1.27,.12,1.86,.37,.59,.24,1.13,.6,1.58,1.05,.45,.45,.81,.99,1.06,1.58,.23,.59,.36,1.22,.36,1.86Z"/><path class="cls-9" d="M1344.81,667.78c0,.96-.28,1.9-.81,2.7s-1.3,1.42-2.19,1.79c-.87,.36-1.85,.46-2.8,.27-.94-.19-1.81-.65-2.48-1.33-.69-.68-1.14-1.54-1.33-2.49-.19-.94-.1-1.92,.27-2.81,.37-.88,.99-1.64,1.79-2.18,.8-.53,1.74-.82,2.7-.82,.64,0,1.27,.13,1.86,.37,.59,.25,1.13,.61,1.58,1.06,.45,.45,.81,.99,1.05,1.58,.25,.59,.36,1.22,.36,1.86Z"/><path class="cls-9" d="M1377.8,667.78c0,.96-.28,1.9-.82,2.7-.53,.8-1.29,1.42-2.18,1.79-.89,.37-1.87,.46-2.8,.28-.95-.19-1.81-.65-2.5-1.33-.67-.68-1.14-1.55-1.32-2.49-.19-.95-.09-1.92,.27-2.81,.37-.89,1-1.65,1.79-2.19,.8-.53,1.74-.82,2.7-.82,1.29,0,2.52,.52,3.43,1.43,.92,.91,1.43,2.15,1.43,3.44Z"/><path class="cls-9" d="M1410.78,667.78c0,.96-.29,1.9-.81,2.7-.54,.8-1.3,1.42-2.19,1.79s-1.87,.46-2.81,.28c-.94-.19-1.8-.65-2.49-1.33-.67-.68-1.14-1.55-1.33-2.49-.18-.95-.09-1.92,.29-2.81,.36-.89,.98-1.65,1.78-2.19,.81-.53,1.74-.82,2.7-.82,.64,0,1.27,.13,1.86,.37,.59,.25,1.13,.61,1.58,1.06,.45,.45,.81,.99,1.06,1.58,.23,.59,.36,1.22,.36,1.86Z"/><path class="cls-10" d="M1512.52,89.86c0,.78-.23,1.56-.67,2.21-.44,.66-1.06,1.17-1.79,1.47-.73,.3-1.54,.38-2.31,.23-.77-.16-1.47-.54-2.04-1.1-.56-.55-.93-1.26-1.08-2.04-.16-.77-.08-1.57,.22-2.3,.3-.73,.81-1.35,1.47-1.79,.65-.44,1.42-.67,2.21-.67,.52,0,1.04,.1,1.53,.3,.48,.2,.93,.49,1.29,.86,.37,.37,.66,.81,.87,1.3,.19,.48,.3,1,.3,1.53Z"/><path class="cls-10" d="M1539.6,89.86c0,.78-.24,1.56-.68,2.21-.44,.66-1.06,1.17-1.79,1.47s-1.53,.38-2.3,.23c-.77-.16-1.49-.53-2.04-1.09-.56-.56-.94-1.27-1.1-2.05-.15-.77-.07-1.57,.24-2.3,.29-.73,.81-1.35,1.46-1.79,.66-.44,1.43-.67,2.22-.67,1.05,0,2.07,.42,2.81,1.16,.76,.75,1.18,1.77,1.18,2.83Z"/><path class="cls-10" d="M1566.66,89.86c0,.78-.23,1.56-.66,2.21-.44,.66-1.07,1.17-1.8,1.47-.72,.3-1.53,.38-2.3,.23-.78-.16-1.48-.53-2.04-1.09-.56-.56-.94-1.27-1.09-2.05-.16-.77-.08-1.57,.22-2.3s.81-1.35,1.47-1.79c.66-.44,1.43-.67,2.21-.67,1.06,0,2.08,.42,2.83,1.16,.74,.75,1.16,1.77,1.16,2.83Z"/><path class="cls-10" d="M1593.75,89.86c0,.78-.24,1.56-.68,2.21-.44,.66-1.06,1.17-1.79,1.47s-1.53,.38-2.3,.23c-.77-.16-1.49-.53-2.04-1.09-.56-.56-.94-1.27-1.1-2.05-.15-.77-.07-1.57,.24-2.3,.29-.73,.81-1.35,1.46-1.79,.66-.44,1.43-.67,2.22-.67,.52,0,1.03,.1,1.52,.3,.48,.2,.92,.49,1.29,.86,.37,.38,.67,.81,.87,1.3,.2,.48,.31,1,.31,1.53Z"/><path class="cls-10" d="M1620.82,89.86c0,.78-.23,1.56-.67,2.21-.44,.66-1.07,1.17-1.79,1.47-.73,.3-1.54,.38-2.31,.23-.77-.16-1.48-.54-2.04-1.09-.56-.56-.94-1.27-1.09-2.05-.16-.77-.08-1.57,.22-2.3,.3-.73,.82-1.36,1.48-1.79,.65-.44,1.42-.67,2.21-.67,.52,0,1.04,.1,1.53,.3,.48,.2,.92,.49,1.29,.86,.37,.37,.66,.81,.87,1.3,.19,.48,.3,1,.3,1.53Z"/><path class="cls-10" d="M1512.52,116.94c0,.79-.23,1.56-.67,2.22-.44,.66-1.06,1.17-1.79,1.47-.72,.3-1.53,.38-2.31,.23-.77-.16-1.47-.54-2.03-1.1-.57-.55-.94-1.26-1.09-2.04-.16-.77-.08-1.57,.22-2.3,.3-.73,.81-1.35,1.47-1.79,.65-.44,1.42-.67,2.21-.67,.52,0,1.04,.1,1.53,.3,.48,.2,.92,.49,1.29,.86s.66,.81,.87,1.3c.19,.48,.3,1,.3,1.52Z"/><path class="cls-10" d="M1539.6,116.94c0,.79-.24,1.56-.68,2.22-.44,.66-1.05,1.17-1.79,1.47-.73,.3-1.53,.38-2.3,.23-.77-.15-1.49-.53-2.04-1.09-.56-.56-.94-1.27-1.1-2.05-.15-.77-.07-1.57,.24-2.3,.29-.73,.81-1.35,1.46-1.79,.66-.44,1.43-.67,2.22-.67,1.05,0,2.07,.41,2.81,1.16,.76,.75,1.18,1.77,1.18,2.82Z"/><path class="cls-10" d="M1566.66,116.94c0,.79-.22,1.56-.66,2.22-.44,.66-1.07,1.17-1.79,1.47-.73,.3-1.54,.38-2.31,.23s-1.48-.53-2.04-1.09c-.56-.56-.94-1.27-1.09-2.05-.16-.77-.08-1.57,.22-2.3s.81-1.35,1.47-1.79c.66-.44,1.43-.67,2.21-.67,1.06,0,2.08,.41,2.83,1.16,.74,.75,1.16,1.77,1.16,2.82Z"/><path class="cls-10" d="M1593.75,116.94c0,.79-.24,1.56-.68,2.22-.44,.66-1.05,1.17-1.79,1.47-.73,.3-1.53,.38-2.3,.23s-1.49-.53-2.04-1.09c-.56-.56-.94-1.27-1.1-2.05-.15-.77-.07-1.57,.24-2.3,.29-.73,.81-1.35,1.46-1.79,.66-.44,1.43-.67,2.22-.67,1.05,0,2.07,.41,2.81,1.16,.76,.75,1.18,1.77,1.18,2.82Z"/><path class="cls-10" d="M1620.82,116.94c0,.79-.23,1.56-.67,2.22-.44,.66-1.07,1.17-1.79,1.47-.73,.3-1.54,.38-2.31,.23-.77-.16-1.48-.53-2.04-1.09-.56-.56-.94-1.27-1.09-2.05-.16-.77-.08-1.57,.22-2.3,.3-.73,.82-1.36,1.48-1.79,.65-.44,1.42-.68,2.21-.67,1.06,0,2.08,.41,2.82,1.16,.75,.75,1.17,1.77,1.17,2.82Z"/><path class="cls-10" d="M1512.52,144.03c0,.79-.23,1.56-.67,2.22-.44,.65-1.06,1.16-1.79,1.47-.73,.3-1.54,.38-2.31,.22-.77-.15-1.47-.53-2.04-1.09-.56-.56-.93-1.27-1.08-2.04-.16-.77-.08-1.58,.22-2.3,.3-.73,.81-1.36,1.47-1.79,.65-.44,1.42-.68,2.21-.68,.52,0,1.04,.11,1.53,.31,.48,.2,.93,.49,1.29,.86,.37,.37,.66,.81,.87,1.3,.19,.48,.3,1,.3,1.52Z"/><path class="cls-10" d="M1539.6,144.03c0,.79-.24,1.56-.68,2.22-.44,.66-1.06,1.17-1.79,1.47-.73,.3-1.53,.38-2.3,.23-.77-.16-1.49-.54-2.04-1.1-.56-.55-.94-1.26-1.1-2.04-.15-.77-.07-1.57,.24-2.3,.29-.73,.81-1.36,1.46-1.79,.66-.44,1.43-.68,2.22-.68,1.05,0,2.07,.42,2.81,1.17,.76,.75,1.18,1.76,1.18,2.82Z"/><path class="cls-10" d="M1566.66,144.03c0,.79-.23,1.56-.66,2.22-.44,.66-1.07,1.17-1.8,1.47-.72,.3-1.53,.38-2.3,.23-.78-.16-1.48-.54-2.04-1.1-.56-.55-.94-1.26-1.09-2.04-.16-.77-.08-1.57,.22-2.3,.3-.73,.81-1.36,1.47-1.79,.66-.44,1.43-.68,2.21-.68,1.06,0,2.08,.42,2.83,1.17,.74,.75,1.16,1.76,1.16,2.82Z"/><path class="cls-10" d="M1593.75,144.03c0,.79-.24,1.56-.68,2.22-.44,.66-1.06,1.17-1.79,1.47-.73,.3-1.53,.38-2.3,.23-.77-.16-1.49-.54-2.04-1.1-.56-.55-.94-1.26-1.1-2.04-.15-.77-.07-1.57,.24-2.3,.29-.73,.81-1.36,1.46-1.79,.66-.44,1.43-.68,2.22-.68,.52,0,1.03,.11,1.52,.31,.48,.2,.92,.49,1.29,.86s.67,.81,.87,1.3c.2,.48,.31,1,.31,1.52Z"/><path class="cls-10" d="M1620.82,144.03c0,.79-.23,1.56-.67,2.22-.44,.66-1.07,1.17-1.79,1.47-.73,.3-1.54,.38-2.31,.23-.77-.16-1.48-.54-2.04-1.1-.56-.55-.94-1.27-1.09-2.04-.16-.77-.08-1.58,.22-2.31,.3-.72,.82-1.35,1.48-1.79,.65-.43,1.42-.67,2.21-.67,.52,0,1.04,.11,1.53,.31,.48,.2,.92,.49,1.29,.86s.66,.81,.87,1.3c.19,.48,.3,1,.3,1.52Z"/><path class="cls-10" d="M1512.52,171.12c0,.79-.23,1.56-.67,2.22-.44,.65-1.06,1.17-1.79,1.47-.73,.3-1.54,.38-2.31,.22-.77-.15-1.47-.53-2.04-1.09-.56-.56-.93-1.27-1.08-2.04-.16-.77-.08-1.58,.22-2.3,.3-.73,.81-1.36,1.47-1.79,.65-.44,1.42-.68,2.21-.68,1.06,0,2.08,.42,2.82,1.17,.75,.75,1.17,1.76,1.17,2.82Z"/><path class="cls-10" d="M1539.6,171.12c0,.79-.24,1.56-.68,2.22-.44,.66-1.06,1.17-1.79,1.47-.73,.3-1.53,.38-2.3,.23-.77-.16-1.49-.54-2.04-1.1-.56-.55-.94-1.26-1.1-2.04-.15-.77-.07-1.58,.24-2.3,.29-.73,.81-1.36,1.46-1.79,.66-.44,1.43-.68,2.22-.68,1.05,0,2.07,.42,2.81,1.17,.76,.75,1.18,1.76,1.18,2.82Z"/><path class="cls-10" d="M1566.66,171.12c0,.79-.23,1.56-.66,2.22-.44,.66-1.07,1.17-1.8,1.47-.72,.3-1.53,.38-2.3,.23-.78-.16-1.48-.54-2.04-1.1-.56-.55-.94-1.26-1.09-2.04-.16-.77-.08-1.58,.22-2.3,.3-.73,.81-1.36,1.47-1.79,.66-.44,1.43-.68,2.21-.68,1.06,0,2.08,.42,2.83,1.17,.74,.75,1.16,1.76,1.16,2.82Z"/><path class="cls-10" d="M1593.75,171.12c0,.79-.24,1.56-.68,2.22-.44,.66-1.06,1.17-1.79,1.47-.73,.3-1.53,.38-2.3,.23-.77-.16-1.49-.54-2.04-1.1-.56-.55-.94-1.26-1.1-2.04-.15-.77-.07-1.58,.24-2.3,.29-.73,.81-1.36,1.46-1.79,.66-.44,1.43-.68,2.22-.68,1.05,0,2.07,.42,2.81,1.17,.76,.75,1.18,1.76,1.18,2.82Z"/><path class="cls-10" d="M1620.82,171.12c0,.79-.23,1.56-.67,2.22-.44,.66-1.07,1.17-1.79,1.47-.73,.3-1.54,.38-2.31,.23-.77-.16-1.48-.54-2.04-1.1-.56-.55-.94-1.27-1.09-2.04-.16-.77-.08-1.58,.22-2.31,.3-.72,.82-1.35,1.48-1.79,.65-.43,1.42-.67,2.21-.67,1.06,0,2.08,.42,2.82,1.17,.75,.75,1.17,1.76,1.17,2.82Z"/><path class="cls-10" d="M1512.52,198.21c0,.79-.23,1.56-.67,2.22-.44,.65-1.06,1.16-1.79,1.47-.73,.3-1.54,.38-2.31,.22-.77-.15-1.47-.53-2.04-1.09-.56-.56-.93-1.27-1.08-2.04-.16-.77-.08-1.58,.22-2.3,.3-.73,.81-1.36,1.47-1.79,.65-.44,1.42-.68,2.21-.68,1.06,0,2.08,.42,2.82,1.17,.75,.75,1.17,1.76,1.17,2.82Z"/><path class="cls-10" d="M1539.6,198.21c0,.79-.24,1.56-.68,2.22-.44,.66-1.06,1.17-1.79,1.47-.73,.3-1.53,.38-2.3,.23-.77-.16-1.49-.54-2.04-1.1-.56-.55-.94-1.27-1.1-2.04-.15-.77-.07-1.58,.24-2.3,.29-.73,.81-1.36,1.46-1.79,.66-.44,1.43-.68,2.22-.68,1.05,0,2.07,.42,2.81,1.17,.76,.75,1.18,1.76,1.18,2.82Z"/><path class="cls-10" d="M1566.66,198.21c0,.79-.23,1.56-.66,2.22-.44,.66-1.07,1.17-1.8,1.47-.72,.3-1.53,.38-2.3,.23-.78-.16-1.48-.54-2.04-1.1-.56-.55-.94-1.27-1.09-2.04-.16-.77-.08-1.58,.22-2.3,.3-.73,.81-1.36,1.47-1.79,.66-.44,1.43-.68,2.21-.68,1.06,0,2.08,.42,2.83,1.17,.74,.75,1.16,1.76,1.16,2.82Z"/><path class="cls-10" d="M1593.75,198.21c0,.79-.24,1.56-.68,2.22-.44,.66-1.06,1.17-1.79,1.47-.73,.3-1.53,.38-2.3,.23-.77-.16-1.49-.54-2.04-1.1-.56-.55-.94-1.27-1.1-2.04-.15-.77-.07-1.58,.24-2.3,.29-.73,.81-1.36,1.46-1.79,.66-.44,1.43-.68,2.22-.68,1.05,0,2.07,.42,2.81,1.17,.76,.75,1.18,1.76,1.18,2.82Z"/><path class="cls-10" d="M1620.82,198.21c0,.79-.23,1.56-.67,2.22-.44,.66-1.07,1.17-1.79,1.47-.73,.3-1.54,.38-2.31,.23-.77-.16-1.48-.54-2.04-1.1-.56-.55-.94-1.27-1.09-2.04-.16-.77-.08-1.58,.22-2.31,.3-.72,.82-1.35,1.48-1.79,.65-.43,1.42-.67,2.21-.67,1.06,0,2.08,.42,2.82,1.17,.75,.75,1.17,1.76,1.17,2.82Z"/><g class="cls-22"><path class="cls-13" d="M1087.68,550.1c1.13,0,2.06-.92,2.06-2.06s-.93-2.07-2.06-2.07-2.07,.93-2.07,2.07,.92,2.06,2.07,2.06Z"/><path class="cls-13" d="M1114.55,550.1c1.14,0,2.06-.93,2.06-2.06s-.92-2.07-2.06-2.07-2.06,.93-2.06,2.07,.92,2.06,2.06,2.06Z"/><path class="cls-13" d="M1141.42,550.1c1.15,0,2.07-.93,2.07-2.06s-.92-2.07-2.07-2.07-2.05,.93-2.05,2.07,.92,2.06,2.05,2.06Z"/><path class="cls-13" d="M1168.3,550.1c1.15,0,2.07-.93,2.07-2.06s-.92-2.07-2.07-2.07-2.06,.93-2.06,2.07,.93,2.06,2.06,2.06Z"/><path class="cls-13" d="M1087.68,576.76c1.13,0,2.06-.93,2.06-2.06s-.93-2.07-2.06-2.07-2.07,.93-2.07,2.07,.92,2.06,2.07,2.06Z"/><path class="cls-13" d="M1114.55,576.76c1.14,0,2.06-.93,2.06-2.06s-.92-2.07-2.06-2.07-2.06,.93-2.06,2.07,.92,2.06,2.06,2.06Z"/><path class="cls-13" d="M1141.42,576.76c1.15,0,2.07-.93,2.07-2.06s-.92-2.07-2.07-2.07-2.05,.93-2.05,2.07,.92,2.06,2.05,2.06Z"/><path class="cls-13" d="M1168.3,576.76c1.15,0,2.07-.93,2.07-2.06s-.92-2.07-2.07-2.07-2.06,.93-2.06,2.07,.93,2.06,2.06,2.06Z"/><path class="cls-13" d="M1089.74,601.35c0,.41-.13,.81-.36,1.15-.22,.34-.54,.6-.92,.76-.37,.15-.79,.2-1.19,.12s-.77-.28-1.05-.57c-.29-.29-.49-.65-.57-1.05-.08-.4-.04-.82,.12-1.2,.16-.37,.42-.69,.76-.92,.33-.23,.73-.35,1.15-.35,.54,0,1.06,.22,1.45,.61,.38,.38,.61,.91,.61,1.45Z"/><path class="cls-13" d="M1116.61,601.35c0,.41-.12,.81-.35,1.15-.22,.34-.54,.6-.92,.76-.37,.15-.8,.2-1.2,.12-.39-.08-.76-.28-1.05-.57-.28-.29-.48-.65-.56-1.05-.08-.4-.04-.82,.12-1.2,.16-.37,.42-.69,.75-.92,.34-.23,.74-.35,1.15-.35,.55,0,1.07,.22,1.46,.61,.38,.38,.6,.91,.6,1.45Z"/><path class="cls-13" d="M1143.49,601.35c0,.41-.12,.81-.35,1.15-.22,.34-.54,.6-.92,.76-.38,.15-.8,.2-1.2,.12s-.76-.28-1.05-.57c-.28-.29-.48-.65-.56-1.05-.08-.4-.04-.82,.12-1.2,.16-.37,.42-.69,.75-.92,.34-.23,.74-.35,1.14-.35,.55,0,1.08,.22,1.47,.61,.38,.38,.6,.91,.6,1.45Z"/><path class="cls-13" d="M1170.37,601.35c0,.41-.12,.81-.35,1.15s-.54,.6-.92,.76c-.39,.15-.8,.2-1.2,.12s-.76-.28-1.05-.57c-.29-.29-.48-.65-.57-1.05-.08-.4-.04-.82,.12-1.2,.15-.37,.42-.69,.76-.92,.34-.23,.74-.35,1.14-.35,.28,0,.54,.06,.8,.16,.25,.1,.47,.25,.66,.45,.2,.19,.35,.41,.45,.66,.11,.26,.16,.52,.16,.79Z"/><path class="cls-13" d="M1089.74,628.01c0,.41-.13,.81-.36,1.15-.22,.34-.54,.6-.92,.76-.37,.16-.79,.2-1.2,.12-.39-.08-.76-.28-1.04-.57-.29-.29-.49-.65-.57-1.05-.08-.4-.04-.82,.12-1.2,.16-.37,.42-.69,.76-.92,.33-.23,.73-.35,1.15-.35,.26,0,.53,.06,.78,.16s.48,.25,.67,.45c.19,.19,.34,.42,.45,.67,.1,.25,.16,.51,.16,.78Z"/><path class="cls-13" d="M1116.61,628.01c0,.41-.12,.81-.35,1.15-.22,.34-.54,.6-.92,.76-.37,.16-.8,.2-1.2,.12s-.76-.28-1.05-.57c-.28-.29-.48-.65-.56-1.05-.08-.4-.04-.82,.12-1.2,.16-.37,.42-.69,.75-.92,.34-.23,.74-.35,1.15-.35,.27,0,.54,.06,.79,.16s.48,.25,.67,.45c.19,.19,.34,.42,.44,.67,.11,.25,.16,.51,.16,.78Z"/><path class="cls-13" d="M1143.49,628.01c0,.41-.12,.81-.35,1.15-.22,.34-.54,.6-.92,.76s-.8,.2-1.2,.12-.76-.28-1.05-.57c-.28-.29-.48-.65-.56-1.05-.08-.4-.04-.82,.12-1.2,.16-.37,.42-.69,.75-.92,.34-.23,.74-.35,1.14-.35,.55,0,1.08,.22,1.47,.61,.38,.38,.6,.91,.6,1.45Z"/><path class="cls-13" d="M1170.37,628.01c0,.41-.12,.81-.35,1.15-.23,.34-.55,.6-.92,.76-.39,.16-.8,.2-1.2,.12s-.76-.28-1.05-.57c-.29-.29-.48-.65-.57-1.05-.08-.4-.04-.82,.12-1.2,.15-.37,.42-.69,.76-.92,.34-.23,.74-.35,1.14-.35,.28,0,.54,.06,.8,.16,.25,.1,.47,.25,.66,.45,.2,.19,.35,.42,.45,.67,.11,.25,.16,.51,.16,.78Z"/></g><g class="cls-22"><path class="cls-13" d="M1192.22,550.1c1.14,0,2.06-.92,2.06-2.06s-.92-2.07-2.06-2.07-2.06,.93-2.06,2.07,.92,2.06,2.06,2.06Z"/><path class="cls-13" d="M1219.1,550.1c1.14,0,2.05-.93,2.05-2.06s-.91-2.07-2.05-2.07-2.06,.93-2.06,2.07,.92,2.06,2.06,2.06Z"/><path class="cls-13" d="M1245.97,550.1c1.15,0,2.06-.93,2.06-2.06s-.91-2.07-2.06-2.07-2.05,.93-2.05,2.07,.92,2.06,2.05,2.06Z"/><path class="cls-13" d="M1272.85,550.1c1.15,0,2.06-.93,2.06-2.06s-.91-2.07-2.06-2.07-2.06,.93-2.06,2.07,.93,2.06,2.06,2.06Z"/><path class="cls-13" d="M1192.22,576.76c1.14,0,2.06-.93,2.06-2.06s-.92-2.07-2.06-2.07-2.06,.93-2.06,2.07,.92,2.06,2.06,2.06Z"/><path class="cls-13" d="M1219.1,576.76c1.14,0,2.05-.93,2.05-2.06s-.91-2.07-2.05-2.07-2.06,.93-2.06,2.07,.92,2.06,2.06,2.06Z"/><path class="cls-13" d="M1245.97,576.76c1.15,0,2.06-.93,2.06-2.06s-.91-2.07-2.06-2.07-2.05,.93-2.05,2.07,.92,2.06,2.05,2.06Z"/><path class="cls-13" d="M1272.85,576.76c1.15,0,2.06-.93,2.06-2.06s-.91-2.07-2.06-2.07-2.06,.93-2.06,2.07,.93,2.06,2.06,2.06Z"/><path class="cls-13" d="M1194.28,601.35c0,.41-.12,.81-.35,1.15-.22,.34-.54,.6-.93,.76-.37,.15-.79,.2-1.18,.12-.4-.08-.77-.28-1.05-.57-.3-.29-.49-.65-.57-1.05-.08-.4-.04-.82,.12-1.2,.15-.37,.42-.69,.76-.92,.33-.23,.73-.35,1.14-.35,.55,0,1.07,.22,1.46,.61,.38,.38,.6,.91,.6,1.45Z"/><path class="cls-13" d="M1221.15,601.35c0,.41-.11,.81-.34,1.15-.22,.34-.54,.6-.93,.76-.37,.15-.79,.2-1.19,.12-.39-.08-.76-.28-1.05-.57s-.48-.65-.56-1.05c-.08-.4-.04-.82,.12-1.2,.15-.37,.42-.69,.75-.92,.34-.23,.74-.35,1.15-.35,.55,0,1.07,.22,1.46,.61,.38,.38,.59,.91,.59,1.45Z"/><path class="cls-13" d="M1248.03,601.35c0,.41-.11,.81-.34,1.15-.22,.34-.55,.6-.93,.76-.37,.15-.79,.2-1.19,.12-.4-.08-.76-.28-1.05-.57s-.48-.65-.56-1.05c-.08-.4-.04-.82,.12-1.2,.15-.37,.42-.69,.75-.92,.34-.23,.74-.35,1.14-.35,.55,0,1.08,.22,1.47,.61,.38,.38,.59,.91,.59,1.45Z"/><path class="cls-13" d="M1274.91,601.35c0,.41-.11,.81-.34,1.15-.23,.34-.55,.6-.93,.76-.38,.15-.79,.2-1.19,.12-.4-.08-.76-.28-1.05-.57-.29-.29-.48-.65-.57-1.05-.08-.4-.04-.82,.12-1.2,.15-.37,.42-.69,.76-.92,.34-.23,.74-.35,1.14-.35,.28,0,.54,.06,.79,.16,.26,.1,.48,.25,.67,.45,.19,.19,.35,.41,.45,.66,.1,.26,.15,.52,.15,.79Z"/><path class="cls-13" d="M1194.28,628.01c0,.41-.12,.81-.35,1.15-.22,.34-.54,.6-.93,.76-.37,.16-.79,.2-1.19,.12-.39-.08-.76-.28-1.04-.57-.3-.29-.49-.65-.57-1.05-.08-.4-.04-.82,.12-1.2,.15-.37,.42-.69,.76-.92,.33-.23,.73-.35,1.14-.35,.27,0,.54,.06,.78,.16,.26,.1,.48,.25,.68,.45,.18,.19,.34,.42,.45,.67,.1,.25,.15,.51,.15,.78Z"/><path class="cls-13" d="M1221.15,628.01c0,.41-.11,.81-.34,1.15-.22,.34-.54,.6-.93,.76-.37,.16-.79,.2-1.19,.12-.4-.08-.76-.28-1.05-.57-.29-.29-.48-.65-.56-1.05-.08-.4-.04-.82,.12-1.2,.15-.37,.42-.69,.75-.92,.34-.23,.74-.35,1.15-.35,.27,0,.54,.06,.78,.16,.26,.1,.48,.25,.68,.45,.18,.19,.34,.42,.44,.67,.11,.25,.15,.51,.15,.78Z"/><path class="cls-13" d="M1248.03,628.01c0,.41-.11,.81-.34,1.15-.22,.34-.55,.6-.93,.76-.37,.16-.79,.2-1.19,.12-.4-.08-.76-.28-1.05-.57-.29-.29-.48-.65-.56-1.05-.08-.4-.04-.82,.12-1.2,.15-.37,.42-.69,.75-.92,.34-.23,.74-.35,1.14-.35,.55,0,1.08,.22,1.47,.61,.38,.38,.59,.91,.59,1.45Z"/><path class="cls-13" d="M1274.91,628.01c0,.41-.11,.81-.34,1.15-.23,.34-.56,.6-.93,.76-.38,.16-.79,.2-1.19,.12-.4-.08-.76-.28-1.05-.57-.29-.29-.48-.65-.57-1.05-.08-.4-.04-.82,.12-1.2,.15-.37,.42-.69,.76-.92,.34-.23,.74-.35,1.14-.35,.28,0,.54,.06,.79,.16,.26,.1,.48,.25,.67,.45,.19,.19,.35,.42,.45,.67s.15,.51,.15,.78Z"/></g><g class="cls-22"><path class="cls-13" d="M1296.77,550.1c1.13,0,2.06-.92,2.06-2.06s-.93-2.07-2.06-2.07-2.06,.93-2.06,2.07,.92,2.06,2.06,2.06Z"/><path class="cls-13" d="M1323.65,550.1c1.13,0,2.05-.93,2.05-2.06s-.92-2.07-2.05-2.07-2.06,.93-2.06,2.07,.92,2.06,2.06,2.06Z"/><path class="cls-13" d="M1350.52,550.1c1.14,0,2.06-.93,2.06-2.06s-.92-2.07-2.06-2.07-2.05,.93-2.05,2.07,.92,2.06,2.05,2.06Z"/><path class="cls-13" d="M1377.4,550.1c1.14,0,2.06-.93,2.06-2.06s-.92-2.07-2.06-2.07-2.06,.93-2.06,2.07,.93,2.06,2.06,2.06Z"/><path class="cls-13" d="M1296.77,576.76c1.13,0,2.06-.93,2.06-2.06s-.93-2.07-2.06-2.07-2.06,.93-2.06,2.07,.92,2.06,2.06,2.06Z"/><path class="cls-13" d="M1323.65,576.76c1.13,0,2.05-.93,2.05-2.06s-.92-2.07-2.05-2.07-2.06,.93-2.06,2.07,.92,2.06,2.06,2.06Z"/><path class="cls-13" d="M1350.52,576.76c1.14,0,2.06-.93,2.06-2.06s-.92-2.07-2.06-2.07-2.05,.93-2.05,2.07,.92,2.06,2.05,2.06Z"/><path class="cls-13" d="M1377.4,576.76c1.14,0,2.06-.93,2.06-2.06s-.92-2.07-2.06-2.07-2.06,.93-2.06,2.07,.93,2.06,2.06,2.06Z"/><path class="cls-13" d="M1298.83,601.35c0,.41-.12,.81-.35,1.15-.22,.34-.55,.6-.93,.76-.37,.15-.79,.2-1.18,.12-.4-.08-.77-.28-1.05-.57-.3-.29-.49-.65-.57-1.05-.08-.4-.04-.82,.12-1.2,.15-.37,.42-.69,.76-.92,.33-.23,.73-.35,1.14-.35,.55,0,1.07,.22,1.46,.61,.38,.38,.6,.91,.6,1.45Z"/><path class="cls-13" d="M1325.7,601.35c0,.41-.11,.81-.34,1.15-.22,.34-.55,.6-.93,.76-.37,.15-.79,.2-1.19,.12-.39-.08-.76-.28-1.06-.57-.28-.29-.47-.65-.55-1.05-.08-.4-.04-.82,.12-1.2,.15-.37,.42-.69,.75-.92,.34-.23,.74-.35,1.15-.35,.55,0,1.07,.22,1.46,.61,.38,.38,.59,.91,.59,1.45Z"/><path class="cls-13" d="M1352.58,601.35c0,.41-.11,.81-.34,1.15-.22,.34-.55,.6-.93,.76-.37,.15-.79,.2-1.19,.12s-.76-.28-1.06-.57c-.28-.29-.47-.65-.55-1.05-.08-.4-.04-.82,.12-1.2,.15-.37,.42-.69,.75-.92,.34-.23,.74-.35,1.14-.35,.55,0,1.08,.22,1.47,.61,.38,.38,.59,.91,.59,1.45Z"/><path class="cls-13" d="M1379.46,601.35c0,.41-.12,.81-.34,1.15-.23,.34-.55,.6-.93,.76-.38,.15-.79,.2-1.19,.12s-.76-.28-1.06-.57c-.28-.29-.47-.65-.56-1.05-.08-.4-.04-.82,.11-1.2,.16-.37,.42-.69,.77-.92,.34-.23,.74-.35,1.14-.35,.27,0,.54,.06,.79,.16,.26,.1,.48,.25,.67,.45,.19,.19,.35,.41,.45,.66,.1,.26,.15,.52,.15,.79Z"/><path class="cls-13" d="M1298.83,628.01c0,.41-.12,.81-.35,1.15-.22,.34-.55,.6-.93,.76-.37,.16-.79,.2-1.19,.12-.39-.08-.76-.28-1.04-.57-.3-.29-.49-.65-.57-1.05s-.04-.82,.12-1.2c.15-.37,.42-.69,.76-.92,.33-.23,.73-.35,1.14-.35,.26,0,.54,.06,.78,.16,.26,.1,.48,.25,.68,.45,.18,.19,.34,.42,.45,.67,.09,.25,.15,.51,.15,.78Z"/><path class="cls-13" d="M1325.7,628.01c0,.41-.11,.81-.34,1.15-.22,.34-.55,.6-.93,.76-.37,.16-.79,.2-1.19,.12s-.76-.28-1.06-.57c-.28-.29-.47-.65-.55-1.05s-.04-.82,.12-1.2c.15-.37,.42-.69,.75-.92,.34-.23,.74-.35,1.15-.35,.26,0,.54,.06,.78,.16,.26,.1,.48,.25,.68,.45,.18,.19,.34,.42,.44,.67,.1,.25,.15,.51,.15,.78Z"/><path class="cls-13" d="M1352.58,628.01c0,.41-.11,.81-.34,1.15-.22,.34-.55,.6-.93,.76-.37,.16-.79,.2-1.19,.12s-.76-.28-1.06-.57c-.28-.29-.47-.65-.55-1.05s-.04-.82,.12-1.2c.15-.37,.42-.69,.75-.92,.34-.23,.74-.35,1.14-.35,.55,0,1.08,.22,1.47,.61,.38,.38,.59,.91,.59,1.45Z"/><path class="cls-13" d="M1379.46,628.01c0,.41-.12,.81-.34,1.15-.23,.34-.56,.6-.93,.76-.38,.16-.79,.2-1.19,.12s-.76-.28-1.06-.57c-.28-.29-.47-.65-.56-1.05-.08-.4-.04-.82,.11-1.2,.16-.37,.42-.69,.77-.92,.34-.23,.74-.35,1.14-.35,.27,0,.54,.06,.79,.16,.26,.1,.48,.25,.67,.45,.19,.19,.35,.42,.45,.67,.1,.25,.15,.51,.15,.78Z"/></g><g class="cls-22"><path class="cls-13" d="M1087.68,654.7c1.13,0,2.06-.92,2.06-2.06s-.93-2.06-2.06-2.06-2.07,.92-2.07,2.06,.92,2.06,2.07,2.06Z"/><path class="cls-13" d="M1114.55,654.7c1.14,0,2.06-.92,2.06-2.06s-.92-2.06-2.06-2.06-2.06,.92-2.06,2.06,.92,2.06,2.06,2.06Z"/><path class="cls-13" d="M1141.42,654.7c1.15,0,2.07-.92,2.07-2.06s-.92-2.06-2.07-2.06-2.05,.92-2.05,2.06,.92,2.06,2.05,2.06Z"/><path class="cls-13" d="M1168.3,654.7c1.15,0,2.07-.92,2.07-2.06s-.92-2.06-2.07-2.06-2.06,.92-2.06,2.06,.93,2.06,2.06,2.06Z"/><path class="cls-13" d="M1087.68,681.36c1.13,0,2.06-.92,2.06-2.06s-.93-2.06-2.06-2.06-2.07,.92-2.07,2.06,.92,2.06,2.07,2.06Z"/><path class="cls-13" d="M1114.55,681.36c1.14,0,2.06-.92,2.06-2.06s-.92-2.06-2.06-2.06-2.06,.92-2.06,2.06,.92,2.06,2.06,2.06Z"/><path class="cls-13" d="M1141.42,681.36c1.15,0,2.07-.92,2.07-2.06s-.92-2.06-2.07-2.06-2.05,.92-2.05,2.06,.92,2.06,2.05,2.06Z"/><path class="cls-13" d="M1168.3,681.36c1.15,0,2.07-.92,2.07-2.06s-.92-2.06-2.07-2.06-2.06,.92-2.06,2.06,.93,2.06,2.06,2.06Z"/><path class="cls-13" d="M1089.74,705.96c0,.41-.13,.81-.36,1.15-.22,.33-.54,.6-.92,.76-.37,.15-.79,.19-1.19,.11s-.77-.27-1.05-.56c-.29-.29-.49-.66-.57-1.06-.08-.4-.04-.81,.12-1.19s.42-.7,.76-.92c.33-.23,.73-.35,1.15-.35,.54,0,1.06,.22,1.45,.6,.38,.39,.61,.91,.61,1.46Z"/><path class="cls-13" d="M1116.61,705.96c0,.41-.12,.81-.35,1.15-.22,.33-.54,.6-.92,.76-.37,.15-.8,.19-1.2,.11-.39-.08-.76-.27-1.05-.56-.28-.29-.48-.66-.56-1.06-.08-.4-.04-.81,.12-1.19s.42-.7,.75-.92c.34-.23,.74-.35,1.15-.35,.55,0,1.07,.22,1.46,.6,.38,.39,.6,.91,.6,1.46Z"/><path class="cls-13" d="M1143.49,705.96c0,.41-.12,.81-.35,1.15-.22,.33-.54,.6-.92,.76-.38,.15-.8,.19-1.2,.11s-.76-.27-1.05-.56c-.28-.29-.48-.66-.56-1.06-.08-.4-.04-.81,.12-1.19,.16-.38,.42-.7,.75-.92,.34-.23,.74-.35,1.14-.35,.55,0,1.08,.22,1.47,.6,.38,.39,.6,.91,.6,1.46Z"/><path class="cls-13" d="M1170.37,705.96c0,.41-.12,.81-.35,1.15-.23,.33-.54,.6-.92,.76-.39,.15-.8,.19-1.2,.11s-.76-.27-1.05-.56c-.29-.29-.48-.66-.57-1.06-.08-.4-.04-.81,.12-1.19,.15-.38,.42-.7,.76-.92,.34-.23,.74-.35,1.14-.35,.28,0,.54,.05,.8,.16,.25,.1,.47,.25,.66,.44,.2,.19,.35,.42,.45,.67,.11,.25,.16,.52,.16,.79Z"/><path class="cls-13" d="M1089.74,732.62c0,.41-.13,.81-.36,1.15-.22,.33-.54,.6-.92,.76-.37,.15-.79,.19-1.2,.11-.39-.08-.76-.27-1.04-.56-.29-.29-.49-.66-.57-1.06-.08-.4-.04-.81,.12-1.19s.42-.7,.76-.92c.33-.23,.73-.35,1.15-.35,.26,0,.53,.05,.78,.16,.25,.1,.48,.25,.67,.44,.19,.19,.34,.42,.45,.67,.1,.25,.16,.52,.16,.79Z"/><path class="cls-13" d="M1116.61,732.62c0,.41-.12,.81-.35,1.15-.22,.33-.54,.6-.92,.76-.37,.15-.8,.19-1.2,.11s-.76-.27-1.05-.56c-.28-.29-.48-.66-.56-1.06-.08-.4-.04-.81,.12-1.19s.42-.7,.75-.92c.34-.23,.74-.35,1.15-.35,.27,0,.54,.05,.79,.16,.25,.1,.48,.25,.67,.44,.19,.19,.34,.42,.44,.67,.11,.25,.16,.52,.16,.79Z"/><path class="cls-13" d="M1143.49,732.62c0,.41-.12,.81-.35,1.15-.22,.33-.54,.6-.92,.76-.38,.15-.8,.19-1.2,.11s-.76-.27-1.05-.56c-.28-.29-.48-.66-.56-1.06-.08-.4-.04-.81,.12-1.19,.16-.38,.42-.7,.75-.92,.34-.23,.74-.35,1.14-.35,.55,0,1.08,.22,1.47,.6,.38,.39,.6,.91,.6,1.46Z"/><path class="cls-13" d="M1170.37,732.62c0,.41-.12,.81-.35,1.15-.23,.33-.55,.6-.92,.76-.39,.15-.8,.19-1.2,.11s-.76-.27-1.05-.56c-.29-.29-.48-.66-.57-1.06-.08-.4-.04-.81,.12-1.19,.15-.38,.42-.7,.76-.92,.34-.23,.74-.35,1.14-.35,.28,0,.54,.05,.8,.16,.25,.1,.47,.25,.66,.44,.2,.19,.35,.42,.45,.67,.11,.25,.16,.52,.16,.79Z"/></g><g class="cls-22"><path class="cls-13" d="M1192.22,654.7c1.14,0,2.06-.92,2.06-2.06s-.92-2.06-2.06-2.06-2.06,.92-2.06,2.06,.92,2.06,2.06,2.06Z"/><path class="cls-13" d="M1219.1,654.7c1.14,0,2.05-.92,2.05-2.06s-.91-2.06-2.05-2.06-2.06,.92-2.06,2.06,.92,2.06,2.06,2.06Z"/><path class="cls-13" d="M1245.97,654.7c1.15,0,2.06-.92,2.06-2.06s-.91-2.06-2.06-2.06-2.05,.92-2.05,2.06,.92,2.06,2.05,2.06Z"/><path class="cls-13" d="M1272.85,654.7c1.15,0,2.06-.92,2.06-2.06s-.91-2.06-2.06-2.06-2.06,.92-2.06,2.06,.93,2.06,2.06,2.06Z"/><path class="cls-13" d="M1192.22,681.36c1.14,0,2.06-.92,2.06-2.06s-.92-2.06-2.06-2.06-2.06,.92-2.06,2.06,.92,2.06,2.06,2.06Z"/><path class="cls-13" d="M1219.1,681.36c1.14,0,2.05-.92,2.05-2.06s-.91-2.06-2.05-2.06-2.06,.92-2.06,2.06,.92,2.06,2.06,2.06Z"/><path class="cls-13" d="M1245.97,681.36c1.15,0,2.06-.92,2.06-2.06s-.91-2.06-2.06-2.06-2.05,.92-2.05,2.06,.92,2.06,2.05,2.06Z"/><path class="cls-13" d="M1272.85,681.36c1.15,0,2.06-.92,2.06-2.06s-.91-2.06-2.06-2.06-2.06,.92-2.06,2.06,.93,2.06,2.06,2.06Z"/><path class="cls-13" d="M1194.28,705.96c0,.41-.12,.81-.35,1.15-.22,.33-.54,.6-.93,.76-.37,.15-.79,.19-1.18,.11-.4-.08-.77-.27-1.05-.56-.3-.29-.49-.66-.57-1.06-.08-.4-.04-.81,.12-1.19,.15-.38,.42-.7,.76-.92,.33-.23,.73-.35,1.14-.35,.55,0,1.07,.22,1.46,.6,.38,.39,.6,.91,.6,1.46Z"/><path class="cls-13" d="M1221.15,705.96c0,.41-.11,.81-.34,1.15-.22,.33-.54,.6-.93,.76-.37,.15-.79,.19-1.19,.11-.39-.08-.76-.27-1.05-.56s-.48-.66-.56-1.06c-.08-.4-.04-.81,.12-1.19,.15-.38,.42-.7,.75-.92,.34-.23,.74-.35,1.15-.35,.55,0,1.07,.22,1.46,.6,.38,.39,.59,.91,.59,1.46Z"/><path class="cls-13" d="M1248.03,705.96c0,.41-.11,.81-.34,1.15-.22,.33-.55,.6-.93,.76-.37,.15-.79,.19-1.19,.11-.4-.08-.76-.27-1.05-.56s-.48-.66-.56-1.06c-.08-.4-.04-.81,.12-1.19,.15-.38,.42-.7,.75-.92,.34-.23,.74-.35,1.14-.35,.55,0,1.08,.22,1.47,.6,.38,.39,.59,.91,.59,1.46Z"/><path class="cls-13" d="M1274.91,705.96c0,.41-.11,.81-.34,1.15-.23,.33-.55,.6-.93,.76-.38,.15-.79,.19-1.19,.11-.4-.08-.76-.27-1.05-.56-.29-.29-.48-.66-.57-1.06-.08-.4-.04-.81,.12-1.19,.15-.38,.42-.7,.76-.92,.34-.23,.74-.35,1.14-.35,.28,0,.54,.05,.79,.16,.26,.1,.48,.25,.67,.44,.19,.19,.35,.42,.45,.67s.15,.52,.15,.79Z"/><path class="cls-13" d="M1194.28,732.62c0,.41-.12,.81-.35,1.15-.22,.33-.54,.6-.93,.76-.37,.15-.79,.19-1.19,.11-.39-.08-.76-.27-1.04-.56-.3-.29-.49-.66-.57-1.06-.08-.4-.04-.81,.12-1.19,.15-.38,.42-.7,.76-.92,.33-.23,.73-.35,1.14-.35,.27,0,.54,.05,.78,.16,.26,.1,.48,.25,.68,.44,.18,.19,.34,.42,.45,.67,.1,.25,.15,.52,.15,.79Z"/><path class="cls-13" d="M1221.15,732.62c0,.41-.11,.81-.34,1.15-.22,.33-.54,.6-.93,.76-.37,.15-.79,.19-1.19,.11-.4-.08-.76-.27-1.05-.56s-.48-.66-.56-1.06c-.08-.4-.04-.81,.12-1.19,.15-.38,.42-.7,.75-.92,.34-.23,.74-.35,1.15-.35,.27,0,.54,.05,.78,.16,.26,.1,.48,.25,.68,.44,.18,.19,.34,.42,.44,.67,.11,.25,.15,.52,.15,.79Z"/><path class="cls-13" d="M1248.03,732.62c0,.41-.11,.81-.34,1.15-.22,.33-.55,.6-.93,.76-.37,.15-.79,.19-1.19,.11-.4-.08-.76-.27-1.05-.56s-.48-.66-.56-1.06c-.08-.4-.04-.81,.12-1.19,.15-.38,.42-.7,.75-.92,.34-.23,.74-.35,1.14-.35,.55,0,1.08,.22,1.47,.6,.38,.39,.59,.91,.59,1.46Z"/><path class="cls-13" d="M1274.91,732.62c0,.41-.11,.81-.34,1.15-.23,.33-.56,.6-.93,.76-.38,.15-.79,.19-1.19,.11-.4-.08-.76-.27-1.05-.56-.29-.29-.48-.66-.57-1.06-.08-.4-.04-.81,.12-1.19,.15-.38,.42-.7,.76-.92,.34-.23,.74-.35,1.14-.35,.28,0,.54,.05,.79,.16,.26,.1,.48,.25,.67,.44,.19,.19,.35,.42,.45,.67s.15,.52,.15,.79Z"/></g><g class="cls-22"><path class="cls-13" d="M1296.77,654.7c1.13,0,2.06-.92,2.06-2.06s-.93-2.06-2.06-2.06-2.06,.92-2.06,2.06,.92,2.06,2.06,2.06Z"/><path class="cls-13" d="M1323.65,654.7c1.13,0,2.05-.92,2.05-2.06s-.92-2.06-2.05-2.06-2.06,.92-2.06,2.06,.92,2.06,2.06,2.06Z"/><path class="cls-13" d="M1350.52,654.7c1.14,0,2.06-.92,2.06-2.06s-.92-2.06-2.06-2.06-2.05,.92-2.05,2.06,.92,2.06,2.05,2.06Z"/><path class="cls-13" d="M1377.4,654.7c1.14,0,2.06-.92,2.06-2.06s-.92-2.06-2.06-2.06-2.06,.92-2.06,2.06,.93,2.06,2.06,2.06Z"/><path class="cls-13" d="M1296.77,681.36c1.13,0,2.06-.92,2.06-2.06s-.93-2.06-2.06-2.06-2.06,.92-2.06,2.06,.92,2.06,2.06,2.06Z"/><path class="cls-13" d="M1323.65,681.36c1.13,0,2.05-.92,2.05-2.06s-.92-2.06-2.05-2.06-2.06,.92-2.06,2.06,.92,2.06,2.06,2.06Z"/><path class="cls-13" d="M1350.52,681.36c1.14,0,2.06-.92,2.06-2.06s-.92-2.06-2.06-2.06-2.05,.92-2.05,2.06,.92,2.06,2.05,2.06Z"/><path class="cls-13" d="M1377.4,681.36c1.14,0,2.06-.92,2.06-2.06s-.92-2.06-2.06-2.06-2.06,.92-2.06,2.06,.93,2.06,2.06,2.06Z"/><path class="cls-13" d="M1298.83,705.96c0,.41-.12,.81-.35,1.15-.22,.33-.55,.6-.93,.76-.37,.15-.79,.19-1.18,.11-.4-.08-.77-.27-1.05-.56-.3-.29-.49-.66-.57-1.06s-.04-.81,.12-1.19c.15-.38,.42-.7,.76-.92,.33-.23,.73-.35,1.14-.35,.55,0,1.07,.22,1.46,.6,.38,.39,.6,.91,.6,1.46Z"/><path class="cls-13" d="M1325.7,705.96c0,.41-.11,.81-.34,1.15-.22,.33-.55,.6-.93,.76-.37,.15-.79,.19-1.19,.11-.39-.08-.76-.27-1.06-.56-.28-.29-.47-.66-.55-1.06s-.04-.81,.12-1.19c.15-.38,.42-.7,.75-.92,.34-.23,.74-.35,1.15-.35,.55,0,1.07,.22,1.46,.6,.38,.39,.59,.91,.59,1.46Z"/><path class="cls-13" d="M1352.58,705.96c0,.41-.11,.81-.34,1.15-.22,.33-.55,.6-.93,.76-.37,.15-.79,.19-1.19,.11s-.76-.27-1.06-.56c-.28-.29-.47-.66-.55-1.06s-.04-.81,.12-1.19c.15-.38,.42-.7,.75-.92,.34-.23,.74-.35,1.14-.35,.55,0,1.08,.22,1.47,.6,.38,.39,.59,.91,.59,1.46Z"/><path class="cls-13" d="M1379.46,705.96c0,.41-.12,.81-.34,1.15-.23,.33-.55,.6-.93,.76-.38,.15-.79,.19-1.19,.11s-.76-.27-1.06-.56c-.28-.29-.47-.66-.56-1.06-.08-.4-.04-.81,.11-1.19,.16-.38,.42-.7,.77-.92,.34-.23,.74-.35,1.14-.35,.27,0,.54,.05,.79,.16,.26,.1,.48,.25,.67,.44,.19,.19,.35,.42,.45,.67,.1,.25,.15,.52,.15,.79Z"/><path class="cls-13" d="M1298.83,732.62c0,.41-.12,.81-.35,1.15-.22,.33-.55,.6-.93,.76-.37,.15-.79,.19-1.19,.11-.39-.08-.76-.27-1.04-.56-.3-.29-.49-.66-.57-1.06s-.04-.81,.12-1.19c.15-.38,.42-.7,.76-.92,.33-.23,.73-.35,1.14-.35,.26,0,.54,.05,.78,.16,.26,.1,.48,.25,.68,.44,.18,.19,.34,.42,.45,.67,.09,.25,.15,.52,.15,.79Z"/><path class="cls-13" d="M1325.7,732.62c0,.41-.11,.81-.34,1.15-.22,.33-.55,.6-.93,.76-.37,.15-.79,.19-1.19,.11s-.76-.27-1.06-.56c-.28-.29-.47-.66-.55-1.06s-.04-.81,.12-1.19c.15-.38,.42-.7,.75-.92,.34-.23,.74-.35,1.15-.35,.26,0,.54,.05,.78,.16,.26,.1,.48,.25,.68,.44,.18,.19,.34,.42,.44,.67,.1,.25,.15,.52,.15,.79Z"/><path class="cls-13" d="M1352.58,732.62c0,.41-.11,.81-.34,1.15-.22,.33-.55,.6-.93,.76-.37,.15-.79,.19-1.19,.11s-.76-.27-1.06-.56c-.28-.29-.47-.66-.55-1.06s-.04-.81,.12-1.19c.15-.38,.42-.7,.75-.92,.34-.23,.74-.35,1.14-.35,.55,0,1.08,.22,1.47,.6,.38,.39,.59,.91,.59,1.46Z"/><path class="cls-13" d="M1379.46,732.62c0,.41-.12,.81-.34,1.15-.23,.33-.56,.6-.93,.76-.38,.15-.79,.19-1.19,.11s-.76-.27-1.06-.56c-.28-.29-.47-.66-.56-1.06-.08-.4-.04-.81,.11-1.19,.16-.38,.42-.7,.77-.92,.34-.23,.74-.35,1.14-.35,.27,0,.54,.05,.79,.16,.26,.1,.48,.25,.67,.44,.19,.19,.35,.42,.45,.67,.1,.25,.15,.52,.15,.79Z"/></g><path class="cls-12" d="M1528.48,404.46c-93.11-43.44-203.78-3.14-247.21,90.02-43.41,93.16-3.13,203.89,89.97,247.33,93.11,43.44,203.78,3.14,247.21-90.02,43.41-93.16,3.12-203.89-89.97-247.33Zm-248.09,89.61c43.64-93.65,154.9-134.17,248.5-90.5,93.59,43.67,134.08,154.99,90.44,248.63-43.65,93.65-154.9,134.17-248.5,90.5-93.59-43.67-134.08-154.99-90.44-248.63Zm243.12-78.97c-87.23-40.7-190.92-2.93-231.6,84.34-40.67,87.28-2.93,191.03,84.3,231.73,87.23,40.69,190.92,2.93,231.6-84.34,40.67-87.28,2.93-191.03-84.3-231.73Zm-232.48,83.93c40.91-87.77,145.17-125.74,232.89-84.81,87.72,40.92,125.68,145.25,84.77,233.02-40.91,87.77-145.18,125.74-232.89,84.81-87.73-40.93-125.68-145.25-84.77-233.02Zm227.52-73.28c-81.35-37.96-178.05-2.74-215.99,78.66-37.94,81.4-2.74,178.15,78.61,216.11,81.35,37.95,178.06,2.74,216-78.66,37.93-81.4,2.73-178.15-78.62-216.11Zm-216.87,78.24c38.16-81.88,135.44-117.31,217.28-79.13,81.84,38.19,117.25,135.53,79.08,217.41-38.16,81.89-135.44,117.32-217.28,79.13-81.84-38.18-117.25-135.52-79.08-217.41Zm211.91-67.59c-75.48-35.22-165.2-2.54-200.39,72.97-35.2,75.52-2.54,165.29,72.93,200.5,75.47,35.22,165.2,2.54,200.39-72.97,35.2-75.52,2.55-165.29-72.93-200.5Zm-201.27,72.56c35.42-76.01,125.72-108.89,201.68-73.45,75.96,35.44,108.83,125.79,73.4,201.8-35.42,76.01-125.72,108.89-201.68,73.45-75.96-35.44-108.83-125.79-73.4-201.8Zm196.3-61.92c-69.6-32.47-152.33-2.34-184.78,67.3-32.45,69.64-2.35,152.41,67.26,184.89,69.6,32.47,152.33,2.34,184.78-67.3,32.45-69.64,2.34-152.41-67.26-184.89Zm-185.66,66.88c32.67-70.12,115.99-100.46,186.07-67.76,70.1,32.7,100.42,116.06,67.73,186.18-32.68,70.13-115.99,100.47-186.08,67.77-70.09-32.7-100.41-116.06-67.72-186.19Zm180.7-56.23c-63.72-29.73-139.47-2.15-169.18,61.61-29.72,63.76-2.14,139.55,61.58,169.28,63.72,29.73,139.46,2.14,169.18-61.61,29.72-63.76,2.14-139.55-61.58-169.28Zm-170.06,61.2c29.94-64.25,106.26-92.05,170.48-62.09,64.2,29.96,91.99,106.33,62.04,170.58-29.93,64.25-106.26,92.04-170.48,62.08-64.2-29.95-91.99-106.32-62.04-170.57Z"/></g></g></g></g></g></g></svg>