<?xml version="1.0" encoding="UTF-8"?><svg id="Calque_2" xmlns="http://www.w3.org/2000/svg" xmlns:xlink="http://www.w3.org/1999/xlink" viewBox="0 0 1864 678"><defs><style>.cls-1,.cls-2,.cls-3,.cls-4,.cls-5,.cls-6{fill:none;}.cls-7{clip-path:url(#clippath);}.cls-8,.cls-9{fill:#4181e0;}.cls-10{fill:#a2badd;}.cls-11{fill:rgba(65,129,224,.34);}.cls-2{stroke:#f89300;stroke-miterlimit:10;}.cls-2,.cls-9,.cls-12{isolation:isolate;}.cls-2,.cls-13{opacity:.16;}.cls-9,.cls-14{opacity:.19;}.cls-15{clip-path:url(#clippath-1);}.cls-16{clip-path:url(#clippath-2);}.cls-3{stroke:#eaf1fd;}.cls-3,.cls-4,.cls-5,.cls-6{stroke-linecap:round;stroke-linejoin:round;stroke-width:2px;}.cls-12{fill:#f89300;fill-rule:evenodd;opacity:.22;}.cls-4{stroke:#f87f28;}.cls-5{stroke:#bdd7fe;}.cls-6{stroke:#a2badd;}</style><clipPath id="clippath"><rect class="cls-1" width="1864" height="678"/></clipPath><clipPath id="clippath-1"><rect class="cls-1" y="-4955" width="1860" height="6536"/></clipPath><clipPath id="clippath-2"><rect class="cls-1" x="-12" y="678" width="1876" height="787"/></clipPath></defs><g id="Calque_1-2"><g class="cls-7"><g class="cls-15"><g><path class="cls-6" d="M1523.42,673.24h9.83"/><path class="cls-6" d="M1528.33,667.88v10.73"/><path class="cls-6" d="M1523.42,650.03h9.83"/><path class="cls-6" d="M1528.33,644.66v10.74"/><path class="cls-6" d="M1523.42,626.82h9.83"/><path class="cls-6" d="M1528.33,621.45v10.73"/><path class="cls-4" d="M947.39,418.97v10.73"/><path class="cls-4" d="M952.31,424.33h-9.84"/><path class="cls-4" d="M1145.41,289.63v10.74"/><path class="cls-4" d="M1150.33,295h-9.84"/><path class="cls-4" d="M1408.71,72.82v10.73"/><path class="cls-4" d="M1413.62,78.18h-9.84"/><path class="cls-4" d="M562.32,261.15v10.74"/><path class="cls-4" d="M567.24,266.52h-9.84"/><path class="cls-4" d="M423.65,226.54v10.74"/><path class="cls-4" d="M428.57,231.91h-9.84"/><path class="cls-3" d="M330.89,179.77h-9.84"/><path class="cls-3" d="M325.97,185.14v-10.74"/><path class="cls-3" d="M330.89,202.99h-9.84"/><path class="cls-3" d="M325.97,208.35v-10.73"/><path class="cls-3" d="M330.89,226.2h-9.84"/><path class="cls-3" d="M325.97,231.57v-10.74"/><path class="cls-10" d="M552.77,417.6c0,.36-.1,.71-.28,1.01-.18,.3-.44,.53-.75,.67-.3,.14-.64,.17-.96,.1-.32-.07-.62-.24-.85-.5-.23-.25-.39-.58-.46-.93-.06-.35-.03-.72,.1-1.05,.13-.33,.34-.62,.61-.82,.27-.2,.6-.3,.93-.3,.22,0,.44,.04,.64,.13,.2,.1,.39,.23,.54,.4,.15,.17,.28,.37,.36,.59,.08,.22,.13,.46,.13,.7Z"/><path class="cls-10" d="M564.09,417.6c0,.36-.1,.71-.28,1.01-.18,.3-.44,.53-.75,.67-.3,.14-.64,.17-.96,.1-.32-.07-.62-.24-.85-.5-.23-.25-.39-.58-.46-.93-.07-.35-.03-.72,.09-1.05,.13-.33,.34-.62,.61-.82,.27-.2,.6-.3,.93-.3,.22,0,.44,.04,.64,.13,.2,.1,.39,.23,.54,.4,.15,.17,.28,.37,.36,.59,.08,.22,.13,.46,.13,.7Z"/><path class="cls-10" d="M575.42,417.6c0,.36-.1,.71-.28,1.01-.18,.3-.44,.53-.75,.67-.3,.14-.64,.17-.96,.1-.32-.07-.62-.24-.85-.5-.23-.25-.39-.57-.46-.93-.06-.35-.03-.72,.1-1.05,.13-.33,.34-.62,.61-.82,.27-.2,.6-.3,.93-.3,.22,0,.44,.04,.64,.13,.2,.1,.39,.23,.54,.4,.15,.17,.28,.37,.36,.59,.08,.22,.13,.46,.13,.7Z"/><path class="cls-10" d="M552.77,429.96c0,.36-.1,.71-.28,1.01-.18,.3-.44,.53-.75,.67-.31,.14-.64,.17-.96,.1-.32-.07-.62-.24-.85-.5-.23-.25-.39-.58-.46-.93s-.03-.72,.1-1.05c.13-.33,.34-.62,.61-.82,.27-.2,.6-.3,.93-.3,.44,0,.87,.19,1.18,.53,.31,.34,.49,.8,.49,1.29Z"/><path class="cls-10" d="M564.09,429.96c0,.36-.1,.71-.28,1.01-.18,.3-.44,.53-.75,.67-.3,.14-.64,.17-.96,.1-.32-.07-.62-.24-.85-.5-.23-.25-.39-.58-.46-.93-.07-.35-.03-.72,.09-1.05,.13-.33,.34-.62,.61-.82,.27-.2,.6-.3,.93-.3,.44,0,.87,.19,1.18,.53s.49,.8,.49,1.29Z"/><path class="cls-10" d="M575.42,429.96c0,.36-.1,.71-.28,1.01-.18,.3-.44,.53-.75,.67-.3,.14-.64,.17-.96,.1-.32-.07-.62-.24-.85-.5-.23-.25-.39-.57-.46-.93-.06-.35-.03-.72,.1-1.05,.13-.33,.34-.62,.61-.82,.27-.2,.6-.3,.93-.3,.22,0,.44,.04,.64,.13,.2,.1,.39,.23,.54,.4,.15,.17,.28,.37,.36,.59,.08,.22,.13,.46,.13,.7Z"/><path class="cls-10" d="M552.77,442.32c0,.36-.1,.71-.28,1.01-.18,.3-.44,.53-.75,.67-.31,.14-.64,.17-.96,.1-.32-.07-.62-.24-.85-.5-.23-.25-.39-.58-.46-.93s-.03-.72,.1-1.05c.13-.33,.34-.62,.61-.82,.27-.2,.6-.3,.93-.3,.44,0,.87,.19,1.18,.53,.31,.34,.49,.8,.49,1.29Z"/><path class="cls-10" d="M564.09,442.32c0,.36-.1,.71-.28,1.01-.18,.3-.44,.53-.75,.67-.3,.14-.64,.17-.96,.1-.32-.07-.62-.24-.85-.5-.23-.25-.39-.58-.46-.93-.07-.35-.03-.72,.09-1.05,.13-.33,.34-.62,.61-.82,.27-.2,.6-.3,.93-.3,.44,0,.87,.19,1.18,.53,.31,.34,.49,.8,.49,1.29Z"/><path class="cls-10" d="M575.42,442.32c0,.36-.1,.71-.28,1.01-.18,.3-.44,.53-.75,.67-.3,.14-.64,.17-.96,.1-.32-.07-.62-.24-.85-.5-.23-.25-.39-.57-.46-.93-.06-.35-.03-.72,.1-1.05,.13-.33,.34-.62,.61-.82,.27-.2,.6-.3,.93-.3,.22,0,.44,.04,.64,.13,.2,.1,.39,.23,.54,.4,.15,.17,.28,.37,.36,.59,.08,.22,.13,.46,.13,.7Z"/><path class="cls-10" d="M329.34,34.18c0,.36-.1,.7-.28,1-.18,.3-.44,.53-.74,.67-.3,.13-.63,.17-.96,.1-.32-.07-.61-.24-.85-.5-.23-.25-.39-.57-.45-.92-.06-.35-.03-.71,.09-1.04,.12-.33,.34-.61,.61-.81,.27-.2,.59-.31,.92-.31,.22,0,.43,.05,.63,.14,.2,.09,.38,.22,.54,.39,.15,.17,.28,.37,.36,.59,.08,.22,.13,.45,.13,.69Z"/><path class="cls-10" d="M338.92,35.98c.91,0,1.66-.8,1.66-1.8s-.74-1.81-1.66-1.81-1.65,.81-1.65,1.81,.74,1.8,1.65,1.8Z"/><path class="cls-10" d="M351.81,34.18c0,.36-.1,.71-.28,1-.18,.3-.44,.53-.74,.67-.3,.13-.64,.17-.96,.1-.32-.07-.62-.24-.85-.49-.23-.26-.39-.58-.45-.93-.06-.35-.03-.71,.09-1.04,.13-.33,.34-.61,.61-.81,.27-.2,.59-.31,.92-.31,.44,0,.86,.19,1.17,.53,.31,.34,.49,.8,.49,1.28Z"/><path class="cls-10" d="M363.05,34.18c0,.36-.1,.71-.28,1-.18,.3-.44,.53-.74,.67-.3,.13-.64,.17-.96,.1-.32-.07-.62-.24-.85-.49-.23-.26-.39-.58-.45-.93-.07-.35-.03-.71,.09-1.04,.12-.33,.34-.61,.61-.81,.27-.2,.59-.31,.92-.31,.22,0,.43,.05,.63,.14,.2,.09,.38,.22,.54,.39,.15,.17,.28,.37,.36,.59,.08,.22,.13,.45,.13,.69Z"/><path class="cls-10" d="M372.62,35.98c.91,0,1.65-.8,1.65-1.8s-.74-1.81-1.65-1.81-1.65,.81-1.65,1.81,.74,1.8,1.65,1.8Z"/><path class="cls-10" d="M385.51,34.18c0,.36-.1,.71-.28,1-.18,.3-.44,.53-.74,.67-.3,.13-.64,.17-.96,.1-.32-.07-.62-.24-.85-.49-.23-.26-.39-.58-.45-.93-.06-.35-.03-.71,.09-1.04,.12-.33,.34-.61,.61-.81,.27-.2,.59-.31,.92-.31,.22,0,.43,.05,.63,.14,.2,.09,.38,.22,.54,.39,.15,.17,.27,.37,.36,.59,.08,.22,.13,.45,.13,.69Z"/><path class="cls-10" d="M396.75,34.18c0,.36-.1,.71-.28,1-.18,.3-.44,.53-.74,.67-.3,.13-.64,.17-.96,.1-.32-.07-.61-.24-.85-.49-.23-.26-.39-.58-.45-.93-.06-.35-.03-.71,.09-1.04,.13-.33,.34-.61,.61-.81,.27-.2,.59-.31,.92-.31,.22,0,.43,.05,.63,.14,.2,.09,.38,.22,.54,.39,.15,.17,.28,.37,.36,.59,.08,.22,.13,.45,.13,.69Z"/><path class="cls-10" d="M329.34,46.44c0,.36-.1,.71-.28,1-.18,.3-.44,.53-.74,.67-.3,.13-.63,.17-.96,.1-.32-.07-.61-.24-.85-.5-.23-.25-.39-.57-.45-.92-.06-.35-.03-.71,.09-1.04s.34-.61,.61-.81c.27-.2,.59-.31,.92-.31,.44,0,.86,.19,1.17,.53,.31,.34,.48,.8,.48,1.28Z"/><path class="cls-10" d="M340.58,46.44c0,.36-.1,.71-.28,1-.18,.3-.44,.53-.74,.67-.3,.13-.64,.17-.96,.1-.32-.07-.62-.24-.85-.49-.23-.26-.39-.58-.45-.93s-.03-.71,.09-1.04c.13-.33,.34-.61,.61-.81,.27-.2,.59-.31,.92-.31,.44,0,.86,.19,1.17,.53,.31,.34,.48,.8,.49,1.28Z"/><path class="cls-10" d="M351.81,46.44c0,.36-.1,.71-.28,1-.18,.3-.44,.53-.74,.67-.3,.13-.64,.17-.96,.1-.32-.07-.62-.24-.85-.49-.23-.26-.39-.58-.45-.93s-.03-.71,.09-1.04c.13-.33,.34-.61,.61-.81,.27-.2,.59-.31,.92-.31,.44,0,.86,.19,1.17,.53,.31,.34,.48,.8,.49,1.28Z"/><path class="cls-10" d="M363.05,46.44c0,.36-.1,.71-.28,1-.18,.3-.44,.53-.74,.67-.3,.13-.64,.17-.96,.1-.32-.07-.62-.24-.85-.49-.23-.26-.39-.58-.45-.93-.07-.35-.03-.71,.09-1.04,.12-.33,.34-.61,.61-.81,.27-.2,.59-.31,.92-.31,.44,0,.86,.19,1.17,.53,.31,.34,.48,.8,.49,1.28Z"/><path class="cls-10" d="M374.28,46.44c0,.36-.1,.71-.28,1-.18,.3-.44,.53-.74,.67-.3,.13-.63,.17-.96,.1-.32-.07-.62-.24-.85-.49-.23-.26-.39-.58-.45-.93-.06-.35-.03-.71,.1-1.04s.34-.61,.61-.81c.27-.2,.59-.31,.92-.31,.44,0,.86,.19,1.17,.53,.31,.34,.48,.8,.48,1.28Z"/><path class="cls-10" d="M385.51,46.44c0,.36-.1,.71-.28,1-.18,.3-.44,.53-.74,.67-.3,.13-.64,.17-.96,.1-.32-.07-.62-.24-.85-.49-.23-.26-.39-.58-.45-.93s-.03-.71,.09-1.04c.12-.33,.34-.61,.61-.81,.27-.2,.59-.31,.92-.31,.44,0,.86,.19,1.17,.53,.31,.34,.49,.8,.49,1.28Z"/><path class="cls-10" d="M396.75,46.44c0,.36-.1,.71-.28,1-.18,.3-.44,.53-.74,.67-.3,.13-.64,.17-.96,.1-.32-.07-.61-.24-.85-.49-.23-.26-.39-.58-.45-.93s-.03-.71,.09-1.04c.13-.33,.34-.61,.61-.81,.27-.2,.59-.31,.92-.31,.44,0,.86,.19,1.17,.53,.31,.34,.48,.8,.48,1.28Z"/><path class="cls-10" d="M329.34,58.7c0,.36-.1,.7-.28,1-.18,.3-.44,.53-.74,.66-.3,.14-.64,.17-.96,.1-.32-.07-.61-.24-.84-.49-.23-.25-.39-.57-.45-.92-.06-.35-.03-.72,.09-1.05,.13-.33,.34-.61,.61-.81,.27-.19,.59-.3,.92-.3,.22,0,.43,.05,.63,.14,.2,.09,.38,.22,.54,.39,.15,.17,.28,.37,.36,.59,.08,.22,.13,.45,.13,.69Z"/><path class="cls-10" d="M340.58,58.7c0,.36-.1,.71-.28,1-.18,.3-.44,.53-.74,.67-.3,.13-.64,.17-.96,.1-.32-.07-.61-.25-.85-.5-.23-.25-.39-.57-.45-.92-.06-.35-.03-.72,.09-1.05s.34-.61,.61-.81c.27-.19,.59-.3,.92-.3,.22,0,.43,.05,.63,.14,.2,.09,.38,.22,.54,.39,.15,.17,.28,.37,.36,.59,.08,.22,.12,.45,.12,.69Z"/><path class="cls-10" d="M351.81,58.7c0,.36-.1,.71-.28,1-.18,.3-.44,.53-.74,.67-.3,.13-.64,.17-.96,.1-.32-.07-.61-.25-.85-.5-.23-.25-.39-.57-.45-.92-.06-.35-.03-.72,.1-1.05,.12-.33,.34-.61,.61-.81,.27-.2,.59-.3,.92-.3,.22,0,.43,.05,.63,.14,.2,.09,.38,.22,.54,.39,.15,.17,.27,.37,.36,.59,.08,.22,.12,.45,.12,.69Z"/><path class="cls-10" d="M363.05,58.7c0,.36-.1,.71-.28,1-.18,.3-.44,.53-.74,.67-.3,.13-.64,.17-.96,.1-.32-.07-.61-.25-.85-.5-.23-.25-.39-.57-.45-.92-.06-.35-.03-.72,.09-1.05s.34-.61,.61-.81c.27-.19,.59-.3,.92-.3,.22,0,.43,.05,.63,.14,.2,.09,.38,.22,.54,.39,.15,.17,.28,.37,.36,.59,.08,.22,.12,.45,.12,.69Z"/><path class="cls-10" d="M374.28,58.7c0,.36-.1,.71-.28,1-.18,.3-.44,.53-.74,.67-.3,.13-.64,.17-.96,.1-.32-.07-.62-.25-.85-.5-.23-.25-.39-.57-.45-.92-.06-.35-.03-.72,.1-1.05,.12-.33,.34-.61,.61-.81,.27-.19,.59-.3,.92-.3,.22,0,.43,.05,.63,.14,.2,.09,.38,.22,.54,.39,.15,.17,.28,.37,.36,.59,.08,.22,.13,.45,.12,.69Z"/><path class="cls-10" d="M385.51,58.7c0,.36-.1,.71-.28,1-.18,.3-.44,.53-.74,.67-.3,.13-.64,.17-.96,.1-.32-.07-.62-.24-.85-.49-.23-.26-.39-.58-.45-.93-.06-.35-.03-.71,.09-1.04,.12-.33,.34-.61,.61-.81,.27-.2,.59-.31,.92-.31,.44,0,.86,.19,1.17,.53,.31,.34,.49,.8,.49,1.28Z"/><path class="cls-10" d="M396.75,58.7c0,.36-.1,.71-.28,1-.18,.3-.44,.53-.74,.67-.3,.13-.64,.17-.96,.1-.32-.07-.61-.24-.85-.49-.23-.26-.39-.58-.45-.93-.06-.35-.03-.71,.09-1.04,.13-.33,.34-.61,.61-.81,.27-.2,.59-.31,.92-.31,.44,0,.86,.19,1.17,.53,.31,.34,.48,.8,.48,1.28Z"/><path class="cls-10" d="M329.34,70.96c0,.36-.1,.71-.28,1-.18,.3-.44,.53-.74,.67-.3,.13-.63,.17-.96,.1-.32-.07-.61-.24-.85-.5-.23-.25-.39-.57-.45-.92-.06-.35-.03-.71,.09-1.04s.34-.61,.61-.81,.59-.31,.92-.31c.22,0,.43,.05,.63,.14,.2,.09,.38,.22,.54,.39,.15,.17,.28,.37,.36,.59,.08,.22,.13,.45,.13,.69Z"/><path class="cls-10" d="M340.58,70.96c0,.36-.1,.71-.28,1-.18,.3-.44,.53-.74,.67-.3,.13-.64,.17-.96,.1-.32-.07-.62-.24-.85-.49-.23-.26-.39-.58-.45-.93s-.03-.71,.09-1.04c.13-.33,.34-.61,.61-.81,.27-.2,.59-.31,.92-.31,.44,0,.86,.19,1.17,.53,.31,.34,.49,.8,.49,1.28Z"/><path class="cls-10" d="M351.81,70.96c0,.36-.1,.71-.28,1-.18,.3-.44,.53-.74,.67-.3,.13-.64,.17-.96,.1-.32-.07-.62-.24-.85-.49-.23-.26-.39-.58-.45-.93s-.03-.71,.09-1.04c.13-.33,.34-.61,.61-.81,.27-.2,.59-.31,.92-.31,.44,0,.86,.19,1.17,.53,.31,.34,.49,.8,.49,1.28Z"/><path class="cls-10" d="M363.05,70.96c0,.36-.1,.71-.28,1-.18,.3-.44,.53-.74,.67-.3,.13-.64,.17-.96,.1-.32-.07-.62-.24-.85-.49-.23-.26-.39-.58-.45-.93-.07-.35-.03-.71,.09-1.04,.12-.33,.34-.61,.61-.81,.27-.2,.59-.31,.92-.31,.22,0,.43,.05,.63,.14,.2,.09,.38,.22,.54,.39,.15,.17,.28,.37,.36,.59s.13,.45,.13,.69Z"/><path class="cls-10" d="M374.28,70.96c0,.36-.1,.71-.28,1-.18,.3-.44,.53-.74,.67-.3,.13-.63,.17-.96,.1-.32-.07-.62-.24-.85-.49-.23-.26-.39-.58-.45-.93-.06-.35-.03-.71,.1-1.04s.34-.61,.61-.81c.27-.2,.59-.31,.92-.31,.22,0,.43,.05,.63,.14,.2,.09,.38,.22,.54,.39,.15,.17,.28,.37,.36,.59,.08,.22,.13,.45,.13,.69Z"/><path class="cls-10" d="M385.51,70.96c0,.36-.1,.71-.28,1-.18,.3-.44,.53-.74,.67-.3,.13-.64,.17-.96,.1-.32-.07-.62-.24-.85-.49-.23-.26-.39-.58-.45-.93s-.03-.71,.09-1.04c.12-.33,.34-.61,.61-.81,.27-.2,.59-.31,.92-.31,.22,0,.43,.05,.63,.14,.2,.09,.38,.22,.54,.39,.15,.17,.27,.37,.36,.59s.13,.45,.13,.69Z"/><path class="cls-10" d="M396.75,70.96c0,.36-.1,.71-.28,1-.18,.3-.44,.53-.74,.67-.3,.13-.64,.17-.96,.1-.32-.07-.61-.24-.85-.49-.23-.26-.39-.58-.45-.93s-.03-.71,.09-1.04c.13-.33,.34-.61,.61-.81s.59-.31,.92-.31c.22,0,.43,.05,.63,.14,.2,.09,.38,.22,.54,.39,.15,.17,.28,.37,.36,.59,.08,.22,.13,.45,.13,.69Z"/><path class="cls-10" d="M329.34,83.22c0,.36-.1,.7-.28,1-.18,.3-.44,.53-.74,.67-.3,.13-.64,.17-.96,.1-.32-.07-.62-.24-.85-.5-.23-.25-.39-.57-.45-.92-.06-.35-.03-.71,.09-1.04,.12-.33,.34-.61,.61-.81,.27-.2,.59-.31,.92-.31,.22,0,.43,.05,.63,.14,.2,.09,.38,.22,.54,.39,.15,.17,.27,.37,.36,.59,.08,.22,.13,.45,.13,.69Z"/><path class="cls-10" d="M338.92,85.02c.91,0,1.66-.8,1.66-1.8s-.74-1.81-1.66-1.81-1.65,.81-1.65,1.81,.74,1.8,1.65,1.8Z"/><path class="cls-10" d="M351.81,83.22c0,.36-.1,.71-.28,1-.18,.3-.44,.53-.74,.67-.3,.13-.63,.17-.96,.1-.32-.07-.62-.24-.85-.49-.23-.26-.39-.58-.45-.93-.06-.35-.03-.71,.09-1.04,.12-.33,.34-.61,.61-.81,.27-.2,.59-.31,.92-.31,.44,0,.86,.19,1.17,.53s.48,.8,.49,1.28Z"/><path class="cls-10" d="M363.05,83.22c0,.36-.1,.71-.28,1-.18,.3-.44,.53-.74,.67-.3,.13-.63,.17-.96,.1-.32-.07-.61-.24-.85-.49-.23-.26-.39-.58-.45-.93-.06-.35-.03-.71,.09-1.04,.13-.33,.34-.61,.61-.81,.27-.2,.59-.31,.92-.31,.44,0,.86,.19,1.17,.53s.48,.8,.49,1.28Z"/><path class="cls-10" d="M372.62,85.02c.91,0,1.65-.8,1.65-1.8s-.74-1.81-1.65-1.81-1.65,.81-1.65,1.81,.74,1.8,1.65,1.8Z"/><path class="cls-10" d="M385.51,83.22c0,.36-.1,.71-.28,1-.18,.3-.44,.53-.74,.67-.3,.13-.64,.17-.96,.1-.32-.07-.62-.24-.85-.49-.23-.26-.39-.58-.45-.93-.06-.35-.03-.71,.09-1.04,.12-.33,.34-.61,.61-.81,.27-.2,.59-.31,.92-.31,.22,0,.43,.05,.63,.14,.2,.09,.38,.22,.54,.39,.15,.17,.28,.37,.36,.59,.08,.22,.13,.45,.13,.69Z"/><path class="cls-10" d="M396.75,83.22c0,.36-.1,.71-.28,1-.18,.3-.44,.53-.74,.67-.3,.13-.63,.17-.96,.1-.32-.07-.62-.24-.85-.49-.23-.26-.39-.58-.45-.93-.06-.35-.03-.71,.09-1.04,.13-.33,.34-.61,.61-.81,.27-.2,.59-.31,.92-.31,.22,0,.43,.05,.63,.14,.2,.09,.38,.22,.54,.39,.15,.17,.27,.37,.36,.59,.08,.22,.13,.45,.13,.69Z"/><path class="cls-10" d="M1221.87,239.66c0,.32-.08,.63-.25,.9-.16,.26-.39,.47-.66,.59-.27,.13-.57,.16-.85,.1-.29-.07-.56-.22-.76-.45-.21-.22-.35-.51-.41-.82-.06-.32-.03-.64,.09-.94,.11-.29,.29-.54,.54-.72,.25-.18,.53-.28,.82-.28,.39,0,.77,.17,1.05,.48,.27,.3,.43,.71,.43,1.14Z"/><path class="cls-10" d="M1230.44,241.28c.82,0,1.48-.73,1.48-1.62s-.66-1.62-1.48-1.62-1.48,.73-1.48,1.62,.67,1.62,1.48,1.62Z"/><path class="cls-10" d="M1241.98,239.66c0,.32-.09,.63-.25,.9-.17,.27-.39,.47-.66,.59-.27,.13-.57,.16-.86,.1-.29-.07-.55-.22-.76-.45-.21-.22-.35-.51-.4-.82-.06-.32-.03-.64,.08-.94,.11-.29,.3-.55,.55-.72,.24-.18,.53-.28,.82-.28,.2,0,.39,.05,.57,.13,.17,.08,.34,.2,.47,.35,.15,.15,.25,.33,.33,.52,.07,.2,.11,.41,.11,.62Z"/><path class="cls-10" d="M1252.03,239.66c0,.32-.09,.63-.25,.9-.16,.26-.39,.47-.66,.59-.27,.13-.57,.16-.85,.1-.3-.07-.56-.22-.77-.45-.2-.22-.34-.51-.4-.82-.06-.32-.03-.64,.08-.94,.12-.29,.3-.54,.55-.72,.24-.18,.53-.28,.82-.28,.2,0,.39,.05,.57,.13s.34,.2,.48,.35,.24,.33,.32,.52c.07,.2,.11,.41,.11,.62Z"/><path class="cls-10" d="M1260.6,241.28c.82,0,1.49-.73,1.49-1.62s-.67-1.62-1.49-1.62-1.48,.73-1.48,1.62,.66,1.62,1.48,1.62Z"/><path class="cls-10" d="M1272.14,239.66c0,.32-.09,.63-.25,.9-.16,.26-.39,.47-.66,.59-.28,.13-.57,.16-.86,.1-.29-.07-.55-.22-.76-.45-.21-.22-.35-.51-.41-.82-.05-.32-.02-.64,.09-.94,.11-.29,.31-.54,.55-.72,.24-.18,.52-.28,.82-.28,.39,0,.77,.17,1.05,.48,.28,.3,.43,.71,.43,1.14Z"/><path class="cls-10" d="M1282.2,239.66c0,.32-.1,.63-.25,.9-.17,.26-.4,.47-.67,.59-.27,.13-.57,.16-.86,.1-.28-.07-.55-.22-.76-.45-.2-.22-.35-.51-.4-.82-.06-.32-.03-.64,.08-.94,.12-.29,.31-.54,.55-.72,.24-.18,.53-.28,.83-.28,.39,0,.76,.17,1.04,.48,.28,.3,.44,.71,.44,1.14Z"/><path class="cls-10" d="M1231.92,250.63c0,.32-.08,.63-.25,.9-.16,.27-.39,.47-.66,.59-.27,.13-.57,.16-.85,.1-.29-.07-.56-.22-.76-.45-.21-.22-.35-.51-.41-.82-.05-.32-.03-.64,.09-.94,.11-.29,.3-.54,.55-.72,.24-.18,.52-.27,.81-.27,.4,0,.77,.17,1.05,.47,.28,.3,.43,.71,.43,1.14Z"/><path class="cls-10" d="M1241.98,250.63c0,.32-.09,.63-.25,.9-.17,.27-.39,.47-.66,.59-.27,.13-.57,.16-.86,.1-.29-.07-.55-.22-.76-.45-.21-.22-.35-.51-.4-.82-.06-.32-.03-.64,.08-.94,.11-.29,.3-.54,.55-.72,.24-.18,.53-.27,.82-.27,.4,0,.77,.17,1.04,.47,.28,.3,.44,.71,.44,1.14Z"/><path class="cls-10" d="M1252.03,250.63c0,.32-.09,.63-.25,.9-.16,.27-.39,.47-.66,.59-.27,.13-.57,.16-.85,.1-.3-.07-.56-.22-.77-.45-.2-.22-.34-.51-.4-.82-.06-.32-.03-.64,.08-.94,.12-.29,.3-.54,.55-.72,.24-.18,.53-.27,.82-.27,.39,0,.77,.17,1.05,.47,.28,.3,.43,.71,.43,1.14Z"/><path class="cls-10" d="M1262.09,250.63c0,.32-.09,.63-.26,.9-.15,.27-.39,.47-.66,.59-.27,.13-.57,.16-.85,.1-.29-.07-.56-.22-.76-.45-.21-.22-.35-.51-.41-.82-.06-.32-.03-.64,.09-.94,.11-.29,.3-.54,.54-.72,.25-.18,.53-.27,.82-.27,.4,0,.78,.17,1.06,.47,.27,.3,.43,.71,.43,1.14Z"/><path class="cls-10" d="M1272.14,250.63c0,.32-.09,.63-.25,.9s-.39,.47-.66,.59c-.28,.13-.57,.16-.86,.1-.29-.07-.55-.22-.76-.45-.21-.22-.35-.51-.41-.82-.05-.32-.02-.64,.09-.94,.11-.29,.31-.54,.55-.72s.52-.27,.82-.27c.39,0,.77,.17,1.05,.47,.28,.3,.43,.71,.43,1.14Z"/><path class="cls-10" d="M1282.2,250.63c0,.32-.1,.63-.25,.9-.17,.27-.4,.47-.67,.59-.27,.13-.57,.16-.86,.1-.28-.07-.55-.22-.76-.45-.2-.22-.35-.51-.4-.82-.06-.32-.03-.64,.08-.94,.12-.29,.31-.54,.55-.72s.53-.27,.83-.27c.39,0,.76,.17,1.04,.47,.28,.3,.44,.71,.44,1.14Z"/><path class="cls-10" d="M1292.25,250.63c0,.32-.09,.63-.25,.9s-.4,.47-.67,.59c-.27,.13-.57,.16-.85,.1-.29-.07-.56-.22-.76-.45-.21-.22-.35-.51-.41-.82-.06-.32-.02-.64,.09-.94,.11-.29,.3-.54,.54-.72,.25-.18,.53-.27,.83-.27,.39,0,.77,.17,1.04,.47,.28,.3,.44,.71,.44,1.14Z"/><path class="cls-8" d="M268.33,594.19c.57,0,1.03-.5,1.03-1.12s-.46-1.11-1.03-1.11-1.02,.5-1.02,1.11,.46,1.12,1.02,1.12Z"/><path class="cls-8" d="M281.69,594.19c.57,0,1.02-.5,1.02-1.12s-.46-1.11-1.02-1.11-1.02,.5-1.02,1.11,.46,1.12,1.02,1.12Z"/><path class="cls-8" d="M268.33,608.65c.57,0,1.03-.5,1.03-1.12s-.46-1.12-1.03-1.12-1.02,.5-1.02,1.12,.46,1.12,1.02,1.12Z"/><path class="cls-8" d="M281.69,608.65c.57,0,1.02-.5,1.02-1.12s-.46-1.12-1.02-1.12-1.02,.5-1.02,1.12,.46,1.12,1.02,1.12Z"/><path class="cls-8" d="M269.35,621.99c0,.22-.06,.44-.17,.62-.11,.19-.27,.33-.46,.41-.19,.09-.39,.11-.59,.07-.2-.05-.38-.15-.52-.31-.14-.16-.24-.35-.28-.57-.04-.22-.02-.44,.06-.65,.08-.2,.21-.38,.38-.5,.17-.12,.37-.19,.57-.19,.27,0,.53,.12,.72,.33,.19,.21,.3,.49,.3,.79Z"/><path class="cls-8" d="M282.71,621.99c0,.22-.06,.44-.17,.62-.11,.19-.27,.33-.46,.41-.19,.09-.39,.11-.59,.07-.2-.05-.38-.15-.52-.31-.14-.16-.24-.35-.28-.57-.04-.22-.02-.44,.06-.65,.08-.2,.21-.38,.38-.5,.17-.12,.37-.19,.57-.19,.14,0,.27,.03,.39,.09,.12,.05,.24,.14,.33,.24,.1,.1,.17,.23,.22,.36,.05,.14,.08,.28,.08,.43Z"/><path class="cls-8" d="M269.35,636.45c0,.22-.06,.44-.17,.62-.11,.18-.27,.33-.46,.41-.19,.09-.39,.11-.59,.07-.2-.05-.38-.15-.52-.31-.14-.16-.24-.36-.28-.57-.04-.22-.02-.44,.06-.65,.08-.2,.21-.38,.38-.5,.17-.12,.37-.19,.57-.19,.27,0,.53,.12,.72,.33,.19,.21,.3,.49,.3,.79Z"/><path class="cls-8" d="M282.71,636.45c0,.22-.06,.44-.17,.62-.11,.18-.27,.33-.46,.41-.19,.09-.39,.11-.59,.07-.2-.05-.38-.15-.53-.31-.14-.16-.24-.36-.28-.57-.04-.22-.02-.44,.06-.65,.08-.2,.21-.38,.38-.5,.17-.12,.37-.19,.57-.19,.14,0,.27,.03,.39,.09,.12,.05,.24,.13,.33,.24,.1,.1,.17,.23,.22,.36,.05,.14,.08,.28,.08,.43Z"/><path class="cls-8" d="M293.45,594.19c.57,0,1.02-.5,1.02-1.12s-.46-1.11-1.02-1.11-1.03,.5-1.03,1.11,.46,1.12,1.03,1.12Z"/><path class="cls-8" d="M306.82,594.19c.57,0,1.02-.5,1.02-1.12s-.46-1.11-1.02-1.11-1.02,.5-1.02,1.11,.46,1.12,1.02,1.12Z"/><path class="cls-8" d="M320.18,594.19c.57,0,1.02-.5,1.02-1.12s-.46-1.11-1.02-1.11-1.02,.5-1.02,1.11,.46,1.12,1.02,1.12Z"/><path class="cls-8" d="M333.54,594.19c.57,0,1.02-.5,1.02-1.12s-.46-1.11-1.02-1.11-1.02,.5-1.02,1.11,.46,1.12,1.02,1.12Z"/><path class="cls-8" d="M293.45,608.65c.57,0,1.02-.5,1.02-1.12s-.46-1.12-1.02-1.12-1.03,.5-1.03,1.12,.46,1.12,1.03,1.12Z"/><path class="cls-8" d="M306.82,608.65c.57,0,1.02-.5,1.02-1.12s-.46-1.12-1.02-1.12-1.02,.5-1.02,1.12,.46,1.12,1.02,1.12Z"/><path class="cls-8" d="M320.18,608.65c.57,0,1.02-.5,1.02-1.12s-.46-1.12-1.02-1.12-1.02,.5-1.02,1.12,.46,1.12,1.02,1.12Z"/><path class="cls-8" d="M333.54,608.65c.57,0,1.02-.5,1.02-1.12s-.46-1.12-1.02-1.12-1.02,.5-1.02,1.12,.46,1.12,1.02,1.12Z"/><path class="cls-8" d="M294.48,621.99c0,.22-.06,.44-.17,.62-.11,.19-.27,.33-.46,.41-.19,.09-.39,.11-.59,.07-.2-.05-.38-.15-.52-.31-.14-.16-.24-.35-.28-.57-.04-.22-.02-.44,.06-.65,.08-.2,.21-.38,.38-.5,.17-.12,.37-.19,.57-.19,.27,0,.53,.12,.72,.33,.19,.21,.3,.49,.3,.79Z"/><path class="cls-8" d="M307.84,621.99c0,.22-.06,.44-.17,.62-.11,.19-.27,.33-.46,.41-.19,.09-.39,.11-.59,.07-.2-.05-.38-.15-.53-.31-.14-.16-.24-.35-.28-.57-.04-.22-.02-.44,.06-.65,.08-.2,.21-.38,.38-.5,.17-.12,.37-.19,.57-.19,.27,0,.53,.12,.73,.33,.19,.21,.3,.49,.3,.79Z"/><path class="cls-8" d="M321.21,621.99c0,.22-.06,.44-.17,.62-.11,.19-.27,.33-.46,.41-.19,.09-.39,.11-.59,.07-.2-.05-.38-.15-.52-.31-.14-.16-.24-.35-.28-.57-.04-.22-.02-.44,.06-.65,.08-.2,.21-.38,.38-.5,.17-.12,.37-.19,.57-.19,.27,0,.53,.12,.72,.33,.19,.21,.3,.49,.3,.79Z"/><path class="cls-8" d="M334.57,621.99c0,.22-.06,.44-.17,.62-.11,.19-.27,.33-.46,.41-.19,.09-.39,.11-.59,.07-.2-.05-.38-.15-.52-.31-.14-.16-.24-.35-.28-.57-.04-.22-.02-.44,.06-.65,.08-.2,.21-.38,.38-.5,.17-.12,.37-.19,.57-.19,.13,0,.27,.03,.39,.09,.12,.05,.24,.14,.33,.24,.09,.1,.17,.23,.22,.36,.05,.14,.08,.28,.08,.43Z"/><path class="cls-8" d="M294.48,636.45c0,.22-.06,.44-.17,.62-.11,.18-.27,.33-.46,.41-.19,.09-.39,.11-.59,.07-.2-.05-.38-.15-.52-.31-.14-.16-.24-.36-.28-.57-.04-.22-.02-.44,.06-.65,.08-.2,.21-.38,.38-.5,.17-.12,.37-.19,.57-.19,.13,0,.27,.03,.39,.09,.12,.05,.24,.13,.33,.24,.1,.1,.17,.23,.22,.36,.05,.14,.08,.28,.08,.43Z"/><path class="cls-8" d="M307.84,636.45c0,.22-.06,.44-.17,.62-.11,.18-.27,.33-.46,.41-.19,.09-.39,.11-.59,.07-.2-.05-.38-.15-.52-.31-.14-.16-.24-.36-.28-.57-.04-.22-.02-.44,.06-.65,.08-.2,.21-.38,.38-.5,.17-.12,.37-.19,.57-.19,.14,0,.27,.03,.39,.09,.12,.05,.24,.13,.33,.24,.1,.1,.17,.23,.22,.36,.05,.14,.08,.28,.08,.43Z"/><path class="cls-8" d="M321.21,636.45c0,.22-.06,.44-.17,.62-.11,.18-.27,.33-.46,.41-.19,.09-.39,.11-.59,.07-.2-.05-.38-.15-.52-.31-.14-.16-.24-.36-.28-.57-.04-.22-.02-.44,.06-.65,.08-.2,.21-.38,.38-.5,.17-.12,.37-.19,.57-.19,.27,0,.53,.12,.72,.33,.19,.21,.3,.49,.3,.79Z"/><path class="cls-8" d="M334.57,636.45c0,.22-.06,.44-.17,.62-.11,.18-.27,.33-.46,.41-.19,.09-.39,.11-.59,.07-.2-.05-.38-.15-.52-.31-.14-.16-.24-.36-.28-.57-.04-.22-.02-.44,.06-.65,.08-.2,.21-.38,.38-.5,.17-.12,.37-.19,.57-.19,.13,0,.27,.03,.39,.09,.12,.05,.24,.13,.33,.24,.1,.1,.17,.23,.22,.36,.05,.14,.08,.28,.08,.43Z"/><path class="cls-8" d="M293.45,650.94c.57,0,1.02-.5,1.02-1.12s-.46-1.12-1.02-1.12-1.03,.5-1.03,1.12,.46,1.12,1.03,1.12Z"/><path class="cls-8" d="M306.82,650.94c.57,0,1.02-.5,1.02-1.12s-.46-1.12-1.02-1.12-1.02,.5-1.02,1.12,.46,1.12,1.02,1.12Z"/><path class="cls-8" d="M320.18,650.94c.57,0,1.02-.5,1.02-1.12s-.46-1.12-1.02-1.12-1.02,.5-1.02,1.12,.46,1.12,1.02,1.12Z"/><path class="cls-8" d="M333.54,650.94c.57,0,1.02-.5,1.02-1.12s-.46-1.12-1.02-1.12-1.02,.5-1.02,1.12,.46,1.12,1.02,1.12Z"/><path class="cls-8" d="M293.45,665.4c.57,0,1.02-.5,1.02-1.12s-.46-1.12-1.02-1.12-1.03,.5-1.03,1.12,.46,1.12,1.03,1.12Z"/><path class="cls-8" d="M306.82,665.4c.57,0,1.02-.5,1.02-1.12s-.46-1.12-1.02-1.12-1.02,.5-1.02,1.12,.46,1.12,1.02,1.12Z"/><path class="cls-8" d="M320.18,665.4c.57,0,1.02-.5,1.02-1.12s-.46-1.12-1.02-1.12-1.02,.5-1.02,1.12,.46,1.12,1.02,1.12Z"/><path class="cls-8" d="M333.54,665.4c.57,0,1.02-.5,1.02-1.12s-.46-1.12-1.02-1.12-1.02,.5-1.02,1.12,.46,1.12,1.02,1.12Z"/><path class="cls-8" d="M294.48,678.74c0,.22-.06,.43-.17,.62-.11,.18-.27,.32-.46,.41-.19,.08-.39,.11-.59,.06-.2-.04-.38-.15-.52-.3-.14-.16-.24-.36-.28-.58-.04-.21-.02-.44,.06-.64,.08-.21,.21-.38,.38-.5,.17-.13,.37-.19,.57-.19,.27,0,.53,.12,.72,.33,.19,.21,.3,.49,.3,.79Z"/><path class="cls-8" d="M307.84,678.74c0,.22-.06,.43-.17,.62-.11,.18-.27,.32-.46,.41-.19,.08-.39,.11-.59,.06-.2-.04-.38-.15-.53-.3-.14-.16-.24-.36-.28-.58-.04-.21-.02-.44,.06-.64,.08-.21,.21-.38,.38-.5,.17-.13,.37-.19,.57-.19,.27,0,.53,.12,.72,.33,.19,.21,.3,.49,.3,.79Z"/><path class="cls-8" d="M321.21,678.74c0,.22-.06,.43-.17,.62-.11,.18-.27,.32-.46,.41-.19,.08-.39,.11-.59,.06-.2-.04-.38-.15-.52-.3-.14-.16-.24-.36-.28-.58-.04-.21-.02-.44,.06-.64,.08-.21,.21-.38,.38-.5,.17-.13,.37-.19,.57-.19,.27,0,.53,.12,.72,.33,.19,.21,.3,.49,.3,.79Z"/><path class="cls-8" d="M334.57,678.74c0,.22-.06,.43-.17,.62-.11,.18-.27,.32-.46,.41-.19,.08-.39,.11-.59,.06-.2-.04-.38-.15-.52-.3-.14-.16-.24-.36-.28-.58-.04-.21-.02-.44,.06-.64,.08-.21,.21-.38,.38-.5,.17-.13,.37-.19,.57-.19,.13,0,.27,.03,.39,.08,.12,.06,.24,.14,.33,.25,.09,.1,.17,.22,.22,.36,.05,.13,.08,.28,.08,.43Z"/><path class="cls-8" d="M268.33,650.94c.57,0,1.03-.5,1.03-1.12s-.46-1.12-1.03-1.12-1.02,.5-1.02,1.12,.46,1.12,1.02,1.12Z"/><path class="cls-8" d="M281.69,650.94c.57,0,1.02-.5,1.02-1.12s-.46-1.12-1.02-1.12-1.02,.5-1.02,1.12,.46,1.12,1.02,1.12Z"/><path class="cls-8" d="M268.33,665.4c.57,0,1.03-.5,1.03-1.12s-.46-1.12-1.03-1.12-1.02,.5-1.02,1.12,.46,1.12,1.02,1.12Z"/><path class="cls-8" d="M281.69,665.4c.57,0,1.02-.5,1.02-1.12s-.46-1.12-1.02-1.12-1.02,.5-1.02,1.12,.46,1.12,1.02,1.12Z"/><path class="cls-8" d="M269.35,678.74c0,.22-.06,.43-.17,.62-.11,.18-.27,.32-.46,.41-.19,.08-.39,.11-.59,.06-.2-.04-.38-.15-.52-.3-.14-.16-.24-.36-.28-.58-.04-.21-.02-.44,.06-.64,.08-.21,.21-.38,.38-.5,.17-.13,.37-.19,.57-.19,.27,0,.53,.12,.72,.33,.19,.21,.3,.49,.3,.79Z"/><path class="cls-8" d="M282.71,678.74c0,.22-.06,.43-.17,.62-.11,.18-.27,.32-.46,.41-.19,.08-.39,.11-.59,.06-.2-.04-.38-.15-.52-.3-.14-.16-.24-.36-.28-.58-.04-.21-.02-.44,.06-.64,.08-.21,.21-.38,.38-.5,.17-.13,.37-.19,.57-.19,.14,0,.27,.03,.39,.08,.12,.06,.24,.14,.33,.25,.1,.1,.17,.22,.22,.36,.05,.13,.08,.28,.08,.43Z"/><path class="cls-11" d="M1575.96,241.32c.83,0,1.5-.73,1.5-1.64s-.67-1.64-1.5-1.64-1.5,.74-1.5,1.64,.67,1.64,1.5,1.64Z"/><path class="cls-11" d="M1595.53,241.32c.83,0,1.5-.73,1.5-1.64s-.67-1.64-1.5-1.64-1.5,.74-1.5,1.64,.67,1.64,1.5,1.64Z"/><path class="cls-11" d="M1615.1,241.32c.83,0,1.5-.73,1.5-1.64s-.67-1.64-1.5-1.64-1.5,.74-1.5,1.64,.68,1.64,1.5,1.64Z"/><path class="cls-11" d="M1575.96,262.48c.83,0,1.5-.73,1.5-1.63s-.67-1.64-1.5-1.64-1.5,.73-1.5,1.64,.67,1.63,1.5,1.63Z"/><path class="cls-11" d="M1595.53,262.48c.83,0,1.5-.73,1.5-1.63s-.67-1.64-1.5-1.64-1.5,.73-1.5,1.64,.67,1.63,1.5,1.63Z"/><path class="cls-11" d="M1615.1,262.48c.83,0,1.5-.73,1.5-1.63s-.67-1.64-1.5-1.64-1.5,.73-1.5,1.64,.68,1.63,1.5,1.63Z"/><path class="cls-11" d="M1577.46,282.01c0,.32-.09,.64-.25,.91-.16,.27-.4,.48-.68,.6-.27,.13-.57,.16-.87,.09-.29-.06-.55-.21-.76-.44-.21-.23-.35-.52-.41-.84-.06-.32-.03-.65,.09-.95,.11-.3,.3-.55,.54-.73,.25-.18,.54-.28,.84-.28,.4,0,.78,.17,1.06,.48s.44,.73,.44,1.16Z"/><path class="cls-11" d="M1597.03,282.01c0,.32-.09,.64-.25,.91-.17,.27-.4,.48-.67,.6-.28,.13-.58,.16-.87,.09-.29-.06-.56-.21-.77-.44-.21-.23-.35-.52-.41-.84-.06-.32-.03-.65,.08-.95,.12-.3,.31-.55,.56-.73,.25-.18,.54-.28,.83-.28,.4,0,.78,.17,1.06,.48,.28,.31,.44,.73,.44,1.16Z"/><path class="cls-11" d="M1616.6,282.01c0,.32-.08,.64-.25,.91-.17,.27-.4,.48-.67,.6-.28,.13-.58,.16-.87,.09-.29-.06-.56-.21-.77-.44-.21-.23-.35-.52-.41-.84-.06-.32-.03-.65,.08-.95,.12-.3,.31-.55,.56-.73,.25-.18,.53-.28,.83-.28,.4,0,.78,.17,1.06,.48,.29,.31,.44,.73,.44,1.16Z"/><path class="cls-11" d="M1577.46,303.18c0,.32-.09,.64-.25,.9-.16,.27-.4,.48-.68,.61-.27,.12-.57,.15-.87,.09-.29-.06-.55-.22-.76-.45-.21-.23-.35-.52-.41-.84-.06-.31-.03-.64,.09-.94,.11-.3,.3-.56,.54-.74,.25-.18,.54-.27,.84-.27,.2,0,.4,.04,.57,.12,.19,.08,.35,.21,.49,.36s.25,.33,.32,.53c.08,.2,.12,.41,.12,.63Z"/><path class="cls-11" d="M1597.03,303.18c0,.32-.09,.64-.25,.9-.17,.27-.4,.48-.67,.61-.28,.12-.58,.15-.87,.09-.29-.06-.56-.22-.77-.45-.21-.23-.35-.52-.41-.84-.06-.31-.03-.64,.08-.94,.12-.3,.31-.56,.56-.74s.54-.27,.83-.27c.2,0,.39,.04,.58,.12,.18,.08,.34,.21,.48,.36s.26,.33,.33,.53c.07,.2,.11,.41,.11,.63Z"/><path class="cls-11" d="M1616.6,303.18c0,.32-.08,.64-.25,.9-.17,.27-.4,.48-.67,.61-.28,.12-.58,.15-.87,.09-.29-.06-.56-.22-.77-.45-.21-.23-.35-.52-.41-.84-.06-.31-.03-.64,.08-.94,.12-.3,.31-.56,.56-.74s.53-.27,.83-.27c.4,0,.78,.17,1.06,.48,.29,.3,.44,.72,.44,1.16Z"/><path class="cls-11" d="M1500.02,241.32c.82,0,1.5-.73,1.5-1.64s-.68-1.64-1.5-1.64-1.51,.74-1.51,1.64,.67,1.64,1.51,1.64Z"/><path class="cls-11" d="M1519.59,241.32c.82,0,1.5-.73,1.5-1.64s-.68-1.64-1.5-1.64-1.5,.74-1.5,1.64,.67,1.64,1.5,1.64Z"/><path class="cls-11" d="M1539.16,241.32c.83,0,1.5-.73,1.5-1.64s-.67-1.64-1.5-1.64-1.5,.74-1.5,1.64,.67,1.64,1.5,1.64Z"/><path class="cls-11" d="M1558.73,241.32c.83,0,1.5-.73,1.5-1.64s-.67-1.64-1.5-1.64-1.5,.74-1.5,1.64,.67,1.64,1.5,1.64Z"/><path class="cls-11" d="M1500.02,262.48c.82,0,1.5-.73,1.5-1.63s-.68-1.64-1.5-1.64-1.51,.73-1.51,1.64,.67,1.63,1.51,1.63Z"/><path class="cls-11" d="M1519.59,262.48c.82,0,1.5-.73,1.5-1.63s-.68-1.64-1.5-1.64-1.5,.73-1.5,1.64,.67,1.63,1.5,1.63Z"/><path class="cls-11" d="M1539.16,262.48c.83,0,1.5-.73,1.5-1.63s-.67-1.64-1.5-1.64-1.5,.73-1.5,1.64,.67,1.63,1.5,1.63Z"/><path class="cls-11" d="M1558.73,262.48c.83,0,1.5-.73,1.5-1.63s-.67-1.64-1.5-1.64-1.5,.73-1.5,1.64,.67,1.63,1.5,1.63Z"/><path class="cls-11" d="M1501.52,282.01c0,.32-.1,.64-.26,.91s-.4,.48-.67,.6c-.28,.13-.57,.16-.87,.09-.29-.06-.56-.21-.76-.44-.22-.23-.36-.52-.42-.84-.05-.32-.03-.65,.09-.95,.11-.3,.3-.55,.55-.73,.25-.18,.54-.28,.84-.28,.39,0,.77,.17,1.06,.48,.28,.31,.44,.73,.44,1.16Z"/><path class="cls-11" d="M1521.09,282.01c0,.32-.09,.64-.26,.91-.16,.27-.4,.48-.67,.6-.27,.13-.57,.16-.86,.09-.3-.06-.57-.21-.77-.44-.22-.23-.36-.52-.41-.84-.06-.32-.03-.65,.08-.95,.11-.3,.31-.55,.56-.73,.24-.18,.53-.28,.83-.28,.4,0,.77,.17,1.06,.48,.28,.31,.44,.73,.44,1.16Z"/><path class="cls-11" d="M1540.66,282.01c0,.32-.09,.64-.25,.91-.17,.27-.4,.48-.68,.6-.27,.13-.58,.16-.86,.09-.29-.06-.56-.21-.77-.44-.21-.23-.36-.52-.41-.84-.06-.32-.03-.65,.08-.95,.12-.3,.31-.55,.56-.73,.24-.18,.53-.28,.83-.28,.4,0,.78,.17,1.06,.48s.44,.73,.44,1.16Z"/><path class="cls-11" d="M1560.23,282.01c0,.32-.09,.64-.25,.91-.17,.27-.4,.48-.68,.6-.27,.13-.57,.16-.87,.09-.29-.06-.55-.21-.76-.44-.21-.23-.35-.52-.41-.84-.06-.32-.03-.65,.09-.95,.11-.3,.3-.55,.54-.73,.25-.18,.54-.28,.84-.28,.19,0,.39,.05,.57,.13,.19,.08,.35,.2,.49,.35s.25,.33,.32,.53c.08,.2,.12,.41,.12,.63Z"/><path class="cls-11" d="M1501.52,303.18c0,.32-.1,.64-.26,.9-.16,.27-.4,.48-.67,.61-.28,.12-.57,.15-.87,.09-.29-.06-.56-.22-.76-.45-.22-.23-.36-.52-.42-.84-.05-.31-.03-.64,.09-.94,.11-.3,.3-.56,.55-.74s.54-.27,.84-.27c.19,0,.39,.04,.57,.12,.18,.08,.34,.21,.49,.36,.14,.15,.24,.33,.32,.53,.07,.2,.12,.41,.12,.63Z"/><path class="cls-11" d="M1521.09,303.18c0,.32-.09,.64-.26,.9-.16,.27-.4,.48-.67,.61-.27,.12-.58,.15-.86,.09-.3-.06-.57-.22-.77-.45-.22-.23-.36-.52-.41-.84-.06-.31-.03-.64,.08-.94,.11-.3,.31-.56,.56-.74,.24-.18,.53-.27,.83-.27,.2,0,.39,.04,.57,.12,.18,.08,.35,.21,.49,.36s.25,.33,.33,.53c.07,.2,.11,.41,.11,.63Z"/><path class="cls-11" d="M1540.66,303.18c0,.32-.09,.64-.25,.9-.17,.27-.4,.48-.68,.61-.27,.12-.58,.15-.87,.09-.28-.06-.55-.22-.76-.45-.21-.23-.36-.52-.41-.84-.06-.31-.03-.64,.08-.94,.12-.3,.31-.56,.56-.74,.24-.18,.53-.27,.83-.27,.4,0,.78,.17,1.06,.48,.28,.3,.44,.72,.44,1.16Z"/><path class="cls-11" d="M1560.23,303.18c0,.32-.09,.64-.25,.9-.17,.27-.4,.48-.68,.61-.27,.12-.57,.15-.87,.09-.29-.06-.55-.22-.76-.45-.21-.23-.35-.52-.41-.84-.06-.31-.03-.64,.09-.94,.11-.3,.3-.56,.54-.74,.25-.18,.54-.27,.84-.27,.19,0,.39,.04,.57,.12,.19,.08,.35,.21,.49,.36s.25,.33,.32,.53c.08,.2,.12,.41,.12,.63Z"/><path class="cls-11" d="M1500.02,324.38c.82,0,1.5-.73,1.5-1.63s-.68-1.64-1.5-1.64-1.51,.73-1.51,1.64,.67,1.63,1.51,1.63Z"/><path class="cls-11" d="M1519.59,324.38c.82,0,1.5-.73,1.5-1.63s-.68-1.64-1.5-1.64-1.5,.73-1.5,1.64,.67,1.63,1.5,1.63Z"/><path class="cls-11" d="M1539.16,324.38c.83,0,1.5-.73,1.5-1.63s-.67-1.64-1.5-1.64-1.5,.73-1.5,1.64,.67,1.63,1.5,1.63Z"/><path class="cls-11" d="M1558.73,324.38c.83,0,1.5-.73,1.5-1.63s-.67-1.64-1.5-1.64-1.5,.73-1.5,1.64,.67,1.63,1.5,1.63Z"/><path class="cls-11" d="M1500.02,345.55c.82,0,1.5-.74,1.5-1.64s-.68-1.64-1.5-1.64-1.51,.74-1.51,1.64,.67,1.64,1.51,1.64Z"/><path class="cls-11" d="M1519.59,345.55c.82,0,1.5-.74,1.5-1.64s-.68-1.64-1.5-1.64-1.5,.74-1.5,1.64,.67,1.64,1.5,1.64Z"/><path class="cls-11" d="M1539.16,345.55c.83,0,1.5-.74,1.5-1.64s-.67-1.64-1.5-1.64-1.5,.74-1.5,1.64,.67,1.64,1.5,1.64Z"/><path class="cls-11" d="M1558.73,345.55c.83,0,1.5-.74,1.5-1.64s-.67-1.64-1.5-1.64-1.5,.74-1.5,1.64,.67,1.64,1.5,1.64Z"/><path class="cls-11" d="M1501.52,365.07c0,.33-.1,.64-.26,.91s-.4,.48-.67,.61c-.28,.12-.57,.15-.87,.09-.29-.06-.56-.22-.76-.45-.22-.23-.36-.52-.42-.84-.05-.31-.03-.64,.09-.94,.11-.3,.3-.56,.55-.74s.54-.27,.84-.27c.39,0,.77,.17,1.06,.48,.28,.3,.44,.72,.44,1.15Z"/><path class="cls-11" d="M1521.09,365.07c0,.33-.09,.64-.26,.91-.16,.27-.4,.48-.67,.61-.27,.12-.57,.15-.86,.09-.3-.06-.57-.22-.77-.45-.22-.23-.36-.52-.41-.84-.06-.31-.03-.64,.08-.94,.11-.3,.31-.56,.56-.74,.24-.18,.53-.27,.83-.27,.4,0,.77,.17,1.06,.48,.28,.3,.44,.72,.44,1.15Z"/><path class="cls-11" d="M1540.66,365.07c0,.33-.09,.64-.25,.91-.17,.27-.4,.48-.68,.61-.27,.12-.58,.15-.86,.09-.29-.06-.56-.22-.77-.45-.21-.23-.36-.52-.41-.84-.06-.31-.03-.64,.08-.94,.12-.3,.31-.56,.56-.74,.24-.18,.53-.27,.83-.27,.4,0,.78,.17,1.06,.48,.28,.3,.44,.72,.44,1.15Z"/><path class="cls-11" d="M1560.23,365.07c0,.33-.09,.64-.25,.91-.17,.27-.4,.48-.68,.61-.27,.12-.57,.15-.87,.09-.29-.06-.55-.22-.76-.45-.21-.23-.35-.52-.41-.84-.06-.31-.03-.64,.09-.94,.11-.3,.3-.56,.54-.74,.25-.18,.54-.27,.84-.27,.19,0,.39,.04,.57,.12,.19,.08,.35,.21,.49,.36s.25,.33,.32,.53c.08,.2,.12,.41,.12,.62Z"/><path class="cls-11" d="M1501.52,386.24c0,.32-.1,.64-.26,.91s-.4,.48-.67,.6c-.28,.13-.57,.16-.87,.09-.29-.06-.56-.21-.76-.44-.22-.23-.36-.52-.42-.84-.05-.32-.03-.65,.09-.95,.11-.3,.3-.55,.55-.73,.25-.18,.54-.28,.84-.28,.19,0,.39,.05,.57,.13,.18,.08,.34,.2,.49,.35,.14,.15,.24,.34,.32,.53,.07,.2,.12,.42,.12,.63Z"/><path class="cls-11" d="M1521.09,386.24c0,.32-.09,.64-.26,.91-.16,.27-.4,.48-.67,.6-.27,.13-.58,.16-.86,.09-.3-.06-.57-.21-.77-.44-.22-.23-.36-.52-.41-.84-.06-.32-.03-.65,.08-.95,.11-.3,.31-.55,.56-.73,.24-.18,.53-.28,.83-.28,.2,0,.39,.05,.57,.13,.18,.08,.35,.2,.49,.35s.25,.34,.33,.53c.07,.2,.11,.42,.11,.63Z"/><path class="cls-11" d="M1540.66,386.24c0,.32-.09,.64-.25,.91-.17,.27-.4,.48-.68,.6-.27,.13-.58,.16-.87,.09-.28-.06-.55-.21-.76-.44-.21-.23-.36-.52-.41-.84-.06-.32-.03-.65,.08-.95,.12-.3,.31-.55,.56-.73,.24-.18,.53-.28,.83-.28,.4,0,.78,.18,1.06,.48,.28,.31,.44,.73,.44,1.16Z"/><path class="cls-11" d="M1560.23,386.24c0,.32-.09,.64-.25,.91-.17,.27-.4,.48-.68,.6-.27,.13-.57,.16-.87,.09-.29-.06-.55-.21-.76-.44-.21-.23-.35-.52-.41-.84-.06-.32-.03-.65,.09-.95,.11-.3,.3-.55,.54-.73,.25-.18,.54-.28,.84-.28,.19,0,.39,.05,.57,.13,.19,.08,.35,.2,.49,.35s.25,.34,.32,.53c.08,.2,.12,.42,.12,.63Z"/><path class="cls-11" d="M1575.96,324.38c.83,0,1.5-.73,1.5-1.63s-.67-1.64-1.5-1.64-1.5,.73-1.5,1.64,.67,1.63,1.5,1.63Z"/><path class="cls-11" d="M1595.53,324.38c.83,0,1.5-.73,1.5-1.63s-.67-1.64-1.5-1.64-1.5,.73-1.5,1.64,.67,1.63,1.5,1.63Z"/><path class="cls-11" d="M1615.1,324.38c.83,0,1.5-.73,1.5-1.63s-.67-1.64-1.5-1.64-1.5,.73-1.5,1.64,.68,1.63,1.5,1.63Z"/><path class="cls-11" d="M1575.96,345.55c.83,0,1.5-.74,1.5-1.64s-.67-1.64-1.5-1.64-1.5,.74-1.5,1.64,.67,1.64,1.5,1.64Z"/><path class="cls-11" d="M1595.53,345.55c.83,0,1.5-.74,1.5-1.64s-.67-1.64-1.5-1.64-1.5,.74-1.5,1.64,.67,1.64,1.5,1.64Z"/><path class="cls-11" d="M1615.1,345.55c.83,0,1.5-.74,1.5-1.64s-.67-1.64-1.5-1.64-1.5,.74-1.5,1.64,.68,1.64,1.5,1.64Z"/><path class="cls-11" d="M1577.46,365.07c0,.33-.09,.64-.25,.91-.16,.27-.4,.48-.68,.61-.27,.12-.57,.15-.87,.09-.29-.06-.55-.22-.76-.45-.21-.23-.35-.52-.41-.84-.06-.31-.03-.64,.09-.94,.11-.3,.3-.56,.54-.74,.25-.18,.54-.27,.84-.27,.4,0,.78,.17,1.06,.48,.28,.3,.44,.72,.44,1.15Z"/><path class="cls-11" d="M1597.03,365.07c0,.33-.09,.64-.25,.91-.17,.27-.4,.48-.67,.61-.28,.12-.58,.15-.87,.09s-.56-.22-.77-.45c-.21-.23-.35-.52-.41-.84-.06-.31-.03-.64,.08-.94,.12-.3,.31-.56,.56-.74s.54-.27,.83-.27c.4,0,.78,.17,1.06,.48,.28,.3,.44,.72,.44,1.15Z"/><path class="cls-11" d="M1616.6,365.07c0,.33-.08,.64-.25,.91-.17,.27-.4,.48-.67,.61-.28,.12-.58,.15-.87,.09-.29-.06-.56-.22-.77-.45-.21-.23-.35-.52-.41-.84-.06-.31-.03-.64,.08-.94,.12-.3,.31-.56,.56-.74s.53-.27,.83-.27c.4,0,.78,.17,1.06,.48,.29,.3,.44,.72,.44,1.15Z"/><path class="cls-11" d="M1577.46,386.24c0,.32-.09,.64-.25,.91-.16,.27-.4,.48-.68,.6-.27,.13-.57,.16-.87,.09-.29-.06-.55-.21-.76-.44-.21-.23-.35-.52-.41-.84-.06-.32-.03-.65,.09-.95,.11-.3,.3-.55,.54-.73,.25-.18,.54-.28,.84-.28,.2,0,.4,.05,.57,.13,.19,.08,.35,.2,.49,.35s.25,.34,.32,.53c.08,.2,.12,.42,.12,.63Z"/><path class="cls-11" d="M1597.03,386.24c0,.32-.09,.64-.25,.91-.17,.27-.4,.48-.67,.6-.28,.13-.58,.16-.87,.09-.29-.06-.56-.21-.77-.44-.21-.23-.35-.52-.41-.84-.06-.32-.03-.65,.08-.95,.12-.3,.31-.55,.56-.73,.25-.18,.54-.28,.83-.28,.2,0,.39,.05,.58,.13,.18,.08,.34,.2,.48,.35s.26,.34,.33,.53c.07,.2,.11,.42,.11,.63Z"/><path class="cls-11" d="M1616.6,386.24c0,.32-.08,.64-.25,.91-.17,.27-.4,.48-.67,.6-.28,.13-.58,.16-.87,.09-.29-.06-.56-.21-.77-.44-.21-.23-.35-.52-.41-.84-.06-.32-.03-.65,.08-.95,.12-.3,.31-.55,.56-.73,.25-.18,.53-.28,.83-.28,.4,0,.78,.18,1.06,.48,.29,.31,.44,.73,.44,1.16Z"/><path class="cls-11" d="M1500.02,407.45c.82,0,1.5-.73,1.5-1.64s-.68-1.64-1.5-1.64-1.51,.74-1.51,1.64,.67,1.64,1.51,1.64Z"/><path class="cls-11" d="M1519.59,407.45c.82,0,1.5-.73,1.5-1.64s-.68-1.64-1.5-1.64-1.5,.74-1.5,1.64,.67,1.64,1.5,1.64Z"/><path class="cls-11" d="M1539.16,407.45c.83,0,1.5-.73,1.5-1.64s-.67-1.64-1.5-1.64-1.5,.74-1.5,1.64,.67,1.64,1.5,1.64Z"/><path class="cls-11" d="M1558.73,407.45c.83,0,1.5-.73,1.5-1.64s-.67-1.64-1.5-1.64-1.5,.74-1.5,1.64,.67,1.64,1.5,1.64Z"/><path class="cls-11" d="M1500.02,428.61c.82,0,1.5-.73,1.5-1.63s-.68-1.64-1.5-1.64-1.51,.73-1.51,1.64,.67,1.63,1.51,1.63Z"/><path class="cls-11" d="M1519.59,428.61c.82,0,1.5-.73,1.5-1.63s-.68-1.64-1.5-1.64-1.5,.73-1.5,1.64,.67,1.63,1.5,1.63Z"/><path class="cls-11" d="M1539.16,428.61c.83,0,1.5-.73,1.5-1.63s-.67-1.64-1.5-1.64-1.5,.73-1.5,1.64,.67,1.63,1.5,1.63Z"/><path class="cls-11" d="M1558.73,428.61c.83,0,1.5-.73,1.5-1.63s-.67-1.64-1.5-1.64-1.5,.73-1.5,1.64,.67,1.63,1.5,1.63Z"/><path class="cls-11" d="M1501.52,448.14c0,.32-.1,.64-.26,.91s-.4,.48-.67,.6c-.28,.13-.57,.16-.87,.09-.29-.06-.56-.21-.76-.44-.22-.23-.36-.52-.42-.84-.05-.32-.03-.65,.09-.95,.11-.3,.3-.55,.55-.73,.25-.18,.54-.28,.84-.28,.39,0,.77,.17,1.06,.48,.28,.31,.44,.73,.44,1.16Z"/><path class="cls-11" d="M1521.09,448.14c0,.32-.09,.64-.26,.91-.16,.27-.4,.48-.67,.6-.27,.13-.57,.16-.86,.09-.3-.06-.57-.21-.77-.44-.22-.23-.36-.52-.41-.84-.06-.32-.03-.65,.08-.95,.11-.3,.31-.55,.56-.73,.24-.18,.53-.28,.83-.28,.4,0,.77,.17,1.06,.48,.28,.31,.44,.73,.44,1.16Z"/><path class="cls-11" d="M1540.66,448.14c0,.32-.09,.64-.25,.91-.17,.27-.4,.48-.68,.6-.27,.13-.58,.16-.86,.09-.29-.06-.56-.21-.77-.44-.21-.23-.36-.52-.41-.84-.06-.32-.03-.65,.08-.95,.12-.3,.31-.55,.56-.73,.24-.18,.53-.28,.83-.28,.4,0,.78,.17,1.06,.48s.44,.73,.44,1.16Z"/><path class="cls-11" d="M1560.23,448.14c0,.32-.09,.64-.25,.91-.17,.27-.4,.48-.68,.6-.27,.13-.57,.16-.87,.09-.29-.06-.55-.21-.76-.44-.21-.23-.35-.52-.41-.84-.06-.32-.03-.65,.09-.95,.11-.3,.3-.55,.54-.73,.25-.18,.54-.28,.84-.28,.19,0,.39,.05,.57,.13,.19,.08,.35,.2,.49,.35s.25,.33,.32,.53c.08,.2,.12,.41,.12,.63Z"/><path class="cls-11" d="M1501.52,469.31c0,.32-.1,.64-.26,.9-.16,.27-.4,.48-.67,.61-.28,.12-.57,.15-.87,.09-.29-.06-.56-.22-.76-.45-.22-.23-.36-.52-.42-.84-.05-.31-.03-.64,.09-.94,.11-.3,.3-.56,.55-.74s.54-.27,.84-.27c.19,0,.39,.04,.57,.12,.18,.08,.34,.21,.49,.36,.14,.15,.24,.33,.32,.53,.07,.2,.12,.41,.12,.63Z"/><path class="cls-11" d="M1521.09,469.31c0,.32-.09,.64-.26,.9-.16,.27-.4,.48-.67,.61-.27,.12-.58,.15-.86,.09-.3-.06-.57-.22-.77-.45-.22-.23-.36-.52-.41-.84-.06-.31-.03-.64,.08-.94,.11-.3,.31-.56,.56-.74,.24-.18,.53-.27,.83-.27,.2,0,.39,.04,.57,.12,.18,.08,.35,.21,.49,.36s.25,.33,.33,.53c.07,.2,.11,.41,.11,.63Z"/><path class="cls-11" d="M1540.66,469.31c0,.32-.09,.64-.25,.9-.17,.27-.4,.48-.68,.61-.27,.12-.58,.15-.87,.09-.28-.06-.55-.22-.76-.45-.21-.23-.36-.52-.41-.84-.06-.31-.03-.64,.08-.94,.12-.3,.31-.56,.56-.74,.24-.18,.53-.27,.83-.27,.4,0,.78,.17,1.06,.48,.28,.3,.44,.72,.44,1.16Z"/><path class="cls-11" d="M1560.23,469.31c0,.32-.09,.64-.25,.9-.17,.27-.4,.48-.68,.61-.27,.12-.57,.15-.87,.09-.29-.06-.55-.22-.76-.45-.21-.23-.35-.52-.41-.84-.06-.31-.03-.64,.09-.94,.11-.3,.3-.56,.54-.74,.25-.18,.54-.27,.84-.27,.19,0,.39,.04,.57,.12,.19,.08,.35,.21,.49,.36s.25,.33,.32,.53c.08,.2,.12,.41,.12,.63Z"/><path class="cls-11" d="M1575.96,407.45c.83,0,1.5-.73,1.5-1.64s-.67-1.64-1.5-1.64-1.5,.74-1.5,1.64,.67,1.64,1.5,1.64Z"/><path class="cls-11" d="M1595.53,407.45c.83,0,1.5-.73,1.5-1.64s-.67-1.64-1.5-1.64-1.5,.74-1.5,1.64,.67,1.64,1.5,1.64Z"/><path class="cls-11" d="M1615.1,407.45c.83,0,1.5-.73,1.5-1.64s-.67-1.64-1.5-1.64-1.5,.74-1.5,1.64,.68,1.64,1.5,1.64Z"/><path class="cls-11" d="M1575.96,428.61c.83,0,1.5-.73,1.5-1.63s-.67-1.64-1.5-1.64-1.5,.73-1.5,1.64,.67,1.63,1.5,1.63Z"/><path class="cls-11" d="M1595.53,428.61c.83,0,1.5-.73,1.5-1.63s-.67-1.64-1.5-1.64-1.5,.73-1.5,1.64,.67,1.63,1.5,1.63Z"/><path class="cls-11" d="M1615.1,428.61c.83,0,1.5-.73,1.5-1.63s-.67-1.64-1.5-1.64-1.5,.73-1.5,1.64,.68,1.63,1.5,1.63Z"/><path class="cls-11" d="M1577.46,448.14c0,.32-.09,.64-.25,.91-.16,.27-.4,.48-.68,.6-.27,.13-.57,.16-.87,.09-.29-.06-.55-.21-.76-.44-.21-.23-.35-.52-.41-.84-.06-.32-.03-.65,.09-.95,.11-.3,.3-.55,.54-.73,.25-.18,.54-.28,.84-.28,.4,0,.78,.17,1.06,.48s.44,.73,.44,1.16Z"/><path class="cls-11" d="M1597.03,448.14c0,.32-.09,.64-.25,.91-.17,.27-.4,.48-.67,.6-.28,.13-.58,.16-.87,.09-.29-.06-.56-.21-.77-.44-.21-.23-.35-.52-.41-.84-.06-.32-.03-.65,.08-.95,.12-.3,.31-.55,.56-.73,.25-.18,.54-.28,.83-.28,.4,0,.78,.17,1.06,.48,.28,.31,.44,.73,.44,1.16Z"/><path class="cls-11" d="M1616.6,448.14c0,.32-.08,.64-.25,.91-.17,.27-.4,.48-.67,.6-.28,.13-.58,.16-.87,.09-.29-.06-.56-.21-.77-.44-.21-.23-.35-.52-.41-.84-.06-.32-.03-.65,.08-.95,.12-.3,.31-.55,.56-.73,.25-.18,.53-.28,.83-.28,.4,0,.78,.17,1.06,.48,.29,.31,.44,.73,.44,1.16Z"/><path class="cls-11" d="M1577.46,469.31c0,.32-.09,.64-.25,.9-.16,.27-.4,.48-.68,.61-.27,.12-.57,.15-.87,.09-.29-.06-.55-.22-.76-.45-.21-.23-.35-.52-.41-.84-.06-.31-.03-.64,.09-.94,.11-.3,.3-.56,.54-.74,.25-.18,.54-.27,.84-.27,.2,0,.4,.04,.57,.12,.19,.08,.35,.21,.49,.36s.25,.33,.32,.53c.08,.2,.12,.41,.12,.63Z"/><path class="cls-11" d="M1597.03,469.31c0,.32-.09,.64-.25,.9-.17,.27-.4,.48-.67,.61-.28,.12-.58,.15-.87,.09s-.56-.22-.77-.45c-.21-.23-.35-.52-.41-.84-.06-.31-.03-.64,.08-.94,.12-.3,.31-.56,.56-.74s.54-.27,.83-.27c.2,0,.39,.04,.58,.12,.18,.08,.34,.21,.48,.36s.26,.33,.33,.53c.07,.2,.11,.41,.11,.63Z"/><path class="cls-11" d="M1616.6,469.31c0,.32-.08,.64-.25,.9-.17,.27-.4,.48-.67,.61-.28,.12-.58,.15-.87,.09-.29-.06-.56-.22-.77-.45-.21-.23-.35-.52-.41-.84-.06-.31-.03-.64,.08-.94,.12-.3,.31-.56,.56-.74s.53-.27,.83-.27c.4,0,.78,.17,1.06,.48,.29,.3,.44,.72,.44,1.16Z"/><g class="cls-16"><g><g class="cls-14"><path class="cls-9" d="M359.54,591.72c-.51-.41-1.02-.81-1.54-1.2l-86.24,86.28c.39,.52,.8,1.03,1.21,1.55l86.57-86.63Z"/><path class="cls-9" d="M364.46,596.14c-.23-.23-.46-.45-.7-.67l-87.06,87.1c.23,.24,.45,.47,.68,.7,.23,.23,.46,.46,.7,.68l87.06-87.11c-.23-.23-.45-.47-.68-.7Z"/><path class="cls-9" d="M382.35,643.93c.07-.96,.11-1.92,.13-2.88l-60.21,60.25c.96-.02,1.92-.07,2.88-.13l57.2-57.24Z"/><path class="cls-9" d="M382.17,633.39c-.08-.81-.18-1.63-.3-2.45l-69.71,69.75c.81,.12,1.63,.21,2.45,.3l67.55-67.6Z"/><path class="cls-9" d="M380.04,656.96c.36-1.22,.67-2.46,.95-3.7l-46.52,46.55c1.24-.28,2.47-.6,3.7-.95l41.87-41.9Z"/><path class="cls-9" d="M352.19,692.79c8.98-5.31,16.47-12.81,21.78-21.79l-21.78,21.79Z"/><path class="cls-9" d="M374.35,609.06c-.33-.58-.67-1.15-1.02-1.72l-84.75,84.8c.57,.35,1.14,.69,1.72,1.02l84.05-84.1Z"/><path class="cls-9" d="M370.08,602.61c-.39-.52-.79-1.03-1.2-1.54l-86.58,86.62c.51,.41,1.02,.82,1.54,1.21l86.24-86.29Z"/><path class="cls-9" d="M380.54,624.3c-.18-.72-.38-1.44-.59-2.15l-76.58,76.62c.71,.21,1.43,.41,2.15,.59l75.02-75.06Z"/><path class="cls-9" d="M377.87,616.25c-.27-.64-.54-1.28-.83-1.91l-81.48,81.52c.64,.29,1.28,.57,1.92,.83l80.39-80.44Z"/></g><path class="cls-12" d="M19,905.81c57.15,12.09,117.15-16.24,142.89-71.48,29.98-64.34,2.16-140.82-62.14-170.82-26.23-12.24-54.47-14.85-80.76-9.29v1c26.14-5.57,54.25-3,80.34,9.18,63.81,29.77,91.42,105.66,61.66,169.51-25.58,54.89-85.23,83.01-142.01,70.9v1Zm0-8.25c54.06,12.24,111.21-14.33,135.59-66.64,28.1-60.3,2.03-131.98-58.24-160.1-25.13-11.73-52.25-14.03-77.35-8.35v1c24.96-5.69,51.94-3.43,76.94,8.23,59.78,27.89,85.64,98.99,57.77,158.81-24.22,51.96-81.02,78.31-134.71,66.05v1Zm0-8.28c50.96,12.41,105.27-12.38,128.29-61.77,26.22-56.26,1.89-123.15-54.34-149.39-24.04-11.22-50.03-13.19-73.95-7.37v1.01c23.77-5.84,49.62-3.91,73.53,7.25,55.75,26.01,79.87,92.31,53.87,148.09-22.85,49.03-76.82,73.61-127.4,61.17v1.01Zm0-8.32c47.85,12.62,99.34-10.4,120.99-56.86,24.34-52.23,1.76-114.32-50.45-138.67-22.96-10.71-47.82-12.34-70.54-6.37v1.02c22.58-6,47.3-4.42,70.13,6.23,51.71,24.13,74.09,85.64,49.97,137.38-21.49,46.11-72.63,68.9-120.1,56.26v1.01Zm0-8.36c44.73,12.86,93.4-8.37,113.69-51.9,22.46-48.2,1.62-105.49-46.55-127.97-21.87-10.2-45.62-11.47-67.14-5.31v1.02c21.37-6.19,44.98-4.96,66.72,5.18,47.68,22.25,68.31,78.96,46.08,126.67-20.12,43.17-68.46,64.18-112.8,51.29v1.02Zm0-8.42c41.58,13.14,87.46-6.28,106.39-46.89,20.58-44.16,1.49-96.66-42.65-117.25-20.8-9.7-43.44-10.59-63.73-4.2v1.02c20.14-6.42,42.65-5.58,63.32,4.06,43.65,20.37,62.54,72.29,42.18,115.96-18.76,40.25-64.31,59.46-105.5,46.27v1.03Z"/><g class="cls-13"><path class="cls-2" d="M1642.92,600.56c-14.59,31.31-1.05,68.53,30.24,83.13,31.3,14.6,68.5,1.05,83.08-30.26,14.59-31.31,1.06-68.53-30.24-83.13-31.29-14.6-68.49-1.05-83.08,30.26Z"/><path class="cls-2" d="M1646.49,602.23c-13.67,29.33-.99,64.21,28.33,77.89,29.33,13.68,64.18,.99,77.86-28.35,13.67-29.34,.98-64.22-28.34-77.9-29.32-13.68-64.18-.98-77.85,28.36Z"/><path class="cls-2" d="M1650.05,603.89c-12.75,27.37-.91,59.9,26.43,72.66,27.36,12.76,59.87,.92,72.63-26.45,12.75-27.36,.92-59.9-26.43-72.66-27.36-12.76-59.86-.92-72.63,26.45Z"/><path class="cls-2" d="M1653.62,605.55c-11.83,25.4-.85,55.59,24.54,67.43,25.37,11.85,55.54,.86,67.39-24.54,11.83-25.4,.85-55.59-24.54-67.43-25.37-11.84-55.55-.85-67.39,24.54Z"/><path class="cls-2" d="M1657.19,607.22c-10.92,23.42-.78,51.27,22.63,62.19,23.41,10.93,51.24,.79,62.16-22.63,10.91-23.43,.78-51.28-22.63-62.2s-51.24-.79-62.16,22.64Z"/></g><path class="cls-5" d="M642.29,669.6v13.53"/></g></g></g></g></g></g></svg>