<svg width="19" height="19" viewBox="0 0 19 19" fill="none" xmlns="http://www.w3.org/2000/svg">
<path d="M14.5229 9.48479L13.8314 8.77779L4.14884 18.6778H0V14.4348L11.0645 3.12079L16.5973 8.77779C16.7807 8.96532 16.8837 9.21963 16.8837 9.48479C16.8837 9.74996 16.7807 10.0043 16.5973 10.1918L9.68257 17.2628L8.29865 15.8488L14.5229 9.48479ZM12.4485 7.36379L11.0645 5.94979L1.95608 15.2628V16.6778H3.33902L12.4485 7.36379ZM15.2144 0.292787L17.9812 3.12079C18.1646 3.30832 18.2676 3.56262 18.2676 3.82779C18.2676 4.09295 18.1646 4.34726 17.9812 4.53479L16.5973 5.94979L12.4485 1.70679L13.8314 0.292787C14.0148 0.105315 14.2635 0 14.5229 0C14.7822 0 15.0309 0.105315 15.2144 0.292787Z" fill="#D935DC"/>
</svg>
