<svg width="39" height="30" viewBox="0 0 39 30" fill="none" xmlns="http://www.w3.org/2000/svg">
<path d="M3.73888 26.8073C1.55013 24.4825 0.375 21.8752 0.375 17.6485C0.375 10.211 5.59612 3.5449 13.1887 0.249023L15.0864 3.17727C7.9995 7.01077 6.614 11.9854 6.0615 15.1219C7.20263 14.5311 8.6965 14.325 10.1606 14.461C13.9941 14.8159 17.0159 17.963 17.0159 21.8752C17.0159 23.8477 16.2323 25.7395 14.8375 27.1343C13.4427 28.5291 11.5509 29.3127 9.57837 29.3127C7.29825 29.3127 5.118 28.2714 3.73888 26.8073ZM24.9889 26.8073C22.8001 24.4825 21.625 21.8752 21.625 17.6485C21.625 10.211 26.8461 3.5449 34.4388 0.249023L36.3364 3.17727C29.2495 7.01077 27.864 11.9854 27.3115 15.1219C28.4526 14.5311 29.9465 14.325 31.4106 14.461C35.2441 14.8159 38.2659 17.963 38.2659 21.8752C38.2659 23.8477 37.4823 25.7395 36.0875 27.1343C34.6927 28.5291 32.8009 29.3127 30.8284 29.3127C28.5482 29.3127 26.368 28.2714 24.9889 26.8073Z" fill="#DFEAFC"/>
</svg>
