<svg width="20" height="20" viewBox="0 0 20 20" fill="none" xmlns="http://www.w3.org/2000/svg">
<path d="M10 11L16 20H4.00002L10 11ZM10 14.6L7.74002 18H12.26L10 14.6ZM8.94002 8.55996C8.79264 8.42264 8.67444 8.25703 8.59246 8.07304C8.51047 7.88904 8.46639 7.69041 8.46284 7.489C8.45928 7.2876 8.49633 7.08754 8.57177 6.90076C8.64721 6.71399 8.7595 6.54432 8.90194 6.40188C9.04438 6.25944 9.21405 6.14716 9.40082 6.07171C9.5876 5.99627 9.78766 5.95922 9.98906 5.96278C10.1905 5.96633 10.3891 6.01041 10.5731 6.0924C10.7571 6.17438 10.9227 6.29258 11.06 6.43996C11.325 6.72431 11.4692 7.1004 11.4624 7.489C11.4555 7.87761 11.2981 8.24838 11.0233 8.5232C10.7484 8.79803 10.3777 8.95545 9.98906 8.96231C9.60046 8.96916 9.22437 8.82492 8.94002 8.55996ZM3.28102 0.782959L4.69602 2.19796C3.28968 3.60446 2.49962 5.51198 2.49962 7.50096C2.49962 9.48994 3.28968 11.3975 4.69602 12.804L3.28102 14.219C2.39872 13.3368 1.69883 12.2895 1.22132 11.1368C0.743817 9.98409 0.498047 8.74863 0.498047 7.50096C0.498047 6.25329 0.743817 5.01783 1.22132 3.86515C1.69883 2.71247 2.39872 1.66513 3.28102 0.782959ZM16.717 0.782959C17.5993 1.66513 18.2992 2.71247 18.7767 3.86515C19.2542 5.01783 19.5 6.25329 19.5 7.50096C19.5 8.74863 19.2542 9.98409 18.7767 11.1368C18.2992 12.2895 17.5993 13.3368 16.717 14.219L15.302 12.804C16.7084 11.3975 17.4984 9.48994 17.4984 7.50096C17.4984 5.51198 16.7084 3.60446 15.302 2.19796L16.717 0.782959ZM6.11002 3.61096L7.52402 5.02496C7.19898 5.34997 6.94114 5.73582 6.76522 6.16048C6.58931 6.58515 6.49877 7.0403 6.49877 7.49996C6.49877 7.95962 6.58931 8.41477 6.76522 8.83943C6.94114 9.2641 7.19898 9.64995 7.52402 9.97496L6.11002 11.389C5.07862 10.3575 4.49919 8.95861 4.49919 7.49996C4.49919 6.04131 5.07862 4.6424 6.11002 3.61096ZM13.888 3.61096C14.9194 4.6424 15.4988 6.04131 15.4988 7.49996C15.4988 8.95861 14.9194 10.3575 13.888 11.389L12.474 9.97496C12.7991 9.64995 13.0569 9.2641 13.2328 8.83943C13.4087 8.41477 13.4993 7.95962 13.4993 7.49996C13.4993 7.0403 13.4087 6.58515 13.2328 6.16048C13.0569 5.73582 12.7991 5.34997 12.474 5.02496L13.888 3.61096Z" fill="#76A728"/>
</svg>
