<svg width="19" height="20" viewBox="0 0 19 20" fill="none" xmlns="http://www.w3.org/2000/svg">
<path d="M12.4139 7.43856C11.9897 7.02768 11.7169 6.47997 11.6412 5.88756L11.2471 2.80456L8.57704 4.29056C8.06367 4.57658 7.46958 4.67299 6.89481 4.56356L3.90592 3.99356L4.46341 7.04956C4.57043 7.63723 4.47614 8.24466 4.1964 8.76956L2.74304 11.4996L5.75833 11.9026C6.33738 11.9801 6.87269 12.2591 7.27429 12.6926L9.36534 14.9496L10.672 12.1426C10.9228 11.6031 11.3476 11.1684 11.875 10.9116L14.6213 9.57557L12.4139 7.43856ZM12.4383 13.0016L10.2739 17.6516C10.233 17.7395 10.1717 17.8159 10.0954 17.8742C10.0192 17.9325 9.93013 17.9709 9.83607 17.9862C9.742 18.0015 9.64571 17.9931 9.55552 17.9618C9.46533 17.9305 9.38395 17.8772 9.3184 17.8066L5.85418 14.0676C5.76163 13.9678 5.63837 13.9035 5.50502 13.8856L0.510171 13.2176C0.415802 13.2049 0.325873 13.1689 0.248141 13.1127C0.170409 13.0565 0.107207 12.9819 0.0639859 12.8952C0.0207646 12.8084 -0.00117856 12.7123 4.87955e-05 12.615C0.00127615 12.5177 0.0256373 12.4221 0.071031 12.3366L2.47896 7.81256C2.54298 7.69157 2.56439 7.55177 2.5396 7.41656L1.61731 2.35356C1.5998 2.25773 1.60539 2.15898 1.6336 2.06585C1.6618 1.97272 1.71178 1.88803 1.7792 1.81909C1.84663 1.75015 1.92946 1.69905 2.02055 1.67021C2.11163 1.64137 2.20821 1.63565 2.30194 1.65356L7.25376 2.59656C7.38599 2.6219 7.52273 2.60001 7.64106 2.53456L12.0657 0.0725597C12.1494 0.0261341 12.243 0.00124626 12.3382 4.56055e-05C12.4335 -0.00115504 12.5276 0.0213677 12.6124 0.0656684C12.6972 0.109969 12.7702 0.174716 12.8251 0.254318C12.88 0.333921 12.9151 0.425985 12.9274 0.52256L13.5807 5.62856C13.5983 5.7649 13.6611 5.89094 13.7587 5.98556L17.4156 9.52757C17.4847 9.59459 17.5368 9.6778 17.5674 9.77002C17.598 9.86223 17.6062 9.96068 17.5913 10.0569C17.5764 10.153 17.5388 10.2441 17.4817 10.3221C17.4247 10.4001 17.35 10.4627 17.264 10.5046L12.7161 12.7176C12.5944 12.7768 12.4963 12.8771 12.4383 13.0016ZM13.2178 14.9286L14.6008 13.5146L18.7506 17.7566L17.3667 19.1716L13.2178 14.9286Z" fill="#FF7907"/>
</svg>
