<?xml version="1.0" encoding="utf-8"?>
<!-- Generator: Adobe Illustrator 26.5.0, SVG Export Plug-In . SVG Version: 6.00 Build 0)  -->
<svg version="1.1" id="Calque_1" xmlns="http://www.w3.org/2000/svg" xmlns:xlink="http://www.w3.org/1999/xlink" x="0px" y="0px"
	 viewBox="0 0 300 118.5" style="enable-background:new 0 0 300 118.5;" xml:space="preserve">
<style type="text/css">
	.st0{fill:#FFFFFF;}
	.st1{fill:#0060A8;}
	.st2{fill:#231F20;}
</style>
<path class="st0" d="M147.8,109.8c5.5,5.3,13,8.7,21.3,8.7H300l-28.3-84.3c-3.9-9-12.9-15.2-23.8-15.2s-20,6.5-23.8,15.4l-9.4,27.5
	V20.4H169c-8.3,0-15.7,3.2-21.2,8.6v-8.5H101c-8.7,0-16.7,3.7-22.2,9.6v-9.6H34.7C15.7,20.5,0,35.4,0,55c0,9.1,4,17.4,9.9,23.5H0
	v40.1h44.4c12.5,0,24.9-7.6,29.2-16.6l0.1-0.4c5,10,15.3,17,27.3,17h46.7L147.8,109.8"/>
<path class="st1" d="M6.9,111.6h37.5c15.3,0,27.8-12.4,27.8-27.7S59.7,56.2,44.3,56.2h-9.7c-0.8,0-1.4-0.6-1.4-1.4s0.6-1.4,1.4-1.4
	H72V41.7H34.6c-7.2,0-13.1,5.9-13.1,13.1s5.9,13.1,13.1,13.1l9.8,0.1c8.8,0,15.9,7.1,15.9,15.8s-7.1,15.8-15.9,15.8H6.9V111.6"/>
<path class="st1" d="M6.9,97h37.5c7.3,0,13.1-5.9,13.1-13.1s-5.9-13.1-13.1-13.1l-9.8-0.1c-8.8,0-15.9-7.1-15.9-15.9
	S25.8,39,34.6,39H72V27.2H34.6c-15.3,0-27.8,12.4-27.8,27.6s12.4,27.7,27.8,27.7h9.7c0.7,0,1.4,0.6,1.4,1.4s-0.6,1.3-1.4,1.3H6.9
	L6.9,97"/>
<path class="st1" d="M101.2,99.8c-6.5,0-11.8-5.2-11.8-11.8V50.6c0-6.4,5.3-11.6,11.8-11.6h40V27.2h-40c-13,0-23.6,10.5-23.6,23.5
	V88c0,13,10.5,23.5,23.6,23.5H141V99.8H101.2"/>
<path class="st1" d="M92.2,50.7c0-5,4-9,9-9h40v11.8h-34.5c-2.8,0-2.8,2.7-2.8,2.7h28.7v11.7H92.2V50.7"/>
<path class="st1" d="M101.2,97c-4.9,0-9-4-9-8.9V70.7h40.5v11.7h-28.8c0,2.8,2.8,2.8,2.8,2.8H141v11.7L101.2,97"/>
<path class="st1" d="M169.2,99.8c-6.5,0-11.8-5.3-11.8-11.8V50.7c0-6.5,5.3-11.7,11.7-11.7h38.7V27.2H169c-13,0-23.6,10.5-23.6,23.5
	V88c0,13,10.6,23.5,23.6,23.5h38.7V56.2h-33.3V68h21.5v31.8H169.2"/>
<path class="st1" d="M160.2,88c0,5,4,9,9,9h24.2V70.7h-18.7v11.8h6.9v2.8h-6.9c-1.5,0-2.8-1.2-2.8-2.8l-0.1-26.3c0,0,0-2.7,2.8-2.8
	h33.3V41.7h-38.8c-5,0-9,4-9,9V88"/>
<path class="st1" d="M244.3,41.5c0.5-1.5,1.9-2.6,3.6-2.6s3.1,1.1,3.6,2.6l18.8,55.6h-27.5V84h9.2l-4.1-12.3l-13.5,39.8h-13.9
	L244.3,41.5"/>
<path class="st1" d="M274.1,99.8h-31.3v11.7h47.6l-24.8-73.3c-2.2-7.2-9.3-12.4-17.8-12.4S232.2,31,230,38.2l-25,73.3h12.5
	l24.3-71.2c1-2.4,3.3-4,6-4s5.1,1.7,6.1,4L274.1,99.8"/>
<path class="st2" d="M281.5,36.5c2.2,0,4.3-0.9,5.9-2.4c1.6-1.6,2.4-3.6,2.4-5.9s-0.9-4.3-2.4-5.8c-1.6-1.5-3.6-2.4-5.9-2.4
	c-4.6,0-8.3,3.7-8.3,8.2c0,2.2,0.9,4.3,2.4,5.9C277.2,35.7,279.3,36.6,281.5,36.5 M274.4,28.3c0-1.9,0.7-3.7,2.1-5s3.1-2.1,5-2.1
	s3.7,0.7,5,2.1c1.3,1.3,2.1,3.1,2.1,5c0,3.9-3.2,7.1-7.1,7.1c-1.9,0-3.7-0.7-5-2.1C275.1,32,274.4,30.2,274.4,28.3L274.4,28.3z"/>
<path class="st2" d="M279.4,29v3.9h-1.2v-9.2h3.4c1.3,0,2,0,2.8,0.5c0.7,0.5,1,1.3,1,2.1c0,2.1-1.7,2.4-2.2,2.5l2.6,4h-1.5l-2.5-3.9
	L279.4,29 M279.4,27.9h2.4c0.4,0,0.8,0,1.1-0.1c0.9-0.2,1.1-0.8,1.1-1.5c0-0.2,0-0.9-0.5-1.3s-1.1-0.4-1.8-0.4h-2.4L279.4,27.9
	L279.4,27.9z"/>
</svg>
