<?xml version="1.0" encoding="UTF-8"?><svg id="Calque_2" xmlns="http://www.w3.org/2000/svg" xmlns:xlink="http://www.w3.org/1999/xlink" viewBox="0 0 1860 819"><defs><style>.cls-1{stroke:#eaf1fd;}.cls-1,.cls-2,.cls-3,.cls-4{stroke-linecap:round;stroke-linejoin:round;stroke-width:2px;}.cls-1,.cls-2,.cls-3,.cls-4,.cls-5{fill:none;}.cls-2{stroke:#bdd7fe;}.cls-3{stroke:#f87f28;}.cls-6{fill:#f87f28;}.cls-4{stroke:#a2badd;}.cls-7{clip-path:url(#clippath);}.cls-8{fill:#a2badd;}.cls-9{fill:rgba(65,129,224,.34);}</style><clipPath id="clippath"><rect class="cls-5" width="1860" height="819"/></clipPath></defs><g id="Calque_1-2"><g class="cls-7"><g><path class="cls-4" d="M1717.59,812.57h13.4"/><path class="cls-4" d="M1724.29,805.87v13.4"/><path class="cls-4" d="M1717.59,783.59h13.4"/><path class="cls-4" d="M1724.29,776.89v13.41"/><path class="cls-4" d="M1079.07,168.14v13.4"/><path class="cls-4" d="M1085.77,174.84h-13.39"/><path class="cls-1" d="M624.68,418.11v13.4"/><path class="cls-1" d="M631.38,424.81h-13.4"/><path class="cls-3" d="M526.59,679.25v13.4"/><path class="cls-3" d="M533.29,685.95h-13.4"/><path class="cls-3" d="M933.25,524.17v13.4"/><path class="cls-3" d="M939.95,530.87h-13.4"/><path class="cls-3" d="M1202.89,362.74v13.4"/><path class="cls-3" d="M1209.59,369.44h-13.4"/><path class="cls-3" d="M1561.4,92.13v13.4"/><path class="cls-3" d="M1568.1,98.83h-13.4"/><path class="cls-3" d="M408.93,327.2v13.4"/><path class="cls-3" d="M415.63,333.9h-13.4"/><path class="cls-2" d="M617.98,125.53v13.4"/><path class="cls-2" d="M624.68,132.23h-13.4"/><path class="cls-3" d="M220.11,284v13.4"/><path class="cls-3" d="M226.81,290.7h-13.4"/><path class="cls-1" d="M93.8,225.62h-13.4"/><path class="cls-1" d="M87.11,232.33v-13.4"/><path class="cls-1" d="M93.8,254.6h-13.4"/><path class="cls-1" d="M87.11,261.3v-13.4"/><path class="cls-1" d="M93.8,283.57h-13.4"/><path class="cls-1" d="M87.11,290.27v-13.4"/><path class="cls-8" d="M395.92,522.46c0,.45-.13,.89-.38,1.26-.25,.38-.61,.67-1.02,.84-.41,.17-.87,.22-1.31,.13-.44-.09-.85-.3-1.16-.62-.32-.32-.53-.72-.62-1.16-.09-.45-.04-.9,.13-1.32,.17-.41,.46-.77,.84-1.02,.37-.25,.81-.38,1.26-.38,.3,0,.59,.06,.87,.17,.28,.12,.53,.28,.74,.5,.21,.21,.38,.46,.49,.73,.11,.28,.17,.57,.17,.87Z"/><path class="cls-8" d="M411.34,522.46c0,.45-.13,.89-.38,1.26-.25,.38-.6,.67-1.02,.84-.41,.17-.87,.22-1.31,.13-.44-.09-.85-.3-1.16-.62-.32-.32-.53-.72-.62-1.16-.09-.45-.04-.9,.13-1.32,.17-.41,.46-.77,.84-1.02,.37-.25,.81-.38,1.26-.38,.3,0,.59,.06,.87,.17,.28,.12,.53,.28,.74,.5,.21,.21,.38,.46,.49,.73,.11,.28,.17,.57,.17,.87Z"/><path class="cls-8" d="M426.77,522.46c0,.45-.13,.89-.38,1.26-.25,.38-.6,.67-1.02,.84-.42,.17-.87,.22-1.31,.13-.44-.09-.84-.3-1.16-.62-.32-.32-.53-.72-.62-1.16-.09-.45-.04-.9,.13-1.32,.17-.41,.46-.77,.84-1.02,.37-.25,.81-.38,1.26-.38,.3,0,.59,.06,.87,.17,.28,.12,.53,.28,.74,.5,.21,.21,.38,.46,.49,.73,.11,.28,.17,.57,.17,.87Z"/><path class="cls-8" d="M395.92,537.89c0,.45-.13,.89-.38,1.26-.25,.37-.6,.67-1.02,.84-.41,.17-.87,.22-1.31,.13-.44-.09-.85-.31-1.16-.62-.32-.32-.53-.73-.62-1.17-.09-.44-.04-.9,.13-1.31,.17-.42,.46-.77,.84-1.02,.37-.25,.81-.38,1.26-.38,.6,0,1.18,.24,1.61,.66,.42,.43,.66,1.01,.66,1.61Z"/><path class="cls-8" d="M411.34,537.89c0,.45-.13,.89-.38,1.26-.25,.37-.6,.67-1.02,.84-.42,.17-.87,.22-1.31,.13-.44-.09-.85-.31-1.16-.62-.32-.32-.54-.73-.62-1.17-.09-.44-.04-.9,.13-1.31,.17-.42,.46-.77,.84-1.02,.37-.25,.81-.38,1.26-.38,.6,0,1.18,.24,1.61,.66,.43,.43,.67,1.01,.67,1.61Z"/><path class="cls-8" d="M426.77,537.89c0,.45-.13,.89-.38,1.26-.25,.37-.6,.67-1.02,.84-.42,.17-.87,.22-1.31,.13-.44-.09-.85-.31-1.16-.62-.32-.32-.53-.73-.62-1.17-.09-.44-.04-.9,.13-1.31,.17-.42,.46-.77,.84-1.02,.37-.25,.81-.38,1.26-.38,.3,0,.59,.05,.87,.17,.28,.11,.53,.28,.74,.49,.21,.21,.38,.46,.49,.74,.11,.27,.17,.57,.17,.87Z"/><path class="cls-8" d="M395.92,553.31c0,.45-.13,.89-.38,1.27-.25,.37-.6,.66-1.02,.83-.41,.18-.87,.22-1.31,.13-.44-.08-.85-.3-1.16-.62-.32-.32-.53-.72-.62-1.16-.09-.44-.04-.9,.13-1.31,.17-.42,.46-.77,.84-1.02,.37-.25,.81-.39,1.26-.39,.6,0,1.18,.24,1.61,.67,.42,.42,.66,1,.66,1.6Z"/><path class="cls-8" d="M411.34,553.31c0,.45-.13,.89-.38,1.27-.25,.37-.6,.66-1.02,.83-.42,.18-.87,.22-1.31,.13-.44-.08-.85-.3-1.16-.62-.32-.32-.54-.72-.62-1.16-.09-.44-.04-.9,.13-1.31,.17-.42,.46-.77,.84-1.02,.37-.25,.81-.39,1.26-.39,.6,0,1.18,.24,1.61,.67,.43,.42,.67,1,.67,1.6Z"/><path class="cls-8" d="M426.77,553.31c0,.45-.13,.89-.38,1.27-.25,.37-.6,.66-1.02,.83-.42,.18-.87,.22-1.31,.13-.44-.08-.85-.3-1.16-.62-.32-.32-.53-.72-.62-1.16-.09-.44-.04-.9,.13-1.31,.17-.42,.46-.77,.84-1.02,.37-.25,.81-.39,1.26-.39,.3,0,.59,.06,.87,.18,.28,.11,.53,.28,.74,.49,.21,.21,.38,.46,.49,.73,.11,.28,.17,.58,.17,.87Z"/><path class="cls-8" d="M91.69,43.91c0,.44-.13,.88-.38,1.25-.25,.37-.6,.66-1.01,.83-.41,.17-.86,.21-1.3,.13-.44-.09-.84-.31-1.15-.62-.31-.32-.53-.72-.62-1.15-.09-.44-.04-.89,.13-1.3,.17-.42,.46-.77,.83-1.02,.37-.24,.81-.38,1.25-.38,.3,0,.59,.06,.86,.18,.27,.11,.52,.27,.73,.48,.21,.21,.38,.46,.49,.74,.11,.27,.17,.56,.17,.86Z"/><path class="cls-8" d="M104.74,46.16c1.25,0,2.25-1.01,2.25-2.25s-1.01-2.26-2.25-2.26-2.25,1.01-2.25,2.26,1.01,2.25,2.25,2.25Z"/><path class="cls-8" d="M122.29,43.91c0,.44-.13,.88-.38,1.25-.25,.37-.6,.66-1.01,.83-.41,.17-.86,.22-1.3,.13-.44-.09-.84-.3-1.15-.62-.32-.31-.53-.72-.62-1.15-.09-.44-.04-.89,.13-1.3,.17-.42,.46-.77,.83-1.02,.37-.24,.81-.38,1.25-.38,.6,0,1.17,.24,1.59,.66,.42,.43,.66,1,.66,1.6Z"/><path class="cls-8" d="M137.59,43.91c0,.44-.13,.88-.38,1.25-.25,.37-.6,.66-1.01,.83-.41,.17-.87,.22-1.3,.13-.44-.09-.84-.3-1.15-.62-.32-.31-.53-.72-.62-1.15-.09-.44-.04-.89,.13-1.3,.17-.42,.46-.77,.83-1.02,.37-.24,.81-.38,1.25-.38,.3,0,.59,.06,.86,.18,.27,.11,.52,.27,.73,.48,.21,.21,.38,.46,.49,.74,.11,.27,.17,.56,.17,.86Z"/><path class="cls-8" d="M150.63,46.16c1.25,0,2.25-1.01,2.25-2.25s-1.01-2.26-2.25-2.26-2.25,1.01-2.25,2.26,1.01,2.25,2.25,2.25Z"/><path class="cls-8" d="M168.18,43.91c0,.44-.13,.88-.38,1.25-.25,.37-.6,.66-1.01,.83-.41,.17-.87,.22-1.3,.13-.44-.09-.84-.3-1.15-.62-.32-.31-.53-.72-.62-1.15-.09-.44-.04-.89,.13-1.3,.17-.42,.46-.77,.83-1.02,.37-.24,.81-.38,1.25-.38,.3,0,.59,.06,.86,.18,.27,.11,.52,.27,.73,.48,.21,.21,.38,.46,.49,.74,.11,.27,.17,.56,.17,.86Z"/><path class="cls-8" d="M183.48,43.91c0,.44-.13,.88-.38,1.25-.25,.37-.6,.66-1.01,.83-.41,.17-.87,.22-1.3,.13s-.84-.3-1.15-.62c-.32-.31-.53-.72-.62-1.15-.09-.44-.04-.89,.13-1.3,.17-.42,.46-.77,.83-1.02,.37-.24,.81-.38,1.25-.38,.3,0,.59,.06,.86,.18,.27,.11,.52,.27,.73,.48,.21,.21,.38,.46,.49,.74,.11,.27,.17,.56,.17,.86Z"/><path class="cls-8" d="M91.69,59.21c0,.45-.13,.88-.38,1.25-.25,.37-.6,.66-1.01,.83-.41,.17-.86,.22-1.3,.13-.44-.09-.84-.3-1.15-.62-.31-.31-.53-.71-.62-1.15-.09-.44-.04-.89,.13-1.3,.17-.41,.46-.77,.83-1.01,.37-.25,.81-.38,1.25-.38,.6,0,1.17,.23,1.59,.66,.42,.42,.66,.99,.66,1.59Z"/><path class="cls-8" d="M106.99,59.21c0,.45-.13,.88-.38,1.25-.25,.37-.6,.66-1.01,.83-.41,.17-.87,.22-1.3,.13-.44-.09-.84-.3-1.15-.62-.32-.31-.53-.71-.62-1.15-.09-.44-.04-.89,.13-1.3,.17-.41,.46-.77,.83-1.01,.37-.25,.81-.38,1.25-.38,.6,0,1.17,.23,1.59,.66,.42,.42,.66,.99,.66,1.59Z"/><path class="cls-8" d="M122.29,59.21c0,.45-.13,.88-.38,1.25-.25,.37-.6,.66-1.01,.83-.41,.17-.86,.22-1.3,.13-.44-.09-.84-.3-1.15-.62-.32-.31-.53-.71-.62-1.15-.09-.44-.04-.89,.13-1.3,.17-.41,.46-.77,.83-1.01,.37-.25,.81-.38,1.25-.38,.6,0,1.17,.23,1.59,.66,.42,.42,.66,.99,.66,1.59Z"/><path class="cls-8" d="M137.59,59.21c0,.45-.13,.88-.38,1.25-.25,.37-.6,.66-1.01,.83-.41,.17-.87,.22-1.3,.13-.44-.09-.84-.3-1.15-.62-.32-.31-.53-.71-.62-1.15-.09-.44-.04-.89,.13-1.3,.17-.41,.46-.77,.83-1.01,.37-.25,.81-.38,1.25-.38,.6,0,1.17,.23,1.59,.66,.42,.42,.66,.99,.66,1.59Z"/><path class="cls-8" d="M152.88,59.21c0,.45-.13,.88-.38,1.25s-.6,.66-1.01,.83c-.41,.17-.87,.22-1.3,.13-.44-.09-.84-.3-1.15-.62-.32-.31-.53-.71-.62-1.15-.09-.44-.04-.89,.13-1.3,.17-.42,.46-.77,.83-1.01,.37-.25,.81-.38,1.25-.38,.6,0,1.17,.23,1.59,.66,.42,.42,.66,.99,.66,1.59Z"/><path class="cls-8" d="M168.18,59.21c0,.45-.13,.88-.38,1.25-.25,.37-.6,.66-1.01,.83-.41,.17-.87,.22-1.3,.13-.44-.09-.84-.3-1.15-.62-.32-.31-.53-.71-.62-1.15-.09-.44-.04-.89,.13-1.3,.17-.41,.46-.77,.83-1.01,.37-.25,.81-.38,1.25-.38,.6,0,1.17,.23,1.59,.66,.42,.42,.66,.99,.66,1.59Z"/><path class="cls-8" d="M183.48,59.21c0,.45-.13,.88-.38,1.25-.25,.37-.6,.66-1.01,.83-.41,.17-.87,.22-1.3,.13-.44-.09-.84-.3-1.15-.62-.32-.31-.53-.71-.62-1.15-.09-.44-.04-.89,.13-1.3,.17-.41,.46-.77,.83-1.01,.37-.25,.81-.38,1.25-.38,.6,0,1.17,.23,1.59,.66,.42,.42,.66,.99,.66,1.59Z"/><path class="cls-8" d="M91.69,74.51c0,.45-.13,.88-.38,1.25s-.6,.66-1.01,.83c-.41,.17-.86,.21-1.3,.13-.44-.09-.84-.31-1.15-.62-.31-.32-.53-.72-.62-1.16-.09-.43-.04-.88,.13-1.3,.17-.41,.46-.76,.83-1.01,.37-.24,.81-.38,1.25-.38,.3,0,.59,.06,.86,.18,.27,.11,.52,.28,.73,.49,.21,.21,.38,.45,.49,.73,.11,.27,.17,.57,.17,.86Z"/><path class="cls-8" d="M106.99,74.51c0,.45-.13,.88-.38,1.25s-.6,.66-1.01,.83c-.41,.17-.86,.22-1.3,.13-.44-.09-.84-.3-1.15-.62-.31-.32-.53-.72-.61-1.15-.09-.44-.04-.89,.13-1.31,.17-.41,.46-.76,.83-1.01,.37-.24,.81-.38,1.25-.38,.3,0,.59,.06,.86,.18,.27,.11,.52,.28,.73,.49,.21,.21,.38,.45,.49,.73,.11,.27,.17,.57,.17,.86Z"/><path class="cls-8" d="M122.29,74.51c0,.45-.13,.88-.38,1.25-.25,.37-.6,.66-1.01,.83-.41,.17-.86,.22-1.3,.13-.44-.09-.84-.31-1.15-.62-.31-.32-.53-.72-.61-1.16-.09-.43-.04-.89,.13-1.3,.17-.41,.46-.76,.83-1.01,.37-.25,.81-.38,1.25-.38,.3,0,.59,.06,.86,.18,.27,.11,.52,.28,.73,.49,.21,.21,.37,.46,.49,.73,.11,.27,.17,.57,.17,.86Z"/><path class="cls-8" d="M137.59,74.51c0,.45-.13,.88-.38,1.25-.25,.37-.6,.66-1.01,.83-.41,.17-.86,.22-1.3,.13-.44-.09-.84-.3-1.15-.62-.32-.32-.53-.72-.62-1.15-.09-.44-.04-.89,.13-1.31,.17-.41,.46-.76,.83-1.01,.37-.24,.81-.38,1.25-.38,.3,0,.59,.06,.86,.18,.27,.11,.52,.28,.73,.49,.21,.21,.38,.45,.49,.73,.11,.27,.17,.57,.17,.86Z"/><path class="cls-8" d="M152.88,74.51c0,.45-.13,.88-.38,1.25-.25,.37-.6,.66-1.01,.83-.41,.17-.87,.22-1.3,.13-.44-.09-.84-.3-1.15-.62-.31-.32-.53-.72-.61-1.15-.09-.44-.04-.9,.13-1.31,.17-.41,.46-.76,.83-1.01,.37-.24,.81-.38,1.25-.38,.3,0,.59,.06,.86,.18,.27,.11,.52,.28,.73,.49,.21,.21,.38,.45,.49,.73,.11,.27,.17,.57,.17,.86Z"/><path class="cls-8" d="M168.18,74.51c0,.45-.13,.88-.38,1.25-.25,.38-.6,.66-1.01,.83-.41,.18-.87,.22-1.3,.13-.44-.08-.84-.3-1.15-.61-.32-.32-.53-.72-.62-1.16-.09-.44-.04-.89,.13-1.3,.17-.41,.46-.76,.83-1.01,.37-.25,.81-.38,1.25-.38,.6,0,1.17,.24,1.59,.66,.42,.42,.66,.99,.66,1.59Z"/><path class="cls-8" d="M183.48,74.51c0,.45-.13,.88-.38,1.25-.25,.38-.6,.66-1.01,.83-.41,.18-.87,.22-1.3,.13-.44-.08-.84-.3-1.15-.61-.32-.32-.53-.72-.62-1.16-.09-.44-.04-.89,.13-1.3,.17-.41,.46-.76,.83-1.01,.37-.25,.81-.38,1.25-.38,.6,0,1.17,.24,1.59,.66,.42,.42,.66,.99,.66,1.59Z"/><path class="cls-8" d="M91.69,89.81c0,.45-.13,.89-.38,1.26-.25,.37-.6,.65-1.01,.83-.41,.16-.86,.21-1.3,.12-.44-.08-.84-.3-1.15-.61-.31-.32-.53-.72-.62-1.16-.09-.43-.04-.89,.13-1.3,.17-.41,.46-.76,.83-1.01s.81-.38,1.25-.38c.3,0,.59,.06,.86,.17,.27,.11,.52,.28,.73,.49,.21,.21,.38,.46,.49,.73,.11,.28,.17,.57,.17,.86Z"/><path class="cls-8" d="M106.99,89.81c0,.45-.13,.89-.38,1.26-.25,.37-.6,.66-1.01,.83-.41,.17-.87,.21-1.3,.13-.44-.09-.84-.31-1.15-.62-.32-.32-.53-.72-.62-1.16-.09-.43-.04-.89,.13-1.3,.17-.41,.46-.76,.83-1.01,.37-.25,.81-.38,1.25-.38,.6,0,1.17,.24,1.59,.66,.42,.42,.66,1,.66,1.59Z"/><path class="cls-8" d="M122.29,89.81c0,.45-.13,.89-.38,1.26-.25,.37-.6,.66-1.01,.83-.41,.17-.86,.21-1.3,.13-.44-.09-.84-.31-1.15-.62-.32-.32-.53-.72-.62-1.16-.09-.43-.04-.89,.13-1.3,.17-.41,.46-.76,.83-1.01,.37-.25,.81-.38,1.25-.38,.6,0,1.17,.24,1.59,.66,.42,.42,.66,1,.66,1.59Z"/><path class="cls-8" d="M137.59,89.81c0,.45-.13,.89-.38,1.26-.25,.37-.6,.66-1.01,.83-.41,.17-.87,.21-1.3,.13-.44-.09-.84-.31-1.15-.62-.32-.32-.53-.72-.62-1.16-.09-.43-.04-.89,.13-1.3,.17-.41,.46-.76,.83-1.01,.37-.25,.81-.38,1.25-.38,.3,0,.59,.06,.86,.17,.27,.12,.52,.28,.73,.49,.21,.21,.38,.46,.49,.73,.11,.28,.17,.57,.17,.86Z"/><path class="cls-8" d="M152.88,89.81c0,.45-.13,.89-.38,1.26s-.6,.66-1.01,.83c-.41,.17-.87,.21-1.3,.13-.44-.09-.84-.31-1.15-.62-.32-.32-.53-.72-.62-1.16-.09-.43-.04-.89,.13-1.3,.17-.41,.46-.76,.83-1.01,.37-.25,.81-.38,1.25-.38,.29,0,.59,.06,.86,.17,.27,.12,.52,.28,.73,.49,.21,.21,.38,.46,.49,.73,.11,.28,.17,.57,.17,.86Z"/><path class="cls-8" d="M168.18,89.81c0,.45-.13,.89-.38,1.26-.25,.37-.6,.66-1.01,.83-.41,.17-.87,.21-1.3,.13-.44-.09-.84-.31-1.15-.62-.32-.32-.53-.72-.62-1.16-.09-.43-.04-.89,.13-1.3,.17-.41,.46-.76,.83-1.01,.37-.25,.81-.38,1.25-.38,.3,0,.59,.06,.86,.17,.27,.11,.52,.28,.73,.49,.21,.21,.38,.46,.49,.73,.11,.28,.17,.57,.17,.86Z"/><path class="cls-8" d="M183.48,89.81c0,.45-.13,.89-.38,1.26-.25,.37-.6,.66-1.01,.83-.41,.17-.87,.21-1.3,.13-.44-.09-.84-.31-1.15-.62-.32-.32-.53-.72-.62-1.16-.09-.43-.04-.89,.13-1.3,.17-.41,.46-.76,.83-1.01,.37-.25,.81-.38,1.25-.38,.3,0,.59,.06,.86,.17,.27,.11,.52,.28,.73,.49,.21,.21,.38,.46,.49,.73,.11,.28,.17,.57,.17,.86Z"/><path class="cls-8" d="M91.69,105.12c0,.44-.13,.88-.38,1.25s-.6,.66-1.01,.83c-.41,.17-.86,.21-1.3,.12-.44-.08-.84-.3-1.15-.61-.32-.32-.53-.72-.62-1.15-.09-.44-.04-.89,.13-1.31,.17-.41,.46-.76,.83-1.01,.37-.25,.81-.38,1.25-.38,.3,0,.59,.06,.86,.17,.27,.12,.52,.28,.73,.49,.21,.21,.38,.46,.49,.73,.11,.28,.17,.57,.17,.87Z"/><path class="cls-8" d="M104.74,107.37c1.25,0,2.25-1.01,2.25-2.25s-1.01-2.26-2.25-2.26-2.25,1.01-2.25,2.26,1.01,2.25,2.25,2.25Z"/><path class="cls-8" d="M122.29,105.12c0,.44-.13,.88-.38,1.25-.25,.37-.6,.66-1.01,.83-.41,.17-.87,.21-1.3,.13-.44-.09-.84-.3-1.15-.62-.32-.31-.53-.72-.62-1.15-.09-.44-.04-.89,.13-1.31,.17-.41,.46-.76,.83-1.01,.37-.25,.81-.38,1.25-.38,.6,0,1.17,.24,1.59,.66,.42,.42,.66,1,.66,1.6Z"/><path class="cls-8" d="M137.59,105.12c0,.44-.13,.88-.38,1.25-.25,.37-.6,.66-1.01,.83-.41,.17-.87,.21-1.3,.13-.44-.09-.84-.3-1.15-.62-.32-.31-.53-.72-.62-1.15-.09-.44-.04-.89,.13-1.31,.17-.41,.46-.76,.83-1.01,.37-.25,.81-.38,1.25-.38,.6,0,1.17,.24,1.59,.66,.42,.42,.66,1,.66,1.6Z"/><path class="cls-8" d="M150.63,107.37c1.25,0,2.25-1.01,2.25-2.25s-1.01-2.26-2.25-2.26-2.25,1.01-2.25,2.26,1.01,2.25,2.25,2.25Z"/><path class="cls-8" d="M168.18,105.12c0,.44-.13,.88-.38,1.25-.25,.37-.6,.66-1.01,.83-.41,.17-.87,.21-1.3,.13-.44-.09-.84-.3-1.15-.62-.32-.31-.53-.72-.62-1.15-.09-.44-.04-.89,.13-1.31,.17-.41,.46-.76,.83-1.01,.37-.25,.81-.38,1.25-.38,.3,0,.59,.06,.86,.17,.27,.12,.52,.28,.73,.49s.38,.46,.49,.73c.11,.28,.17,.57,.17,.87Z"/><path class="cls-8" d="M183.48,105.12c0,.44-.13,.88-.38,1.25-.25,.37-.6,.66-1.01,.83-.41,.17-.86,.21-1.3,.13-.44-.09-.84-.3-1.15-.62-.32-.31-.53-.72-.62-1.15-.09-.44-.04-.89,.13-1.31,.17-.41,.46-.76,.83-1.01,.37-.25,.81-.38,1.25-.38,.29,0,.59,.06,.86,.17,.27,.12,.52,.28,.73,.49,.21,.21,.37,.46,.49,.73,.11,.28,.17,.57,.17,.87Z"/><path class="cls-8" d="M1307,300.38c0,.39-.12,.78-.34,1.12-.22,.33-.53,.59-.9,.74s-.78,.19-1.16,.11c-.4-.07-.76-.27-1.04-.55s-.48-.64-.55-1.03c-.08-.39-.04-.8,.11-1.17,.16-.36,.41-.68,.75-.9,.33-.22,.72-.34,1.11-.34,.54,0,1.05,.21,1.43,.59s.59,.89,.59,1.43Z"/><path class="cls-8" d="M1318.67,302.39c1.12,0,2.02-.9,2.02-2.01s-.9-2.02-2.02-2.02-2.01,.9-2.01,2.02,.9,2.01,2.01,2.01Z"/><path class="cls-8" d="M1334.38,300.38c0,.39-.12,.78-.34,1.12-.23,.33-.54,.59-.9,.74-.37,.15-.78,.19-1.17,.11-.39-.07-.75-.27-1.03-.55-.28-.28-.48-.64-.56-1.03-.07-.39-.03-.8,.12-1.17,.16-.37,.41-.68,.75-.9,.33-.22,.71-.34,1.11-.34,.27,0,.53,.05,.78,.15,.24,.1,.46,.25,.64,.44,.2,.19,.34,.41,.45,.65,.1,.25,.15,.51,.15,.78Z"/><path class="cls-8" d="M1348.06,300.38c0,.39-.11,.78-.34,1.12-.22,.33-.53,.59-.9,.74-.36,.15-.77,.19-1.16,.11-.4-.07-.75-.27-1.03-.55-.29-.28-.48-.64-.56-1.03-.07-.39-.04-.8,.12-1.17,.15-.36,.41-.68,.74-.9,.33-.22,.72-.34,1.12-.34,.27,0,.53,.05,.77,.15,.25,.1,.47,.25,.66,.44s.33,.41,.44,.65c.1,.25,.14,.51,.14,.78Z"/><path class="cls-8" d="M1359.74,302.39c1.11,0,2.02-.9,2.02-2.01s-.91-2.02-2.02-2.02-2.02,.9-2.02,2.02,.9,2.01,2.02,2.01Z"/><path class="cls-8" d="M1375.45,300.38c0,.39-.13,.78-.34,1.12-.22,.33-.54,.59-.91,.74s-.77,.19-1.16,.11c-.4-.07-.76-.27-1.04-.55-.28-.28-.47-.64-.55-1.03-.08-.39-.04-.8,.12-1.17,.15-.36,.41-.68,.74-.9,.33-.22,.72-.34,1.12-.34,.54,0,1.05,.21,1.43,.59s.59,.89,.59,1.43Z"/><path class="cls-8" d="M1389.14,300.38c0,.39-.13,.78-.34,1.12-.22,.33-.54,.59-.91,.74s-.78,.19-1.16,.11c-.39-.07-.76-.27-1.04-.55-.28-.28-.47-.64-.55-1.03s-.04-.8,.11-1.17c.16-.36,.42-.68,.75-.9,.33-.22,.72-.34,1.12-.34,.54,0,1.05,.21,1.43,.59s.59,.89,.59,1.43Z"/><path class="cls-8" d="M1320.69,314.07c0,.4-.12,.79-.34,1.12-.22,.33-.53,.59-.9,.74-.37,.15-.78,.19-1.17,.12-.39-.08-.75-.27-1.03-.56-.28-.28-.48-.64-.55-1.03-.08-.39-.04-.8,.11-1.16,.16-.37,.41-.69,.75-.91,.33-.22,.71-.34,1.11-.34,.53,0,1.05,.21,1.43,.59,.37,.38,.59,.89,.59,1.43Z"/><path class="cls-8" d="M1334.38,314.07c0,.4-.12,.79-.34,1.12-.23,.33-.54,.59-.9,.74-.37,.15-.78,.19-1.17,.12-.39-.08-.75-.27-1.03-.56-.28-.28-.48-.64-.56-1.03-.07-.39-.03-.8,.12-1.16,.16-.37,.41-.69,.75-.91,.33-.22,.71-.34,1.11-.34,.54,0,1.05,.21,1.42,.59,.38,.38,.6,.89,.6,1.43Z"/><path class="cls-8" d="M1348.06,314.07c0,.4-.11,.79-.34,1.12-.22,.33-.53,.59-.9,.74-.36,.15-.77,.19-1.16,.12-.4-.08-.75-.27-1.03-.56-.29-.28-.48-.64-.56-1.03-.07-.39-.04-.8,.12-1.16,.15-.37,.41-.69,.74-.91,.33-.22,.72-.34,1.12-.34,.53,0,1.05,.21,1.42,.59,.39,.38,.59,.89,.59,1.43Z"/><path class="cls-8" d="M1361.76,314.07c0,.4-.12,.79-.35,1.12-.21,.33-.53,.59-.9,.74-.37,.15-.77,.19-1.16,.12-.4-.08-.76-.27-1.04-.56-.28-.28-.47-.64-.55-1.03s-.04-.8,.12-1.16c.15-.37,.41-.69,.74-.91s.72-.34,1.12-.34c.54,0,1.05,.21,1.43,.59s.59,.89,.59,1.43Z"/><path class="cls-8" d="M1375.45,314.07c0,.4-.13,.79-.34,1.12-.22,.33-.54,.59-.91,.74-.37,.15-.77,.19-1.16,.12-.4-.08-.76-.27-1.04-.56-.28-.28-.47-.64-.55-1.03-.08-.39-.04-.8,.12-1.16,.15-.37,.41-.69,.74-.91,.33-.22,.72-.34,1.12-.34,.54,0,1.05,.21,1.43,.59s.59,.89,.59,1.43Z"/><path class="cls-8" d="M1389.14,314.07c0,.4-.13,.79-.34,1.12-.22,.33-.54,.59-.91,.74-.37,.15-.78,.19-1.16,.12-.39-.08-.76-.27-1.04-.56-.28-.28-.47-.64-.55-1.03s-.04-.8,.11-1.16c.16-.37,.42-.69,.75-.91s.72-.34,1.12-.34c.54,0,1.05,.21,1.43,.59s.59,.89,.59,1.43Z"/><path class="cls-8" d="M1402.83,314.07c0,.4-.13,.79-.34,1.12-.22,.33-.54,.59-.91,.74-.37,.15-.78,.19-1.16,.12-.39-.08-.76-.27-1.04-.56-.28-.28-.48-.64-.55-1.03-.08-.39-.03-.8,.11-1.16,.16-.37,.42-.69,.75-.91,.33-.22,.72-.34,1.12-.34,.54,0,1.05,.21,1.43,.59,.37,.38,.59,.89,.59,1.43Z"/><path class="cls-6" d="M8.61,742.88c.77,0,1.4-.63,1.4-1.4s-.62-1.4-1.4-1.4-1.4,.63-1.4,1.4,.62,1.4,1.4,1.4Z"/><path class="cls-6" d="M26.81,742.88c.77,0,1.4-.63,1.4-1.4s-.62-1.4-1.4-1.4-1.4,.63-1.4,1.4,.62,1.4,1.4,1.4Z"/><path class="cls-6" d="M8.61,760.92c.77,0,1.4-.62,1.4-1.39s-.62-1.4-1.4-1.4-1.4,.62-1.4,1.4,.62,1.39,1.4,1.39Z"/><path class="cls-6" d="M26.81,760.92c.77,0,1.4-.62,1.4-1.39s-.62-1.4-1.4-1.4-1.4,.62-1.4,1.4,.62,1.39,1.4,1.39Z"/><path class="cls-6" d="M10.01,777.57c0,.28-.08,.55-.24,.78-.15,.23-.37,.41-.63,.51-.25,.11-.54,.13-.81,.08-.27-.05-.52-.19-.71-.38-.2-.2-.33-.45-.38-.72-.05-.27-.03-.55,.08-.8,.11-.26,.28-.48,.51-.63,.23-.15,.5-.23,.78-.23,.37,0,.72,.14,.99,.4,.26,.27,.41,.62,.41,.99Z"/><path class="cls-6" d="M28.2,777.57c0,.28-.08,.55-.24,.78-.15,.23-.37,.41-.63,.51-.25,.11-.54,.13-.81,.08-.27-.05-.52-.19-.71-.38-.2-.2-.33-.45-.38-.72-.05-.27-.03-.55,.08-.8,.11-.26,.28-.48,.51-.63,.23-.15,.5-.23,.78-.23,.18,0,.36,.03,.53,.1,.17,.07,.32,.17,.45,.3,.13,.13,.23,.29,.3,.46,.07,.17,.11,.35,.11,.53Z"/><path class="cls-6" d="M10.01,795.62c0,.27-.08,.54-.24,.77-.15,.23-.37,.41-.63,.52-.25,.1-.54,.13-.81,.08-.27-.06-.52-.19-.71-.39-.2-.19-.33-.44-.38-.71-.05-.27-.03-.55,.08-.81,.11-.25,.28-.47,.51-.62,.23-.16,.5-.24,.77-.24,.37,0,.72,.15,.99,.41,.26,.26,.41,.62,.41,.99Z"/><path class="cls-6" d="M28.2,795.62c0,.27-.08,.54-.24,.77-.15,.23-.37,.41-.63,.52-.26,.1-.54,.13-.81,.08-.27-.06-.52-.19-.71-.39-.19-.19-.33-.44-.38-.71-.05-.27-.03-.55,.08-.81,.11-.25,.28-.47,.51-.62,.23-.16,.5-.24,.77-.24,.18,0,.36,.04,.53,.11,.17,.07,.32,.17,.45,.3,.13,.13,.23,.29,.3,.45,.07,.17,.11,.36,.11,.54Z"/><path class="cls-6" d="M42.83,742.88c.77,0,1.39-.63,1.39-1.4s-.62-1.4-1.39-1.4-1.4,.63-1.4,1.4,.62,1.4,1.4,1.4Z"/><path class="cls-6" d="M61.03,742.88c.77,0,1.4-.63,1.4-1.4s-.62-1.4-1.4-1.4-1.4,.63-1.4,1.4,.62,1.4,1.4,1.4Z"/><path class="cls-6" d="M79.22,742.88c.77,0,1.39-.63,1.39-1.4s-.62-1.4-1.39-1.4-1.4,.63-1.4,1.4,.62,1.4,1.4,1.4Z"/><path class="cls-6" d="M97.42,742.88c.77,0,1.4-.63,1.4-1.4s-.62-1.4-1.4-1.4-1.4,.63-1.4,1.4,.62,1.4,1.4,1.4Z"/><path class="cls-6" d="M42.83,760.92c.77,0,1.39-.62,1.39-1.39s-.62-1.4-1.39-1.4-1.4,.62-1.4,1.4,.62,1.39,1.4,1.39Z"/><path class="cls-6" d="M61.03,760.92c.77,0,1.4-.62,1.4-1.39s-.62-1.4-1.4-1.4-1.4,.62-1.4,1.4,.62,1.39,1.4,1.39Z"/><path class="cls-6" d="M79.22,760.92c.77,0,1.39-.62,1.39-1.39s-.62-1.4-1.39-1.4-1.4,.62-1.4,1.4,.62,1.39,1.4,1.39Z"/><path class="cls-6" d="M97.42,760.92c.77,0,1.4-.62,1.4-1.39s-.62-1.4-1.4-1.4-1.4,.62-1.4,1.4,.62,1.39,1.4,1.39Z"/><path class="cls-6" d="M44.22,777.57c0,.28-.08,.55-.24,.78-.15,.23-.37,.41-.63,.51-.25,.11-.54,.13-.81,.08-.27-.05-.52-.19-.71-.38-.2-.2-.33-.45-.38-.72-.05-.27-.03-.55,.08-.8,.11-.26,.28-.48,.51-.63s.5-.23,.78-.23c.37,0,.72,.14,.99,.4,.26,.27,.41,.62,.41,.99Z"/><path class="cls-6" d="M62.42,777.57c0,.28-.08,.55-.24,.78-.15,.23-.37,.41-.63,.51-.25,.11-.54,.13-.81,.08-.27-.05-.52-.19-.71-.38-.2-.2-.33-.45-.38-.72-.05-.27-.03-.55,.08-.8,.11-.26,.28-.48,.51-.63s.5-.23,.78-.23c.37,0,.72,.14,.99,.4,.26,.27,.41,.62,.41,.99Z"/><path class="cls-6" d="M80.62,777.57c0,.28-.08,.55-.24,.78-.15,.23-.37,.41-.63,.51-.26,.11-.54,.13-.81,.08-.27-.05-.52-.19-.71-.38-.2-.2-.33-.45-.38-.72-.05-.27-.03-.55,.08-.8,.11-.26,.28-.48,.51-.63,.23-.15,.5-.23,.78-.23,.37,0,.72,.14,.99,.4,.26,.27,.41,.62,.41,.99Z"/><path class="cls-6" d="M98.81,777.57c0,.28-.08,.55-.23,.78-.15,.23-.37,.41-.63,.51-.25,.11-.53,.13-.81,.08-.27-.05-.52-.19-.71-.38-.19-.2-.33-.45-.38-.72-.05-.27-.03-.55,.08-.8,.11-.26,.28-.48,.51-.63,.23-.15,.5-.23,.77-.23,.18,0,.37,.03,.53,.1,.17,.07,.32,.17,.45,.3,.13,.13,.23,.29,.3,.46,.07,.17,.11,.35,.11,.53Z"/><path class="cls-6" d="M44.22,795.62c0,.27-.08,.54-.24,.77-.15,.23-.37,.41-.63,.52-.26,.1-.54,.13-.81,.08-.27-.06-.52-.19-.71-.39-.19-.19-.33-.44-.38-.71-.05-.27-.03-.55,.08-.81,.11-.25,.28-.47,.51-.62,.23-.16,.5-.24,.78-.24,.18,0,.36,.04,.53,.11,.17,.07,.32,.17,.45,.3,.13,.13,.23,.29,.3,.45,.07,.17,.11,.36,.11,.54Z"/><path class="cls-6" d="M62.42,795.62c0,.27-.08,.54-.24,.77-.15,.23-.37,.41-.63,.52-.25,.1-.54,.13-.81,.08-.27-.06-.52-.19-.71-.39-.2-.19-.33-.44-.38-.71-.05-.27-.03-.55,.08-.81,.11-.25,.28-.47,.51-.62,.23-.16,.5-.24,.78-.24,.18,0,.36,.04,.53,.11,.17,.07,.32,.17,.45,.3,.13,.13,.23,.29,.3,.45,.07,.17,.11,.36,.11,.54Z"/><path class="cls-6" d="M80.62,795.62c0,.27-.08,.54-.24,.77-.15,.23-.37,.41-.63,.52-.25,.1-.54,.13-.81,.08-.27-.06-.52-.19-.71-.39-.19-.19-.33-.44-.38-.71-.05-.27-.03-.55,.08-.81,.11-.25,.28-.47,.51-.62,.23-.16,.5-.24,.78-.24,.37,0,.72,.15,.99,.41,.26,.26,.41,.62,.41,.99Z"/><path class="cls-6" d="M98.81,795.62c0,.27-.08,.54-.24,.77-.15,.23-.37,.41-.63,.52-.25,.1-.54,.13-.81,.08-.27-.06-.52-.19-.71-.39-.19-.19-.33-.44-.38-.71s-.03-.55,.08-.81c.11-.25,.28-.47,.51-.62,.23-.16,.5-.24,.77-.24,.18,0,.37,.04,.53,.11,.17,.07,.32,.17,.45,.3s.23,.29,.3,.45c.07,.17,.11,.36,.11,.54Z"/><path class="cls-6" d="M42.83,813.7c.77,0,1.39-.62,1.39-1.39s-.62-1.4-1.39-1.4-1.4,.63-1.4,1.4,.62,1.39,1.4,1.39Z"/><path class="cls-6" d="M61.03,813.7c.77,0,1.4-.62,1.4-1.39s-.62-1.4-1.4-1.4-1.4,.63-1.4,1.4,.62,1.39,1.4,1.39Z"/><path class="cls-6" d="M79.22,813.7c.77,0,1.39-.62,1.39-1.39s-.62-1.4-1.39-1.4-1.4,.63-1.4,1.4,.62,1.39,1.4,1.39Z"/><path class="cls-6" d="M97.42,813.7c.77,0,1.4-.62,1.4-1.39s-.62-1.4-1.4-1.4-1.4,.63-1.4,1.4,.62,1.39,1.4,1.39Z"/><path class="cls-6" d="M8.61,813.7c.77,0,1.4-.62,1.4-1.39s-.62-1.4-1.4-1.4-1.4,.63-1.4,1.4,.62,1.39,1.4,1.39Z"/><path class="cls-6" d="M26.81,813.7c.77,0,1.4-.62,1.4-1.39s-.62-1.4-1.4-1.4-1.4,.63-1.4,1.4,.62,1.39,1.4,1.39Z"/><path class="cls-9" d="M1789.14,302.44c1.13,0,2.04-.91,2.04-2.04s-.91-2.04-2.04-2.04-2.04,.91-2.04,2.04,.91,2.04,2.04,2.04Z"/><path class="cls-9" d="M1815.79,302.44c1.13,0,2.04-.91,2.04-2.04s-.91-2.04-2.04-2.04-2.05,.91-2.05,2.04,.92,2.04,2.05,2.04Z"/><path class="cls-9" d="M1842.44,302.44c1.13,0,2.04-.91,2.04-2.04s-.91-2.04-2.04-2.04-2.05,.91-2.05,2.04,.92,2.04,2.05,2.04Z"/><path class="cls-9" d="M1789.14,328.86c1.13,0,2.04-.91,2.04-2.04s-.91-2.05-2.04-2.05-2.04,.92-2.04,2.05,.91,2.04,2.04,2.04Z"/><path class="cls-9" d="M1815.79,328.86c1.13,0,2.04-.91,2.04-2.04s-.91-2.05-2.04-2.05-2.05,.92-2.05,2.05,.92,2.04,2.05,2.04Z"/><path class="cls-9" d="M1842.44,328.86c1.13,0,2.04-.91,2.04-2.04s-.91-2.05-2.04-2.05-2.05,.92-2.05,2.05,.92,2.04,2.05,2.04Z"/><path class="cls-9" d="M1791.18,353.23c0,.41-.12,.8-.34,1.14-.22,.33-.54,.6-.92,.75-.37,.15-.78,.19-1.18,.12-.4-.08-.76-.28-1.05-.56-.28-.29-.47-.65-.55-1.05-.09-.4-.04-.81,.12-1.18,.15-.37,.41-.69,.74-.92,.34-.22,.74-.34,1.14-.34,.54,0,1.06,.21,1.45,.6s.59,.9,.59,1.44Z"/><path class="cls-9" d="M1817.83,353.23c0,.41-.12,.8-.34,1.14-.23,.33-.54,.6-.92,.75s-.78,.19-1.18,.12c-.4-.08-.76-.28-1.05-.56-.28-.29-.47-.65-.56-1.05-.08-.4-.04-.81,.12-1.18,.15-.37,.41-.69,.75-.92,.34-.22,.74-.34,1.14-.34,.54,0,1.06,.21,1.44,.6,.39,.38,.6,.9,.6,1.44Z"/><path class="cls-9" d="M1844.48,353.23c0,.41-.12,.8-.34,1.14-.23,.33-.55,.6-.92,.75-.38,.15-.78,.19-1.18,.12-.4-.08-.76-.28-1.05-.56-.28-.29-.48-.65-.56-1.05-.08-.4-.04-.81,.12-1.18,.15-.37,.41-.69,.75-.92,.34-.22,.73-.34,1.14-.34,.54,0,1.06,.21,1.44,.6,.39,.38,.6,.9,.6,1.44Z"/><path class="cls-9" d="M1791.18,379.65c0,.4-.12,.8-.34,1.13-.22,.34-.54,.6-.92,.76-.37,.15-.78,.19-1.18,.11-.4-.08-.76-.27-1.05-.56s-.47-.65-.55-1.04c-.09-.4-.04-.81,.12-1.18,.15-.38,.41-.7,.74-.92,.34-.22,.74-.34,1.14-.34,.27,0,.54,.05,.78,.15,.25,.1,.48,.25,.67,.44,.18,.19,.34,.42,.44,.67s.15,.51,.15,.78Z"/><path class="cls-9" d="M1817.83,379.65c0,.4-.12,.8-.34,1.13-.23,.34-.55,.6-.92,.76-.38,.15-.78,.19-1.18,.11-.4-.08-.76-.27-1.05-.56s-.47-.65-.56-1.04c-.08-.4-.04-.81,.12-1.18,.15-.38,.41-.7,.75-.92,.34-.22,.74-.34,1.14-.34,.27,0,.53,.05,.78,.15s.48,.25,.66,.44c.19,.19,.35,.42,.45,.67,.1,.25,.15,.51,.15,.78Z"/><path class="cls-9" d="M1844.48,379.65c0,.4-.12,.8-.34,1.13-.23,.34-.55,.6-.92,.76-.38,.15-.78,.19-1.18,.11-.4-.08-.76-.27-1.05-.56-.28-.28-.48-.65-.56-1.04-.08-.4-.04-.81,.12-1.18,.15-.38,.41-.7,.75-.92,.34-.22,.73-.34,1.14-.34,.54,0,1.06,.21,1.44,.59s.6,.91,.6,1.45Z"/><path class="cls-9" d="M1685.73,302.44c1.13,0,2.05-.91,2.05-2.04s-.92-2.04-2.05-2.04-2.04,.91-2.04,2.04,.91,2.04,2.04,2.04Z"/><path class="cls-9" d="M1712.38,302.44c1.13,0,2.05-.91,2.05-2.04s-.92-2.04-2.05-2.04-2.04,.91-2.04,2.04,.91,2.04,2.04,2.04Z"/><path class="cls-9" d="M1739.03,302.44c1.13,0,2.05-.91,2.05-2.04s-.92-2.04-2.05-2.04-2.04,.91-2.04,2.04,.91,2.04,2.04,2.04Z"/><path class="cls-9" d="M1765.68,302.44c1.13,0,2.05-.91,2.05-2.04s-.92-2.04-2.05-2.04-2.04,.91-2.04,2.04,.91,2.04,2.04,2.04Z"/><path class="cls-9" d="M1685.73,328.86c1.13,0,2.05-.91,2.05-2.04s-.92-2.05-2.05-2.05-2.04,.92-2.04,2.05,.91,2.04,2.04,2.04Z"/><path class="cls-9" d="M1712.38,328.86c1.13,0,2.05-.91,2.05-2.04s-.92-2.05-2.05-2.05-2.04,.92-2.04,2.05,.91,2.04,2.04,2.04Z"/><path class="cls-9" d="M1739.03,328.86c1.13,0,2.05-.91,2.05-2.04s-.92-2.05-2.05-2.05-2.04,.92-2.04,2.05,.91,2.04,2.04,2.04Z"/><path class="cls-9" d="M1765.68,328.86c1.13,0,2.05-.91,2.05-2.04s-.92-2.05-2.05-2.05-2.04,.92-2.04,2.05,.91,2.04,2.04,2.04Z"/><path class="cls-9" d="M1687.78,353.23c0,.41-.13,.8-.35,1.14-.23,.33-.55,.6-.91,.75-.38,.15-.79,.19-1.19,.12-.39-.08-.76-.28-1.04-.56s-.49-.65-.56-1.05c-.08-.4-.04-.81,.11-1.18,.16-.37,.42-.69,.76-.92,.33-.22,.72-.34,1.13-.34,.54,0,1.06,.21,1.44,.6,.39,.38,.61,.9,.61,1.44Z"/><path class="cls-9" d="M1714.43,353.23c0,.41-.13,.8-.35,1.14-.23,.33-.55,.6-.91,.75-.38,.15-.79,.19-1.19,.12-.39-.08-.76-.28-1.04-.56-.29-.29-.49-.65-.56-1.05-.08-.4-.04-.81,.11-1.18,.16-.37,.42-.69,.76-.92,.33-.22,.72-.34,1.13-.34,.54,0,1.06,.21,1.45,.6,.37,.38,.6,.9,.6,1.44Z"/><path class="cls-9" d="M1741.08,353.23c0,.41-.13,.8-.35,1.14-.23,.33-.54,.6-.92,.75-.37,.15-.79,.19-1.17,.12-.4-.08-.77-.28-1.05-.56-.29-.29-.49-.65-.56-1.05-.08-.4-.04-.81,.11-1.18,.16-.37,.42-.69,.76-.92,.33-.22,.73-.34,1.13-.34,.54,0,1.06,.21,1.45,.6,.37,.38,.6,.9,.6,1.44Z"/><path class="cls-9" d="M1767.72,353.23c0,.41-.12,.8-.34,1.14-.22,.33-.54,.6-.92,.75-.37,.15-.79,.19-1.18,.12-.4-.08-.76-.28-1.05-.56-.28-.29-.48-.65-.55-1.05-.08-.4-.04-.81,.11-1.18,.16-.37,.42-.69,.75-.92,.34-.22,.74-.34,1.13-.34,.27,0,.55,.05,.79,.16,.25,.1,.47,.25,.67,.44,.18,.19,.34,.41,.43,.66,.11,.25,.16,.51,.16,.78Z"/><path class="cls-9" d="M1687.78,379.65c0,.4-.13,.8-.35,1.13-.23,.34-.55,.6-.91,.76-.38,.15-.79,.19-1.19,.11-.39-.08-.76-.27-1.04-.56-.29-.28-.49-.65-.56-1.04-.08-.4-.04-.81,.11-1.18,.16-.38,.42-.7,.76-.92,.33-.22,.72-.34,1.13-.34,.27,0,.53,.05,.79,.15,.24,.1,.46,.25,.65,.44,.2,.19,.34,.42,.45,.67,.1,.25,.16,.51,.16,.78Z"/><path class="cls-9" d="M1714.43,379.65c0,.4-.13,.8-.35,1.13-.23,.34-.55,.6-.92,.76-.37,.15-.79,.19-1.18,.11-.39-.08-.76-.27-1.04-.56-.29-.28-.49-.65-.56-1.04-.08-.4-.04-.81,.11-1.18,.16-.38,.42-.7,.76-.92,.33-.22,.72-.34,1.13-.34,.27,0,.53,.05,.79,.15,.24,.1,.46,.25,.66,.44,.19,.19,.33,.42,.44,.67,.1,.25,.16,.51,.16,.78Z"/><path class="cls-9" d="M1741.08,379.65c0,.4-.13,.8-.35,1.13-.23,.34-.54,.6-.92,.76-.37,.15-.79,.19-1.18,.11-.39-.08-.76-.27-1.04-.56-.29-.28-.49-.65-.56-1.04-.08-.4-.04-.81,.11-1.18,.16-.38,.42-.7,.76-.92,.33-.22,.73-.34,1.13-.34,.54,0,1.06,.21,1.45,.59,.37,.39,.6,.91,.6,1.45Z"/><path class="cls-9" d="M1767.72,379.65c0,.4-.12,.8-.34,1.13-.22,.34-.54,.6-.92,.76-.37,.15-.79,.19-1.18,.11-.4-.08-.76-.27-1.05-.56-.28-.28-.48-.65-.55-1.04-.08-.4-.04-.81,.11-1.18,.16-.38,.42-.7,.75-.92,.34-.22,.74-.34,1.14-.34,.26,0,.54,.05,.78,.15,.25,.1,.47,.25,.67,.44,.18,.19,.34,.42,.43,.67,.11,.25,.16,.51,.16,.78Z"/><path class="cls-9" d="M1685.73,406.12c1.13,0,2.05-.91,2.05-2.04s-.92-2.05-2.05-2.05-2.04,.92-2.04,2.05,.91,2.04,2.04,2.04Z"/><path class="cls-9" d="M1712.38,406.12c1.13,0,2.05-.91,2.05-2.04s-.92-2.05-2.05-2.05-2.04,.92-2.04,2.05,.91,2.04,2.04,2.04Z"/><path class="cls-9" d="M1739.03,406.12c1.13,0,2.05-.91,2.05-2.04s-.92-2.05-2.05-2.05-2.04,.92-2.04,2.05,.91,2.04,2.04,2.04Z"/><path class="cls-9" d="M1765.68,406.12c1.13,0,2.05-.91,2.05-2.04s-.92-2.05-2.05-2.05-2.04,.92-2.04,2.05,.91,2.04,2.04,2.04Z"/><path class="cls-9" d="M1685.73,432.54c1.13,0,2.05-.92,2.05-2.05s-.92-2.04-2.05-2.04-2.04,.91-2.04,2.04,.91,2.05,2.04,2.05Z"/><path class="cls-9" d="M1712.38,432.54c1.13,0,2.05-.92,2.05-2.05s-.92-2.04-2.05-2.04-2.04,.91-2.04,2.04,.91,2.05,2.04,2.05Z"/><path class="cls-9" d="M1739.03,432.54c1.13,0,2.05-.92,2.05-2.05s-.92-2.04-2.05-2.04-2.04,.91-2.04,2.04,.91,2.05,2.04,2.05Z"/><path class="cls-9" d="M1765.68,432.54c1.13,0,2.05-.92,2.05-2.05s-.92-2.04-2.05-2.04-2.04,.91-2.04,2.04,.91,2.05,2.04,2.05Z"/><path class="cls-9" d="M1687.78,456.91c0,.4-.13,.8-.35,1.13-.23,.34-.55,.6-.91,.75-.38,.16-.79,.2-1.19,.12-.39-.08-.76-.27-1.04-.56-.29-.28-.49-.65-.56-1.04-.08-.4-.04-.81,.11-1.18,.16-.38,.42-.7,.76-.92,.33-.23,.72-.35,1.13-.35,.54,0,1.06,.22,1.44,.6s.61,.91,.61,1.45Z"/><path class="cls-9" d="M1714.43,456.91c0,.4-.13,.8-.35,1.13-.23,.34-.55,.6-.91,.75-.38,.16-.79,.2-1.19,.12-.39-.08-.76-.27-1.04-.56-.29-.28-.49-.65-.56-1.04-.08-.4-.04-.81,.11-1.18,.16-.38,.42-.7,.76-.92,.33-.23,.72-.35,1.13-.35,.54,0,1.06,.22,1.45,.6,.37,.39,.6,.91,.6,1.45Z"/><path class="cls-9" d="M1741.08,456.91c0,.4-.13,.8-.35,1.13-.23,.34-.54,.6-.92,.75-.37,.16-.79,.2-1.17,.12-.4-.08-.77-.27-1.05-.56-.29-.28-.49-.65-.56-1.04-.08-.4-.04-.81,.11-1.18,.16-.38,.42-.7,.76-.92,.33-.23,.73-.35,1.13-.35,.54,0,1.06,.22,1.45,.6,.37,.39,.6,.91,.6,1.45Z"/><path class="cls-9" d="M1767.72,456.91c0,.4-.12,.8-.34,1.13-.22,.34-.54,.6-.92,.75-.37,.16-.79,.2-1.18,.12-.4-.08-.76-.27-1.05-.56s-.48-.65-.55-1.04c-.08-.4-.04-.81,.11-1.18,.16-.38,.42-.7,.75-.92,.34-.23,.74-.35,1.13-.35,.27,0,.55,.06,.79,.16,.25,.1,.47,.25,.67,.44,.18,.19,.34,.42,.43,.67,.11,.24,.16,.51,.16,.78Z"/><path class="cls-9" d="M1687.78,483.33c0,.4-.13,.79-.35,1.13-.23,.34-.55,.6-.91,.75-.38,.16-.79,.2-1.19,.12-.39-.08-.76-.28-1.04-.56-.29-.29-.49-.65-.56-1.05-.08-.39-.04-.8,.11-1.18,.16-.37,.42-.69,.76-.91,.33-.23,.72-.35,1.13-.35,.27,0,.53,.05,.79,.16,.24,.1,.46,.25,.65,.44,.2,.19,.34,.42,.45,.66,.1,.25,.16,.52,.16,.79Z"/><path class="cls-9" d="M1714.43,483.33c0,.4-.13,.79-.35,1.13-.23,.34-.55,.6-.92,.75-.37,.16-.79,.2-1.18,.12-.39-.08-.76-.28-1.04-.56-.29-.29-.49-.65-.56-1.05-.08-.39-.04-.8,.11-1.18,.16-.37,.42-.69,.76-.91,.33-.23,.72-.35,1.13-.35,.27,0,.53,.05,.79,.16,.24,.1,.46,.25,.66,.44,.19,.19,.33,.42,.44,.66,.1,.25,.16,.52,.16,.79Z"/><path class="cls-9" d="M1741.08,483.33c0,.4-.13,.79-.35,1.13-.23,.34-.54,.6-.92,.75-.37,.16-.79,.2-1.18,.12-.39-.08-.76-.28-1.04-.56-.29-.29-.49-.65-.56-1.05-.08-.39-.04-.8,.11-1.18,.16-.37,.42-.69,.76-.91,.33-.23,.73-.35,1.13-.35,.54,0,1.06,.22,1.45,.6,.37,.38,.6,.9,.6,1.45Z"/><path class="cls-9" d="M1767.72,483.33c0,.4-.12,.79-.34,1.13-.22,.34-.54,.6-.92,.75-.37,.16-.79,.2-1.18,.12-.4-.08-.76-.28-1.05-.56-.28-.29-.48-.65-.55-1.05-.08-.39-.04-.8,.11-1.18,.16-.37,.42-.69,.75-.91,.34-.23,.74-.35,1.14-.35,.26,0,.54,.05,.78,.16,.25,.1,.47,.25,.67,.44,.18,.19,.34,.42,.43,.66,.11,.25,.16,.52,.16,.79Z"/><path class="cls-9" d="M1789.14,406.12c1.13,0,2.04-.91,2.04-2.04s-.91-2.05-2.04-2.05-2.04,.92-2.04,2.05,.91,2.04,2.04,2.04Z"/><path class="cls-9" d="M1815.79,406.12c1.13,0,2.04-.91,2.04-2.04s-.91-2.05-2.04-2.05-2.05,.92-2.05,2.05,.92,2.04,2.05,2.04Z"/><path class="cls-9" d="M1842.44,406.12c1.13,0,2.04-.91,2.04-2.04s-.91-2.05-2.04-2.05-2.05,.92-2.05,2.05,.92,2.04,2.05,2.04Z"/><path class="cls-9" d="M1789.14,432.54c1.13,0,2.04-.92,2.04-2.05s-.91-2.04-2.04-2.04-2.04,.91-2.04,2.04,.91,2.05,2.04,2.05Z"/><path class="cls-9" d="M1815.79,432.54c1.13,0,2.04-.92,2.04-2.05s-.91-2.04-2.04-2.04-2.05,.91-2.05,2.04,.92,2.05,2.05,2.05Z"/><path class="cls-9" d="M1842.44,432.54c1.13,0,2.04-.92,2.04-2.05s-.91-2.04-2.04-2.04-2.05,.91-2.05,2.04,.92,2.05,2.05,2.05Z"/><path class="cls-9" d="M1791.18,456.91c0,.4-.12,.8-.34,1.13-.22,.34-.54,.6-.92,.75-.37,.16-.78,.2-1.18,.12-.4-.08-.76-.27-1.05-.56-.28-.28-.47-.65-.55-1.04-.09-.4-.04-.81,.12-1.18,.15-.38,.41-.7,.74-.92,.34-.23,.74-.35,1.14-.35,.54,0,1.06,.22,1.45,.6,.38,.39,.59,.91,.59,1.45Z"/><path class="cls-9" d="M1817.83,456.91c0,.4-.12,.8-.34,1.13-.23,.34-.54,.6-.92,.75-.38,.16-.78,.2-1.18,.12-.4-.08-.76-.27-1.05-.56-.28-.28-.47-.65-.56-1.04-.08-.4-.04-.81,.12-1.18,.15-.38,.41-.7,.75-.92,.34-.23,.74-.35,1.14-.35,.54,0,1.06,.22,1.44,.6s.6,.91,.6,1.45Z"/><path class="cls-9" d="M1844.48,456.91c0,.4-.12,.8-.34,1.13-.23,.34-.55,.6-.92,.75-.38,.16-.78,.2-1.18,.12-.4-.08-.76-.27-1.05-.56s-.48-.65-.56-1.04c-.08-.4-.04-.81,.12-1.18,.15-.38,.41-.7,.75-.92,.34-.23,.73-.35,1.14-.35,.54,0,1.06,.22,1.44,.6s.6,.91,.6,1.45Z"/><path class="cls-9" d="M1791.18,483.33c0,.4-.12,.79-.34,1.13-.22,.34-.54,.6-.92,.75-.37,.16-.78,.2-1.18,.12-.4-.08-.76-.28-1.05-.56-.28-.29-.47-.65-.55-1.05-.09-.39-.04-.8,.12-1.18,.15-.37,.41-.69,.74-.91,.34-.23,.74-.35,1.14-.35,.27,0,.54,.05,.78,.16,.25,.1,.48,.25,.67,.44,.18,.19,.34,.42,.44,.66,.1,.25,.15,.52,.15,.79Z"/><path class="cls-9" d="M1817.83,483.33c0,.4-.12,.79-.34,1.13-.23,.34-.55,.6-.92,.75-.38,.16-.78,.2-1.18,.12-.4-.08-.76-.28-1.05-.56-.28-.29-.47-.65-.56-1.05-.08-.39-.04-.8,.12-1.18,.15-.37,.41-.69,.75-.91,.34-.23,.74-.35,1.14-.35,.27,0,.53,.05,.78,.16,.25,.1,.48,.25,.66,.44,.19,.19,.35,.42,.45,.66,.1,.25,.15,.52,.15,.79Z"/><path class="cls-9" d="M1844.48,483.33c0,.4-.12,.79-.34,1.13-.23,.34-.55,.6-.92,.75-.38,.16-.78,.2-1.18,.12-.4-.08-.76-.28-1.05-.56-.28-.29-.48-.65-.56-1.05-.08-.39-.04-.8,.12-1.18,.15-.37,.41-.69,.75-.91,.34-.23,.73-.35,1.14-.35,.54,0,1.06,.22,1.44,.6,.39,.38,.6,.9,.6,1.45Z"/><path class="cls-9" d="M1685.73,509.8c1.13,0,2.05-.92,2.05-2.05s-.92-2.04-2.05-2.04-2.04,.91-2.04,2.04,.91,2.05,2.04,2.05Z"/><path class="cls-9" d="M1712.38,509.8c1.13,0,2.05-.92,2.05-2.05s-.92-2.04-2.05-2.04-2.04,.91-2.04,2.04,.91,2.05,2.04,2.05Z"/><path class="cls-9" d="M1739.03,509.8c1.13,0,2.05-.92,2.05-2.05s-.92-2.04-2.05-2.04-2.04,.91-2.04,2.04,.91,2.05,2.04,2.05Z"/><path class="cls-9" d="M1765.68,509.8c1.13,0,2.05-.92,2.05-2.05s-.92-2.04-2.05-2.04-2.04,.91-2.04,2.04,.91,2.05,2.04,2.05Z"/><path class="cls-9" d="M1685.73,536.21c1.13,0,2.05-.91,2.05-2.04s-.92-2.05-2.05-2.05-2.04,.92-2.04,2.05,.91,2.04,2.04,2.04Z"/><path class="cls-9" d="M1712.38,536.21c1.13,0,2.05-.91,2.05-2.04s-.92-2.05-2.05-2.05-2.04,.92-2.04,2.05,.91,2.04,2.04,2.04Z"/><path class="cls-9" d="M1739.03,536.21c1.13,0,2.05-.91,2.05-2.04s-.92-2.05-2.05-2.05-2.04,.92-2.04,2.05,.91,2.04,2.04,2.04Z"/><path class="cls-9" d="M1765.68,536.21c1.13,0,2.05-.91,2.05-2.04s-.92-2.05-2.05-2.05-2.04,.92-2.04,2.05,.91,2.04,2.04,2.04Z"/><path class="cls-9" d="M1687.78,560.58c0,.41-.13,.8-.35,1.14-.23,.33-.55,.6-.91,.75-.38,.16-.79,.2-1.19,.12-.39-.08-.76-.28-1.04-.56-.29-.29-.49-.65-.56-1.05-.08-.39-.04-.81,.11-1.18,.16-.37,.42-.69,.76-.92,.33-.22,.72-.34,1.13-.34,.54,0,1.06,.22,1.44,.6,.39,.38,.61,.9,.61,1.44Z"/><path class="cls-9" d="M1714.43,560.58c0,.41-.13,.8-.35,1.14-.23,.33-.55,.6-.91,.75-.38,.16-.79,.2-1.19,.12-.39-.08-.76-.28-1.04-.56-.29-.29-.49-.65-.56-1.05-.08-.39-.04-.81,.11-1.18,.16-.37,.42-.69,.76-.92,.33-.22,.72-.34,1.13-.34,.54,0,1.06,.22,1.45,.6,.37,.38,.6,.9,.6,1.44Z"/><path class="cls-9" d="M1741.08,560.58c0,.41-.13,.8-.35,1.14-.23,.33-.54,.6-.92,.75-.37,.16-.79,.2-1.17,.12-.4-.08-.77-.28-1.05-.56-.29-.29-.49-.65-.56-1.05-.08-.39-.04-.81,.11-1.18,.16-.37,.42-.69,.76-.92,.33-.22,.73-.34,1.13-.34,.54,0,1.06,.22,1.45,.6,.37,.38,.6,.9,.6,1.44Z"/><path class="cls-9" d="M1767.72,560.58c0,.41-.12,.8-.34,1.14-.22,.33-.54,.6-.92,.75-.37,.16-.79,.2-1.18,.12-.4-.08-.76-.28-1.05-.56-.28-.29-.48-.65-.55-1.05-.08-.39-.04-.81,.11-1.18,.16-.37,.42-.69,.75-.92,.34-.22,.74-.34,1.13-.34,.27,0,.55,.05,.79,.16,.25,.1,.47,.25,.67,.44,.18,.19,.34,.41,.43,.66,.11,.25,.16,.52,.16,.78Z"/><path class="cls-9" d="M1687.78,587c0,.4-.13,.8-.35,1.14-.23,.33-.55,.59-.91,.75-.38,.15-.79,.19-1.19,.11-.39-.08-.76-.27-1.04-.56-.29-.28-.49-.65-.56-1.04-.08-.4-.04-.81,.11-1.18,.16-.38,.42-.69,.76-.92,.33-.22,.72-.34,1.13-.34,.27,0,.53,.05,.79,.15,.24,.11,.46,.26,.65,.45,.2,.19,.34,.41,.45,.66,.1,.25,.16,.51,.16,.78Z"/><path class="cls-9" d="M1714.43,587c0,.4-.13,.8-.35,1.14-.23,.33-.55,.59-.92,.75-.37,.15-.79,.19-1.18,.11s-.76-.27-1.04-.56c-.29-.28-.49-.65-.56-1.04-.08-.4-.04-.81,.11-1.18,.16-.38,.42-.69,.76-.92,.33-.22,.72-.34,1.13-.34,.27,0,.53,.05,.79,.15,.24,.11,.46,.26,.66,.45,.19,.19,.33,.41,.44,.66,.1,.25,.16,.51,.16,.78Z"/><path class="cls-9" d="M1741.08,587c0,.4-.13,.8-.35,1.14-.23,.33-.54,.59-.92,.75-.37,.15-.79,.19-1.18,.11s-.76-.27-1.04-.56c-.29-.28-.49-.65-.56-1.04-.08-.4-.04-.81,.11-1.18,.16-.38,.42-.69,.76-.92,.33-.22,.73-.34,1.13-.34,.54,0,1.06,.21,1.45,.6,.37,.38,.6,.9,.6,1.44Z"/><path class="cls-9" d="M1767.72,587c0,.4-.12,.8-.34,1.14-.22,.33-.54,.59-.92,.75-.37,.15-.79,.19-1.18,.11-.4-.08-.76-.27-1.05-.56-.28-.28-.48-.65-.55-1.04-.08-.4-.04-.81,.11-1.18,.16-.38,.42-.69,.75-.92,.34-.22,.74-.34,1.14-.34,.26,0,.54,.05,.78,.15,.25,.11,.47,.26,.67,.45,.18,.19,.34,.41,.43,.66,.11,.25,.16,.51,.16,.78Z"/><path class="cls-9" d="M1789.14,509.8c1.13,0,2.04-.92,2.04-2.05s-.91-2.04-2.04-2.04-2.04,.91-2.04,2.04,.91,2.05,2.04,2.05Z"/><path class="cls-9" d="M1815.79,509.8c1.13,0,2.04-.92,2.04-2.05s-.91-2.04-2.04-2.04-2.05,.91-2.05,2.04,.92,2.05,2.05,2.05Z"/><path class="cls-9" d="M1842.44,509.8c1.13,0,2.04-.92,2.04-2.05s-.91-2.04-2.04-2.04-2.05,.91-2.05,2.04,.92,2.05,2.05,2.05Z"/><path class="cls-9" d="M1789.14,536.21c1.13,0,2.04-.91,2.04-2.04s-.91-2.05-2.04-2.05-2.04,.92-2.04,2.05,.91,2.04,2.04,2.04Z"/><path class="cls-9" d="M1815.79,536.21c1.13,0,2.04-.91,2.04-2.04s-.91-2.05-2.04-2.05-2.05,.92-2.05,2.05,.92,2.04,2.05,2.04Z"/><path class="cls-9" d="M1842.44,536.21c1.13,0,2.04-.91,2.04-2.04s-.91-2.05-2.04-2.05-2.05,.92-2.05,2.05,.92,2.04,2.05,2.04Z"/><path class="cls-9" d="M1791.18,560.58c0,.41-.12,.8-.34,1.14-.22,.33-.54,.6-.92,.75-.37,.16-.78,.2-1.18,.12-.4-.08-.76-.28-1.05-.56-.28-.29-.47-.65-.55-1.05-.09-.39-.04-.81,.12-1.18,.15-.37,.41-.69,.74-.92,.34-.22,.74-.34,1.14-.34,.54,0,1.06,.22,1.45,.6,.38,.38,.59,.9,.59,1.44Z"/><path class="cls-9" d="M1817.83,560.58c0,.41-.12,.8-.34,1.14-.23,.33-.54,.6-.92,.75-.38,.16-.78,.2-1.18,.12-.4-.08-.76-.28-1.05-.56-.28-.29-.47-.65-.56-1.05-.08-.39-.04-.81,.12-1.18,.15-.37,.41-.69,.75-.92,.34-.22,.74-.34,1.14-.34,.54,0,1.06,.22,1.44,.6,.39,.38,.6,.9,.6,1.44Z"/><path class="cls-9" d="M1844.48,560.58c0,.41-.12,.8-.34,1.14-.23,.33-.55,.6-.92,.75-.38,.16-.78,.2-1.18,.12-.4-.08-.76-.28-1.05-.56-.28-.29-.48-.65-.56-1.05-.08-.39-.04-.81,.12-1.18,.15-.37,.41-.69,.75-.92,.34-.22,.73-.34,1.14-.34,.54,0,1.06,.22,1.44,.6,.39,.38,.6,.9,.6,1.44Z"/><path class="cls-9" d="M1791.18,587c0,.4-.12,.8-.34,1.14-.22,.33-.54,.59-.92,.75-.37,.15-.78,.19-1.18,.11s-.76-.27-1.05-.56-.47-.65-.55-1.04c-.09-.4-.04-.81,.12-1.18,.15-.38,.41-.69,.74-.92,.34-.22,.74-.34,1.14-.34,.27,0,.54,.05,.78,.15,.25,.11,.48,.26,.67,.45,.18,.19,.34,.41,.44,.66s.15,.51,.15,.78Z"/><path class="cls-9" d="M1817.83,587c0,.4-.12,.8-.34,1.14-.23,.33-.55,.59-.92,.75-.38,.15-.78,.19-1.18,.11s-.76-.27-1.05-.56-.47-.65-.56-1.04c-.08-.4-.04-.81,.12-1.18,.15-.38,.41-.69,.75-.92,.34-.22,.74-.34,1.14-.34,.27,0,.53,.05,.78,.15,.25,.11,.48,.26,.66,.45,.19,.19,.35,.41,.45,.66,.1,.25,.15,.51,.15,.78Z"/><path class="cls-9" d="M1844.48,587c0,.4-.12,.8-.34,1.14-.23,.33-.55,.59-.92,.75-.38,.15-.78,.19-1.18,.11-.4-.08-.76-.27-1.05-.56-.28-.28-.48-.65-.56-1.04-.08-.4-.04-.81,.12-1.18,.15-.38,.41-.69,.75-.92,.34-.22,.73-.34,1.14-.34,.54,0,1.06,.21,1.44,.6,.39,.38,.6,.9,.6,1.44Z"/></g></g></g></svg>