<svg width="20" height="20" viewBox="0 0 20 20" fill="none" xmlns="http://www.w3.org/2000/svg">
<path d="M3.79107 2.25701L11.364 10L9.98107 11.414L6.61075 7.96801C6.17781 8.71854 5.9964 9.59309 6.09411 10.4587C6.19182 11.3243 6.5633 12.1336 7.15208 12.7636C7.74085 13.3935 8.51471 13.8097 9.356 13.9488C10.1973 14.0879 11.06 13.9423 11.8129 13.5341C12.5659 13.126 13.1679 12.4776 13.5274 11.6876C13.8869 10.8976 13.9843 10.0092 13.8048 9.15737C13.6253 8.30558 13.1786 7.53702 12.5327 6.96856C11.8868 6.4001 11.0771 6.06282 10.2266 6.00801L8.46119 4.20301C9.79548 3.83717 11.2132 3.96434 12.4648 4.56214C13.7164 5.15994 14.7216 6.19004 15.3035 7.47109C15.8853 8.75213 16.0065 10.202 15.6457 11.5654C15.2849 12.9288 14.4652 14.1184 13.3309 14.9246C12.1967 15.7309 10.8206 16.1022 9.44497 15.9731C8.06932 15.8441 6.78231 15.223 5.81051 14.2191C4.8387 13.2153 4.24442 11.8931 4.13229 10.4853C4.02015 9.0775 4.39735 7.6744 5.19748 6.52301L3.79987 5.09401C2.63354 6.63136 2.05514 8.55061 2.17294 10.4925C2.29073 12.4344 3.09663 14.2659 4.43981 15.6441C5.78298 17.0223 7.57135 17.8528 9.47019 17.9802C11.369 18.1075 13.2482 17.5229 14.7559 16.3359C16.2636 15.1488 17.2966 13.4407 17.6614 11.5311C18.0262 9.62156 17.6979 7.64151 16.738 5.96158C15.778 4.28165 14.2522 3.01699 12.4461 2.40432C10.64 1.79164 8.67739 1.87294 6.92568 2.63301L5.45666 1.13201C6.85304 0.38603 8.40558 -0.00241366 9.98107 1.12842e-05C15.3828 1.12842e-05 19.7614 4.47701 19.7614 10C19.7614 15.523 15.3828 20 9.98107 20C4.57936 20 0.200689 15.523 0.200689 10C0.199214 8.51776 0.520676 7.05379 1.14172 5.71445C1.76276 4.37511 2.66779 3.19403 3.79107 2.25701Z" fill="#BFBFBF"/>
</svg>
